STARTFONT 2.1
COMMENT 
COMMENT
FONT -XGE-Song-Medium-R-Normal--16-160-72-72-c-160-gb13000.1993-1
SIZE 16 72 72
FONTBOUNDINGBOX 16 16 0 -2
STARTPROPERTIES 18
FONTNAME_REGISTRY ""
FOUNDRY "XGE"
FAMILY_NAME "song"
WEIGHT_NAME "Medium"
SLANT "R"
SETWIDTH_NAME "Normal"
ADD_STYLE_NAME ""
PIXEL_SIZE 16
POINT_SIZE 160
RESOLUTION_X 72
RESOLUTION_Y 72
SPACING "C"
AVERAGE_WIDTH 160
CHARSET_REGISTRY "gb13000.1993"
CHARSET_ENCODING "1"
FONT_ASCENT 14
FONT_DESCENT 2
DEFAULT_CHAR 41377
ENDPROPERTIES
CHARS 21791
STARTCHAR 0x8140
ENCODING 33088
SWIDTH 1000 0
DWIDTH 16 0
BBX 16 16 0 -2
BITMAP
0000
7FFE
0200
0200
0400
0400
07F8
0008
0008
0008
0008
0010
0010
0120
00C0
0000
ENDCHAR
STARTCHAR 0x8141
ENCODING 33089
SWIDTH 1000 0
DWIDTH 16 0
BBX 16 16 0 -2
BITMAP
0000
0100
0100
0100
0100
0100
0100
0100
0100
0100
0100
0100
0100
7FFE
0000
0000
ENDCHAR
STARTCHAR 0x8142
ENCODING 33090
SWIDTH 1000 0
DWIDTH 16 0
BBX 16 16 0 -2
BITMAP
0000
0004
7FFE
0100
0100
0100
0100
0100
0100
0100
0100
0100
0100
0100
0100
0000
ENDCHAR
STARTCHAR 0x8143
ENCODING 33091
SWIDTH 1000 0
DWIDTH 16 0
BBX 16 16 0 -2
BITMAP
0000
7FFC
0100
0100
0100
0200
0200
0400
0400
0800
1000
2000
4000
0000
0000
0000
ENDCHAR
STARTCHAR 0x8144
ENCODING 33092
SWIDTH 1000 0
DWIDTH 16 0
BBX 16 16 0 -2
BITMAP
0000
7FFE
0100
0100
1100
11FC
1104
1104
1104
1FFC
0004
0004
0004
0048
0030
0000
ENDCHAR
STARTCHAR 0x8145
ENCODING 33093
SWIDTH 1000 0
DWIDTH 16 0
BBX 16 16 0 -2
BITMAP
0000
3FFC
0104
1104
0D04
0304
0184
0244
0408
1848
6038
0010
0000
7FFE
0000
0000
ENDCHAR
STARTCHAR 0x8146
ENCODING 33094
SWIDTH 1000 0
DWIDTH 16 0
BBX 16 16 0 -2
BITMAP
0000
1110
1110
1110
1110
1110
FFFE
1110
1110
1110
1110
1110
1110
1FF0
1010
0000
ENDCHAR
STARTCHAR 0x8147
ENCODING 33095
SWIDTH 1000 0
DWIDTH 16 0
BBX 16 16 0 -2
BITMAP
0008
3FFC
0100
0100
1FF8
0100
0100
0100
7FFE
0100
0240
0420
09F0
1F18
0008
0000
ENDCHAR
STARTCHAR 0x8148
ENCODING 33096
SWIDTH 1000 0
DWIDTH 16 0
BBX 16 16 0 -2
BITMAP
0000
0440
0440
0448
7C5C
0470
0440
0440
1C44
7444
2446
043C
0000
7FFE
0000
0000
ENDCHAR
STARTCHAR 0x8149
ENCODING 33097
SWIDTH 1000 0
DWIDTH 16 0
BBX 16 16 0 -2
BITMAP
0000
FFFE
0100
0100
7FFC
4104
4924
4924
4924
4924
4FE4
4824
4004
4014
4008
0000
ENDCHAR
STARTCHAR 0x814A
ENCODING 33098
SWIDTH 1000 0
DWIDTH 16 0
BBX 16 16 0 -2
BITMAP
0000
FFFE
0240
0240
3E7C
2244
2244
2244
2244
3E7C
0240
0440
0840
1040
6040
0000
ENDCHAR
STARTCHAR 0x814B
ENCODING 33099
SWIDTH 1000 0
DWIDTH 16 0
BBX 16 16 0 -2
BITMAP
0020
1030
0C20
0440
7FFC
0440
0440
4448
244C
1458
1C50
1460
0440
0440
FFFE
0000
ENDCHAR
STARTCHAR 0x814C
ENCODING 33100
SWIDTH 1000 0
DWIDTH 16 0
BBX 16 16 0 -2
BITMAP
0040
0040
0840
0840
0840
0840
0840
0840
08C0
0B40
1C40
0840
0040
0040
0040
0000
ENDCHAR
STARTCHAR 0x814D
ENCODING 33101
SWIDTH 1000 0
DWIDTH 16 0
BBX 16 16 0 -2
BITMAP
0000
7FF0
0410
0410
0410
7FD0
0410
0410
0490
FFD0
0410
040A
040A
0406
0402
0000
ENDCHAR
STARTCHAR 0x814E
ENCODING 33102
SWIDTH 1000 0
DWIDTH 16 0
BBX 16 16 0 -2
BITMAP
0100
0100
010C
0170
0780
390C
0170
0380
3D06
0138
03C0
1D00
6100
0100
0100
0000
ENDCHAR
STARTCHAR 0x814F
ENCODING 33103
SWIDTH 1000 0
DWIDTH 16 0
BBX 16 16 0 -2
BITMAP
0240
0240
0244
2244
2244
2244
2644
2A44
327C
2244
0440
0440
0840
3040
C040
0000
ENDCHAR
STARTCHAR 0x8150
ENCODING 33104
SWIDTH 1000 0
DWIDTH 16 0
BBX 16 16 0 -2
BITMAP
0440
0440
3FF8
2448
3FF8
2448
0440
7FFC
4444
7FFC
4444
0440
0840
1040
6040
0000
ENDCHAR
STARTCHAR 0x8151
ENCODING 33105
SWIDTH 1000 0
DWIDTH 16 0
BBX 16 16 0 -2
BITMAP
0440
2448
1448
1450
FFFE
0820
0440
3FF8
0100
0100
7FFC
0100
0100
0100
0100
0100
ENDCHAR
STARTCHAR 0x8152
ENCODING 33106
SWIDTH 1000 0
DWIDTH 16 0
BBX 16 16 0 -2
BITMAP
0000
0000
0010
1018
0810
0430
0620
0340
0240
0080
0000
0000
0000
0000
0000
0000
ENDCHAR
STARTCHAR 0x8153
ENCODING 33107
SWIDTH 1000 0
DWIDTH 16 0
BBX 16 16 0 -2
BITMAP
0810
0810
0810
7FFE
0810
0A10
0990
0890
0810
FFFE
0810
1010
1010
2010
C010
0000
ENDCHAR
STARTCHAR 0x8154
ENCODING 33108
SWIDTH 1000 0
DWIDTH 16 0
BBX 16 16 0 -2
BITMAP
0000
0000
0000
1000
3000
5000
8800
0800
0400
0200
0180
0060
001E
0004
0000
0000
ENDCHAR
STARTCHAR 0x8155
ENCODING 33109
SWIDTH 1000 0
DWIDTH 16 0
BBX 16 16 0 -2
BITMAP
0040
7FE0
0040
0040
0040
0040
0040
0040
0020
0020
0010
0010
0008
000E
0004
0000
ENDCHAR
STARTCHAR 0x8156
ENCODING 33110
SWIDTH 1000 0
DWIDTH 16 0
BBX 16 16 0 -2
BITMAP
0000
0010
0818
0810
0810
0420
0420
0220
0240
01C0
0080
0140
0630
181E
E004
0000
ENDCHAR
STARTCHAR 0x8157
ENCODING 33111
SWIDTH 1000 0
DWIDTH 16 0
BBX 16 16 0 -2
BITMAP
0008
000C
0008
0008
0008
0110
00D0
0070
0038
006C
00C4
8180
8600
9800
6000
0000
ENDCHAR
STARTCHAR 0x8158
ENCODING 33112
SWIDTH 1000 0
DWIDTH 16 0
BBX 16 16 0 -2
BITMAP
0400
0620
0430
0420
0840
1040
3FC0
1080
00C0
0140
0120
0230
0418
180E
6004
0000
ENDCHAR
STARTCHAR 0x8159
ENCODING 33113
SWIDTH 1000 0
DWIDTH 16 0
BBX 16 16 0 -2
BITMAP
0000
0000
0008
007C
0780
7808
000C
1018
0C10
0620
0440
0000
0000
0000
0000
0000
ENDCHAR
STARTCHAR 0x815A
ENCODING 33114
SWIDTH 1000 0
DWIDTH 16 0
BBX 16 16 0 -2
BITMAP
0010
01F8
7F00
0108
091C
0D30
19C0
2140
4920
8D20
1910
3118
410E
8104
0100
0000
ENDCHAR
STARTCHAR 0x815B
ENCODING 33115
SWIDTH 1000 0
DWIDTH 16 0
BBX 16 16 0 -2
BITMAP
0038
3FC0
2080
2088
2FFC
2080
3FFE
2080
2888
2FFC
2888
2888
48A8
4890
8080
0000
ENDCHAR
STARTCHAR 0x815C
ENCODING 33116
SWIDTH 1000 0
DWIDTH 16 0
BBX 16 16 0 -2
BITMAP
0038
3FC0
0100
3FFC
0910
0910
7FFE
0910
0910
3FFC
0340
0720
0D18
310E
C104
0100
ENDCHAR
STARTCHAR 0x815D
ENCODING 33117
SWIDTH 1000 0
DWIDTH 16 0
BBX 16 16 0 -2
BITMAP
1000
1000
1000
1000
1000
1000
1000
1000
1000
1000
1004
1004
1004
1006
0FFC
0000
ENDCHAR
STARTCHAR 0x815E
ENCODING 33118
SWIDTH 1000 0
DWIDTH 16 0
BBX 16 16 0 -2
BITMAP
0000
0000
0000
0004
FFFE
000C
0008
0010
0000
0000
0000
0000
0000
0000
0000
0000
ENDCHAR
STARTCHAR 0x815F
ENCODING 33119
SWIDTH 1000 0
DWIDTH 16 0
BBX 16 16 0 -2
BITMAP
0820
0C30
0820
0820
4920
4920
4920
4920
4920
4920
4920
4922
4F22
F122
401E
0000
ENDCHAR
STARTCHAR 0x8160
ENCODING 33120
SWIDTH 1000 0
DWIDTH 16 0
BBX 16 16 0 -2
BITMAP
0420
0630
0420
0820
0920
11A0
2320
7E20
2420
0820
1220
2122
7FA2
0122
001E
0000
ENDCHAR
STARTCHAR 0x8161
ENCODING 33121
SWIDTH 1000 0
DWIDTH 16 0
BBX 16 16 0 -2
BITMAP
0000
7FFE
0100
01C0
0130
0110
0100
7FF8
0030
0060
0180
0604
1804
3006
3FFC
0000
ENDCHAR
STARTCHAR 0x8162
ENCODING 33122
SWIDTH 1000 0
DWIDTH 16 0
BBX 16 16 0 -2
BITMAP
0078
7FC0
0020
1030
0860
0C40
0890
7FF8
0030
00C0
0300
0C04
1804
3006
3FFC
0000
ENDCHAR
STARTCHAR 0x8163
ENCODING 33123
SWIDTH 1000 0
DWIDTH 16 0
BBX 16 16 0 -2
BITMAP
0840
0640
1240
0C44
08FE
7F40
0040
0050
7FF8
0030
00C0
0304
0C04
1006
1FFC
0000
ENDCHAR
STARTCHAR 0x8164
ENCODING 33124
SWIDTH 1000 0
DWIDTH 16 0
BBX 16 16 0 -2
BITMAP
0820
0C20
1820
1220
2120
4FA0
78A0
0020
3F20
2120
2120
2120
2122
3F22
211E
0000
ENDCHAR
STARTCHAR 0x8165
ENCODING 33125
SWIDTH 1000 0
DWIDTH 16 0
BBX 16 16 0 -2
BITMAP
0000
0000
FC00
07F8
0A48
0A48
1248
13F8
2248
2248
2248
43F8
420A
4002
3FFE
0000
ENDCHAR
STARTCHAR 0x8166
ENCODING 33126
SWIDTH 1000 0
DWIDTH 16 0
BBX 16 16 0 -2
BITMAP
0800
0800
7F7C
0944
0944
117C
2644
4000
3FF0
0060
0180
0304
0C04
1806
1FFC
0000
ENDCHAR
STARTCHAR 0x8167
ENCODING 33127
SWIDTH 1000 0
DWIDTH 16 0
BBX 16 16 0 -2
BITMAP
3FFC
2000
3FF0
2010
3FF0
2000
3FFC
0000
3FF0
0060
0180
0604
0C04
1806
0FFC
0000
ENDCHAR
STARTCHAR 0x8168
ENCODING 33128
SWIDTH 1000 0
DWIDTH 16 0
BBX 16 16 0 -2
BITMAP
0008
7FFC
0400
0FF0
1810
2810
4FF0
0000
7FF0
0060
0180
0604
1804
2006
3FFC
0000
ENDCHAR
STARTCHAR 0x8169
ENCODING 33129
SWIDTH 1000 0
DWIDTH 16 0
BBX 16 16 0 -2
BITMAP
0600
3878
2448
2648
7C48
2468
0850
3040
0000
7FF0
0060
0184
0604
1806
1FFC
0000
ENDCHAR
STARTCHAR 0x816A
ENCODING 33130
SWIDTH 1000 0
DWIDTH 16 0
BBX 16 16 0 -2
BITMAP
03F0
7D20
1130
0940
FFFC
0100
0100
0500
0220
7FF0
00C0
0304
0C04
1006
3FFC
0000
ENDCHAR
STARTCHAR 0x816B
ENCODING 33131
SWIDTH 1000 0
DWIDTH 16 0
BBX 16 16 0 -2
BITMAP
0100
4100
23FC
0488
1090
3140
6230
240C
7FE0
00C0
0300
0C08
1008
200C
3FF8
0000
ENDCHAR
STARTCHAR 0x816C
ENCODING 33132
SWIDTH 1000 0
DWIDTH 16 0
BBX 16 16 0 -2
BITMAP
080C
08F0
7E84
08FE
1C90
6890
0910
7910
1200
7FF0
0060
0184
0604
1806
3FFC
0000
ENDCHAR
STARTCHAR 0x816D
ENCODING 33133
SWIDTH 1000 0
DWIDTH 16 0
BBX 16 16 0 -2
BITMAP
1000
0820
7FA0
0220
4320
3220
2420
FFA0
0820
0820
7F20
0822
0822
0822
081E
0800
ENDCHAR
STARTCHAR 0x816E
ENCODING 33134
SWIDTH 1000 0
DWIDTH 16 0
BBX 16 16 0 -2
BITMAP
0110
7FFC
0100
3FF8
2108
3FF8
2108
3FF8
2108
0000
7FF8
0030
01C4
0604
1806
3FFC
ENDCHAR
STARTCHAR 0x816F
ENCODING 33135
SWIDTH 1000 0
DWIDTH 16 0
BBX 16 16 0 -2
BITMAP
2040
1040
9158
414C
4A46
1044
6038
27C0
0000
7FF0
0060
0184
0604
1806
1FFC
0000
ENDCHAR
STARTCHAR 0x8170
ENCODING 33136
SWIDTH 1000 0
DWIDTH 16 0
BBX 16 16 0 -2
BITMAP
0800
08F8
08C8
2EA8
3A88
EBFE
2AC8
2AA8
2A88
2AFE
2608
2028
2012
2002
1FFE
0000
ENDCHAR
STARTCHAR 0x8171
ENCODING 33137
SWIDTH 1000 0
DWIDTH 16 0
BBX 16 16 0 -2
BITMAP
0820
0820
FFA0
1020
7F20
4120
7F20
4120
7F20
0820
0920
FFA2
0822
0822
081E
0800
ENDCHAR
STARTCHAR 0x8172
ENCODING 33138
SWIDTH 1000 0
DWIDTH 16 0
BBX 16 16 0 -2
BITMAP
060C
38F0
2080
3EFE
2288
3E88
2088
4108
8000
7FE0
00C0
0300
0C04
1004
3FFC
0000
ENDCHAR
STARTCHAR 0x8173
ENCODING 33139
SWIDTH 1000 0
DWIDTH 16 0
BBX 16 16 0 -2
BITMAP
1020
0820
7F50
1088
1F26
2248
2210
4A60
8400
7FE0
00C0
0300
0C04
3004
3FFE
0000
ENDCHAR
STARTCHAR 0x8174
ENCODING 33140
SWIDTH 1000 0
DWIDTH 16 0
BBX 16 16 0 -2
BITMAP
4080
2440
4BFC
2840
13FC
7040
27FE
2000
3FF8
0030
00C0
0300
0C04
1004
3FFC
0000
ENDCHAR
STARTCHAR 0x8175
ENCODING 33141
SWIDTH 1000 0
DWIDTH 16 0
BBX 16 16 0 -2
BITMAP
0100
1FD0
0120
FFFE
07F0
3910
C890
0FF0
0000
7FF0
0060
0384
0C04
1006
1FFC
0000
ENDCHAR
STARTCHAR 0x8176
ENCODING 33142
SWIDTH 1000 0
DWIDTH 16 0
BBX 16 16 0 -2
BITMAP
0380
7D20
49A0
2920
2620
1820
2320
7E20
1820
7FA0
4820
2A22
4922
89A2
281E
1000
ENDCHAR
STARTCHAR 0x8177
ENCODING 33143
SWIDTH 1000 0
DWIDTH 16 0
BBX 16 16 0 -2
BITMAP
0400
0FE0
10C0
3FF8
5108
1FF8
1108
1FF8
0100
3FFC
2104
3FFC
2104
3FFC
0102
01FE
ENDCHAR
STARTCHAR 0x8178
ENCODING 33144
SWIDTH 1000 0
DWIDTH 16 0
BBX 16 16 0 -2
BITMAP
1040
1060
FE40
10FE
7E80
5300
4AFC
7E08
0010
7E20
1040
FF80
1082
1082
107E
0000
ENDCHAR
STARTCHAR 0x8179
ENCODING 33145
SWIDTH 1000 0
DWIDTH 16 0
BBX 16 16 0 -2
BITMAP
0790
7D10
2990
1510
7F90
0610
7F90
4890
5490
7E90
4090
5E90
4C92
7692
411E
0000
ENDCHAR
STARTCHAR 0x817A
ENCODING 33146
SWIDTH 1000 0
DWIDTH 16 0
BBX 16 16 0 -2
BITMAP
0510
2590
1510
7FD0
0E10
1510
2490
E510
3910
2FD0
4D10
B7D2
1112
2112
C11E
0000
ENDCHAR
STARTCHAR 0x817B
ENCODING 33147
SWIDTH 1000 0
DWIDTH 16 0
BBX 16 16 0 -2
BITMAP
0420
7FA0
0420
3FA0
0020
7FE0
40A0
BF20
0020
3F20
2120
3F22
2122
1222
0F9E
7800
ENDCHAR
STARTCHAR 0x817C
ENCODING 33148
SWIDTH 1000 0
DWIDTH 16 0
BBX 16 16 0 -2
BITMAP
0100
0100
0100
0100
0100
0100
0100
0100
0100
0100
0100
0100
0100
0500
0200
0000
ENDCHAR
STARTCHAR 0x817D
ENCODING 33149
SWIDTH 1000 0
DWIDTH 16 0
BBX 16 16 0 -2
BITMAP
0400
0400
0800
0FFE
1084
2088
4080
0080
0080
0080
0080
0080
0480
0280
0100
0000
ENDCHAR
STARTCHAR 0x817E
ENCODING 33150
SWIDTH 1000 0
DWIDTH 16 0
BBX 16 16 0 -2
BITMAP
0100
0100
FFFE
1120
0930
0940
7FF8
0108
FFFE
0108
7FF8
0100
0100
0900
0500
0200
ENDCHAR
STARTCHAR 0x8180
ENCODING 33152
SWIDTH 1000 0
DWIDTH 16 0
BBX 16 16 0 -2
BITMAP
0010
3FF8
0200
020C
7FFE
0400
0400
0810
1FF8
0810
0010
0010
0010
0120
00A0
0040
ENDCHAR
STARTCHAR 0x8181
ENCODING 33153
SWIDTH 1000 0
DWIDTH 16 0
BBX 16 16 0 -2
BITMAP
0010
1FF8
0000
0000
0004
FFFE
0000
0010
3FF8
0000
0000
0000
0004
FFFE
0000
0000
ENDCHAR
STARTCHAR 0x8182
ENCODING 33154
SWIDTH 1000 0
DWIDTH 16 0
BBX 16 16 0 -2
BITMAP
0100
0100
2108
2108
2108
3FF8
2008
0010
3FF8
0000
0000
0000
0004
FFFE
0000
0000
ENDCHAR
STARTCHAR 0x8183
ENCODING 33155
SWIDTH 1000 0
DWIDTH 16 0
BBX 16 16 0 -2
BITMAP
0000
7FFE
0400
0410
07F8
0410
0A10
0990
0890
0810
1210
11A0
1120
0020
FFFE
0000
ENDCHAR
STARTCHAR 0x8184
ENCODING 33156
SWIDTH 1000 0
DWIDTH 16 0
BBX 16 16 0 -2
BITMAP
0000
7FFE
0240
0240
2248
3FFC
2248
2248
2248
3FF8
2248
0240
0240
0240
FFFE
0000
ENDCHAR
STARTCHAR 0x8185
ENCODING 33157
SWIDTH 1000 0
DWIDTH 16 0
BBX 16 16 0 -2
BITMAP
0200
0240
0420
0FF0
0020
1000
1428
2244
7F7E
0244
3FF8
0000
0000
FFFE
0000
0000
ENDCHAR
STARTCHAR 0x8186
ENCODING 33158
SWIDTH 1000 0
DWIDTH 16 0
BBX 16 16 0 -2
BITMAP
0008
7FFC
0440
0448
3CFC
2448
2008
2008
2448
3E78
0440
0440
0444
FFFE
0000
0000
ENDCHAR
STARTCHAR 0x8187
ENCODING 33159
SWIDTH 1000 0
DWIDTH 16 0
BBX 16 16 0 -2
BITMAP
0200
0100
0180
0100
FFFE
0820
0820
0820
0820
0820
0820
1020
1020
2020
4020
0000
ENDCHAR
STARTCHAR 0x8188
ENCODING 33160
SWIDTH 1000 0
DWIDTH 16 0
BBX 16 16 0 -2
BITMAP
0100
0084
7FFE
1240
1A50
124C
2448
4840
1FF0
0010
0010
0010
0008
0008
0006
0000
ENDCHAR
STARTCHAR 0x8189
ENCODING 33161
SWIDTH 1000 0
DWIDTH 16 0
BBX 16 16 0 -2
BITMAP
0200
0104
FFFE
0000
1FF0
1010
1FF0
0000
3FF8
2008
3FF8
2008
2008
3FF8
2008
0000
ENDCHAR
STARTCHAR 0x818A
ENCODING 33162
SWIDTH 1000 0
DWIDTH 16 0
BBX 16 16 0 -2
BITMAP
0100
0080
FFFE
0000
1FF8
1008
1FF8
1008
1FF8
1088
08A0
1C90
308C
C484
0280
0100
ENDCHAR
STARTCHAR 0x818B
ENCODING 33163
SWIDTH 1000 0
DWIDTH 16 0
BBX 16 16 0 -2
BITMAP
0200
0100
FFFE
0800
0800
13F8
1208
33F8
3208
5208
93F8
1208
1000
17FC
1000
0000
ENDCHAR
STARTCHAR 0x818C
ENCODING 33164
SWIDTH 1000 0
DWIDTH 16 0
BBX 16 16 0 -2
BITMAP
0100
7FFE
0810
0FF0
0000
7FFE
4104
9FE8
0100
3FF0
0200
3FE0
0220
0422
0822
301E
ENDCHAR
STARTCHAR 0x818D
ENCODING 33165
SWIDTH 1000 0
DWIDTH 16 0
BBX 16 16 0 -2
BITMAP
0100
7FFE
0000
3FFC
2424
27E4
2004
3FFC
0000
1FF8
1008
1FF8
1008
1FF8
0000
FFFE
ENDCHAR
STARTCHAR 0x818E
ENCODING 33166
SWIDTH 1000 0
DWIDTH 16 0
BBX 16 16 0 -2
BITMAP
0100
7FFC
0810
0420
3FFE
2240
3FF8
2248
3FFE
2248
3FF8
2660
4A50
524E
A244
0240
ENDCHAR
STARTCHAR 0x818F
ENCODING 33167
SWIDTH 1000 0
DWIDTH 16 0
BBX 16 16 0 -2
BITMAP
2108
108C
FE50
01FC
7D24
45FC
7D24
0124
FDFC
0820
13FE
3C20
D020
1020
5020
2020
ENDCHAR
STARTCHAR 0x8190
ENCODING 33168
SWIDTH 1000 0
DWIDTH 16 0
BBX 16 16 0 -2
BITMAP
0100
FFFE
1000
6FEC
4824
6BAC
4824
6BAC
4AA4
FFFE
8812
0FF0
0810
0FF0
0810
FFFE
ENDCHAR
STARTCHAR 0x8191
ENCODING 33169
SWIDTH 1000 0
DWIDTH 16 0
BBX 16 16 0 -2
BITMAP
0100
0100
0100
0100
0280
0240
0440
0420
0810
1018
200E
C004
0000
7FFC
0000
0000
ENDCHAR
STARTCHAR 0x8192
ENCODING 33170
SWIDTH 1000 0
DWIDTH 16 0
BBX 16 16 0 -2
BITMAP
0100
0100
0100
0280
0440
0820
1018
200E
C404
0300
0180
00C0
0080
0000
0000
0000
ENDCHAR
STARTCHAR 0x8193
ENCODING 33171
SWIDTH 1000 0
DWIDTH 16 0
BBX 16 16 0 -2
BITMAP
0080
0080
2080
2080
2080
2140
2140
2220
2220
2410
281C
3008
2000
7FFC
2000
0000
ENDCHAR
STARTCHAR 0x8194
ENCODING 33172
SWIDTH 1000 0
DWIDTH 16 0
BBX 16 16 0 -2
BITMAP
1000
1820
1120
2120
2120
6120
6110
A110
2110
2210
2208
2208
240C
2406
2804
0000
ENDCHAR
STARTCHAR 0x8195
ENCODING 33173
SWIDTH 1000 0
DWIDTH 16 0
BBX 16 16 0 -2
BITMAP
0100
0100
0100
0280
0460
0830
111C
2108
0100
0100
0280
0460
0818
100E
6004
0000
ENDCHAR
STARTCHAR 0x8196
ENCODING 33174
SWIDTH 1000 0
DWIDTH 16 0
BBX 16 16 0 -2
BITMAP
0840
0C60
0840
1040
1840
3040
3080
5080
1080
1100
1108
1204
127E
17C6
1204
1000
ENDCHAR
STARTCHAR 0x8197
ENCODING 33175
SWIDTH 1000 0
DWIDTH 16 0
BBX 16 16 0 -2
BITMAP
0100
0100
0280
0440
0820
111C
6108
0100
0100
7FFC
0100
0100
0100
0100
0100
0100
ENDCHAR
STARTCHAR 0x8198
ENCODING 33176
SWIDTH 1000 0
DWIDTH 16 0
BBX 16 16 0 -2
BITMAP
0100
0180
0100
0380
0240
0420
0918
308E
C0C4
0040
0200
0180
00C0
0080
0000
0000
ENDCHAR
STARTCHAR 0x8199
ENCODING 33177
SWIDTH 1000 0
DWIDTH 16 0
BBX 16 16 0 -2
BITMAP
0100
0100
0180
0240
0430
0918
310E
C104
2108
2108
2108
2108
2108
3FF8
2008
0000
ENDCHAR
STARTCHAR 0x819A
ENCODING 33178
SWIDTH 1000 0
DWIDTH 16 0
BBX 16 16 0 -2
BITMAP
0800
0C1C
0BE0
1040
1040
3040
3044
507E
97C0
1040
1040
1040
1042
1042
107E
0000
ENDCHAR
STARTCHAR 0x819B
ENCODING 33179
SWIDTH 1000 0
DWIDTH 16 0
BBX 16 16 0 -2
BITMAP
0800
0C00
0808
17FC
1040
3040
3040
5040
9040
1040
1040
1040
1040
1FFE
1000
0000
ENDCHAR
STARTCHAR 0x819C
ENCODING 33180
SWIDTH 1000 0
DWIDTH 16 0
BBX 16 16 0 -2
BITMAP
0808
0FFC
1840
1040
3040
2044
6FFE
A040
2040
2040
2040
2040
2040
2040
2040
0000
ENDCHAR
STARTCHAR 0x819D
ENCODING 33181
SWIDTH 1000 0
DWIDTH 16 0
BBX 16 16 0 -2
BITMAP
0880
0CC0
0884
11FE
1904
3204
3504
58C4
9064
1044
1004
1004
1004
1044
1028
0010
ENDCHAR
STARTCHAR 0x819E
ENCODING 33182
SWIDTH 1000 0
DWIDTH 16 0
BBX 16 16 0 -2
BITMAP
0840
0C40
0840
1040
1240
3350
5248
924C
1446
1446
1844
1040
1240
1140
1080
0000
ENDCHAR
STARTCHAR 0x819F
ENCODING 33183
SWIDTH 1000 0
DWIDTH 16 0
BBX 16 16 0 -2
BITMAP
0100
0100
0100
01F8
0100
0100
0104
7FFE
0100
0100
0280
0240
0420
0818
300E
C004
ENDCHAR
STARTCHAR 0x81A0
ENCODING 33184
SWIDTH 1000 0
DWIDTH 16 0
BBX 16 16 0 -2
BITMAP
0840
0C40
0840
1040
1840
3040
307C
5040
9040
1040
1040
1040
1044
17FE
1000
0000
ENDCHAR
STARTCHAR 0x81A1
ENCODING 33185
SWIDTH 1000 0
DWIDTH 16 0
BBX 16 16 0 -2
BITMAP
0800
0DF8
1888
1088
3488
3488
5288
9288
1188
10C8
1128
1118
120C
1472
1820
0000
ENDCHAR
STARTCHAR 0x81A2
ENCODING 33186
SWIDTH 1000 0
DWIDTH 16 0
BBX 16 16 0 -2
BITMAP
0800
0C3C
0BC0
0A00
1200
13FC
3284
5284
9288
1248
1250
1220
1450
158E
1604
1800
ENDCHAR
STARTCHAR 0x81A3
ENCODING 33187
SWIDTH 1000 0
DWIDTH 16 0
BBX 16 16 0 -2
BITMAP
0820
0C20
0820
1120
11A8
3124
3222
5222
9428
102C
1008
1010
1020
10C0
1700
0000
ENDCHAR
STARTCHAR 0x81A4
ENCODING 33188
SWIDTH 1000 0
DWIDTH 16 0
BBX 16 16 0 -2
BITMAP
0880
0C80
0940
1120
1210
2288
6466
A840
2000
27F8
2010
2010
2020
2020
2040
2040
ENDCHAR
STARTCHAR 0x81A5
ENCODING 33189
SWIDTH 1000 0
DWIDTH 16 0
BBX 16 16 0 -2
BITMAP
0800
0DF8
0908
1108
19F8
3108
3108
5108
91F8
1108
1108
1208
1208
1238
1410
0000
ENDCHAR
STARTCHAR 0x81A6
ENCODING 33190
SWIDTH 1000 0
DWIDTH 16 0
BBX 16 16 0 -2
BITMAP
0800
0878
1780
1080
2080
2080
6FFC
A080
2080
2080
2140
2140
2220
2210
240E
2804
ENDCHAR
STARTCHAR 0x81A7
ENCODING 33191
SWIDTH 1000 0
DWIDTH 16 0
BBX 16 16 0 -2
BITMAP
0840
0C40
0844
17FE
1040
3048
33FC
5040
9040
1044
17FE
1040
1040
1040
1040
1040
ENDCHAR
STARTCHAR 0x81A8
ENCODING 33192
SWIDTH 1000 0
DWIDTH 16 0
BBX 16 16 0 -2
BITMAP
0100
0100
0280
0440
0830
1018
3FFE
D004
1000
1020
1FF0
1000
1000
1008
1FFC
0000
ENDCHAR
STARTCHAR 0x81A9
ENCODING 33193
SWIDTH 1000 0
DWIDTH 16 0
BBX 16 16 0 -2
BITMAP
1000
1804
17FE
1040
2040
3040
5048
57FC
9040
1040
1040
1040
1044
1FFE
1000
0000
ENDCHAR
STARTCHAR 0x81AA
ENCODING 33194
SWIDTH 1000 0
DWIDTH 16 0
BBX 16 16 0 -2
BITMAP
1000
1FFE
1080
1080
2100
21F8
6108
A108
2108
23F8
2110
2010
2014
27FE
2000
0000
ENDCHAR
STARTCHAR 0x81AB
ENCODING 33195
SWIDTH 1000 0
DWIDTH 16 0
BBX 16 16 0 -2
BITMAP
0800
0D20
19A0
1110
3110
3208
520E
5484
98C0
1080
1100
1110
1208
17FC
1208
1000
ENDCHAR
STARTCHAR 0x81AC
ENCODING 33196
SWIDTH 1000 0
DWIDTH 16 0
BBX 16 16 0 -2
BITMAP
0840
0C40
1848
17FC
3040
33F8
5248
9248
1248
1248
1248
1278
1250
1040
1040
1040
ENDCHAR
STARTCHAR 0x81AD
ENCODING 33197
SWIDTH 1000 0
DWIDTH 16 0
BBX 16 16 0 -2
BITMAP
0808
0DFC
1808
1090
3060
3024
53FE
9024
1028
1020
1020
1020
1020
1020
10A0
1040
ENDCHAR
STARTCHAR 0x81AE
ENCODING 33198
SWIDTH 1000 0
DWIDTH 16 0
BBX 16 16 0 -2
BITMAP
0800
0DFC
1844
1044
3244
33FC
5240
9444
17FE
1044
1044
1044
1054
1048
1040
1040
ENDCHAR
STARTCHAR 0x81AF
ENCODING 33199
SWIDTH 1000 0
DWIDTH 16 0
BBX 16 16 0 -2
BITMAP
0840
0C40
1848
17FC
3040
3248
5248
9248
1248
13F8
1040
1042
1042
1042
103C
1000
ENDCHAR
STARTCHAR 0x81B0
ENCODING 33200
SWIDTH 1000 0
DWIDTH 16 0
BBX 16 16 0 -2
BITMAP
1100
1980
1104
11FE
3254
3254
5494
5894
9124
1224
1444
1044
1084
1104
1228
1010
ENDCHAR
STARTCHAR 0x81B1
ENCODING 33201
SWIDTH 1000 0
DWIDTH 16 0
BBX 16 16 0 -2
BITMAP
0800
0DF0
0910
1110
1110
321E
5400
93F8
1108
1108
1090
1060
1060
1090
110E
1604
ENDCHAR
STARTCHAR 0x81B2
ENCODING 33202
SWIDTH 1000 0
DWIDTH 16 0
BBX 16 16 0 -2
BITMAP
1000
1840
1030
3010
2100
6180
6108
A504
2506
2502
2508
2908
2108
20F8
2000
0000
ENDCHAR
STARTCHAR 0x81B3
ENCODING 33203
SWIDTH 1000 0
DWIDTH 16 0
BBX 16 16 0 -2
BITMAP
1010
1BF8
1110
3110
2120
6128
617C
A288
2288
2250
2250
2420
2450
298E
2604
0000
ENDCHAR
STARTCHAR 0x81B4
ENCODING 33204
SWIDTH 1000 0
DWIDTH 16 0
BBX 16 16 0 -2
BITMAP
1004
1BFE
1200
1204
22FE
2284
6284
6284
A284
2294
2288
2282
2482
2482
287E
2000
ENDCHAR
STARTCHAR 0x81B5
ENCODING 33205
SWIDTH 1000 0
DWIDTH 16 0
BBX 16 16 0 -2
BITMAP
1008
183C
13C0
1200
3200
2204
63FE
6210
A210
2210
2210
2210
2410
2410
2810
0000
ENDCHAR
STARTCHAR 0x81B6
ENCODING 33206
SWIDTH 1000 0
DWIDTH 16 0
BBX 16 16 0 -2
BITMAP
0800
0FFE
1020
1020
2040
3040
50E0
91D8
114C
1246
1444
1840
1040
1040
1040
0000
ENDCHAR
STARTCHAR 0x81B7
ENCODING 33207
SWIDTH 1000 0
DWIDTH 16 0
BBX 16 16 0 -2
BITMAP
1000
1BFC
1404
3408
3000
51F0
5110
9110
1110
1110
1110
1110
1212
1212
140E
0000
ENDCHAR
STARTCHAR 0x81B8
ENCODING 33208
SWIDTH 1000 0
DWIDTH 16 0
BBX 16 16 0 -2
BITMAP
0840
0C40
1848
17FC
3040
3040
5044
97FE
1040
1040
10A0
1090
1118
110C
1206
1404
ENDCHAR
STARTCHAR 0x81B9
ENCODING 33209
SWIDTH 1000 0
DWIDTH 16 0
BBX 16 16 0 -2
BITMAP
0880
0C80
1880
17FE
3080
2080
60F8
A108
2108
2190
2250
2220
2450
2888
3106
2204
ENDCHAR
STARTCHAR 0x81BA
ENCODING 33210
SWIDTH 1000 0
DWIDTH 16 0
BBX 16 16 0 -2
BITMAP
0880
0C90
1BF8
1090
3090
3112
5112
925E
1040
17FC
1040
1040
1040
1040
1040
0000
ENDCHAR
STARTCHAR 0x81BB
ENCODING 33211
SWIDTH 1000 0
DWIDTH 16 0
BBX 16 16 0 -2
BITMAP
0800
0DFC
1800
1000
3000
3000
57FE
9040
1040
1080
1090
1108
127C
17C4
1000
0000
ENDCHAR
STARTCHAR 0x81BC
ENCODING 33212
SWIDTH 1000 0
DWIDTH 16 0
BBX 16 16 0 -2
BITMAP
0840
0C40
1BFC
1080
3140
2140
6248
A7FC
2240
2044
2FFE
2040
2040
2040
2040
0000
ENDCHAR
STARTCHAR 0x81BD
ENCODING 33213
SWIDTH 1000 0
DWIDTH 16 0
BBX 16 16 0 -2
BITMAP
0800
0FF8
1A08
1248
3248
3248
5248
9248
1248
10A0
10A0
1124
1124
1224
141C
0000
ENDCHAR
STARTCHAR 0x81BE
ENCODING 33214
SWIDTH 1000 0
DWIDTH 16 0
BBX 16 16 0 -2
BITMAP
0880
0CC0
0880
11FC
1104
3284
5444
9064
1044
1034
13C4
1104
1004
1044
1028
1010
ENDCHAR
STARTCHAR 0x81BF
ENCODING 33215
SWIDTH 1000 0
DWIDTH 16 0
BBX 16 16 0 -2
BITMAP
0880
0C60
1840
17FE
2108
6108
A108
2090
2090
2090
2060
2060
2098
230E
2C04
2000
ENDCHAR
STARTCHAR 0x81C0
ENCODING 33216
SWIDTH 1000 0
DWIDTH 16 0
BBX 16 16 0 -2
BITMAP
0800
0DFC
0904
1104
1904
3104
51FC
9140
1140
1120
1120
1210
1218
140E
1804
0000
ENDCHAR
STARTCHAR 0x81C1
ENCODING 33217
SWIDTH 1000 0
DWIDTH 16 0
BBX 16 16 0 -2
BITMAP
0880
0C60
0840
17FE
1040
3088
510C
93F8
1110
1020
1040
1088
1104
13FE
1104
0000
ENDCHAR
STARTCHAR 0x81C2
ENCODING 33218
SWIDTH 1000 0
DWIDTH 16 0
BBX 16 16 0 -2
BITMAP
1200
1B00
123C
2224
2FA4
62A4
A4A4
24A8
28A8
2510
2310
2310
22A8
2444
2882
0000
ENDCHAR
STARTCHAR 0x81C3
ENCODING 33219
SWIDTH 1000 0
DWIDTH 16 0
BBX 16 16 0 -2
BITMAP
0840
0C40
1840
10A0
2118
224E
6444
A840
2240
2350
2648
2444
2846
3144
2080
0000
ENDCHAR
STARTCHAR 0x81C4
ENCODING 33220
SWIDTH 1000 0
DWIDTH 16 0
BBX 16 16 0 -2
BITMAP
1000
1A48
1248
1248
2248
2FFE
6248
A248
2248
2248
2278
2248
2200
2204
23FE
0000
ENDCHAR
STARTCHAR 0x81C5
ENCODING 33221
SWIDTH 1000 0
DWIDTH 16 0
BBX 16 16 0 -2
BITMAP
0800
0800
17FE
1492
2492
7492
A492
2492
2512
2512
260E
2402
27FE
2402
2402
0000
ENDCHAR
STARTCHAR 0x81C6
ENCODING 33222
SWIDTH 1000 0
DWIDTH 16 0
BBX 16 16 0 -2
BITMAP
0820
0C20
0820
1020
1BFE
3222
5222
9222
13FE
1222
1222
1222
1222
13FE
1202
0000
ENDCHAR
STARTCHAR 0x81C7
ENCODING 33223
SWIDTH 1000 0
DWIDTH 16 0
BBX 16 16 0 -2
BITMAP
0800
0FF8
1A08
1208
2208
33F8
5208
5208
9208
13F8
1208
1208
1208
1FFE
1000
0000
ENDCHAR
STARTCHAR 0x81C8
ENCODING 33224
SWIDTH 1000 0
DWIDTH 16 0
BBX 16 16 0 -2
BITMAP
0800
0FFC
1040
1448
224C
7348
A250
2044
2FFE
2040
2040
2040
2040
2040
2040
0000
ENDCHAR
STARTCHAR 0x81C9
ENCODING 33225
SWIDTH 1000 0
DWIDTH 16 0
BBX 16 16 0 -2
BITMAP
1000
1804
17FE
2040
3040
6080
A0E0
2150
2258
244C
2848
2040
2040
2044
2FFE
2000
ENDCHAR
STARTCHAR 0x81CA
ENCODING 33226
SWIDTH 1000 0
DWIDTH 16 0
BBX 16 16 0 -2
BITMAP
0800
0FFC
1A04
1204
2204
3204
6204
A3FC
2000
2100
2190
2308
2204
2406
2802
2000
ENDCHAR
STARTCHAR 0x81CB
ENCODING 33227
SWIDTH 1000 0
DWIDTH 16 0
BBX 16 16 0 -2
BITMAP
0800
0FFC
1A04
1204
2204
63FC
A200
2200
2200
23FC
2204
2204
2204
2204
23FC
2204
ENDCHAR
STARTCHAR 0x81CC
ENCODING 33228
SWIDTH 1000 0
DWIDTH 16 0
BBX 16 16 0 -2
BITMAP
0840
0C60
18C0
1088
2104
327E
57C4
9000
13FC
1204
1204
1204
1204
13FC
1204
0000
ENDCHAR
STARTCHAR 0x81CD
ENCODING 33229
SWIDTH 1000 0
DWIDTH 16 0
BBX 16 16 0 -2
BITMAP
0800
0C00
1BFC
1040
2040
7240
A248
227C
2240
2240
2240
2240
2240
2244
2FFE
0000
ENDCHAR
STARTCHAR 0x81CE
ENCODING 33230
SWIDTH 1000 0
DWIDTH 16 0
BBX 16 16 0 -2
BITMAP
1208
1A08
1208
2208
2FFE
7208
A208
2208
23F8
2208
2208
2208
2208
23F8
2208
2208
ENDCHAR
STARTCHAR 0x81CF
ENCODING 33231
SWIDTH 1000 0
DWIDTH 16 0
BBX 16 16 0 -2
BITMAP
1040
1840
1040
27FC
2040
7040
AFFE
20E0
20E0
2150
2148
224C
2446
2844
2040
2040
ENDCHAR
STARTCHAR 0x81D0
ENCODING 33232
SWIDTH 1000 0
DWIDTH 16 0
BBX 16 16 0 -2
BITMAP
0880
0C40
1BFE
1404
3408
2000
6000
A7FC
2040
2040
2040
2040
2040
2040
2140
2080
ENDCHAR
STARTCHAR 0x81D1
ENCODING 33233
SWIDTH 1000 0
DWIDTH 16 0
BBX 16 16 0 -2
BITMAP
1040
1840
17FE
3080
30A0
5120
93FC
1624
1A24
1224
1224
1234
1228
1020
1020
0000
ENDCHAR
STARTCHAR 0x81D2
ENCODING 33234
SWIDTH 1000 0
DWIDTH 16 0
BBX 16 16 0 -2
BITMAP
0840
0C40
0848
17FC
1040
2040
6044
AFFE
2080
2080
2120
2210
2408
2FFC
2008
0000
ENDCHAR
STARTCHAR 0x81D3
ENCODING 33235
SWIDTH 1000 0
DWIDTH 16 0
BBX 16 16 0 -2
BITMAP
0820
0C20
1824
13FE
2224
6228
A220
23FC
2308
2288
2490
2460
2860
2998
3606
0000
ENDCHAR
STARTCHAR 0x81D4
ENCODING 33236
SWIDTH 1000 0
DWIDTH 16 0
BBX 16 16 0 -2
BITMAP
0800
0DFC
1884
1084
2084
3104
513C
9208
15FC
1104
1104
1104
1104
11FC
1104
0000
ENDCHAR
STARTCHAR 0x81D5
ENCODING 33237
SWIDTH 1000 0
DWIDTH 16 0
BBX 16 16 0 -2
BITMAP
1110
1990
1110
2110
2112
6516
A5D8
2510
2510
2510
2510
25D0
2712
3C12
200E
0000
ENDCHAR
STARTCHAR 0x81D6
ENCODING 33238
SWIDTH 1000 0
DWIDTH 16 0
BBX 16 16 0 -2
BITMAP
1040
1840
1040
27FC
2444
7444
A444
2444
2FFE
2040
20A0
20A0
2110
2218
240E
2804
ENDCHAR
STARTCHAR 0x81D7
ENCODING 33239
SWIDTH 1000 0
DWIDTH 16 0
BBX 16 16 0 -2
BITMAP
0840
0C40
1840
107E
3840
3040
5040
93FC
1204
1204
1204
1204
1204
13FC
1204
0000
ENDCHAR
STARTCHAR 0x81D8
ENCODING 33240
SWIDTH 1000 0
DWIDTH 16 0
BBX 16 16 0 -2
BITMAP
1000
1890
104C
2048
2108
7110
A510
2528
2524
2542
2942
2188
2108
230C
2CF8
0000
ENDCHAR
STARTCHAR 0x81D9
ENCODING 33241
SWIDTH 1000 0
DWIDTH 16 0
BBX 16 16 0 -2
BITMAP
0840
0C40
18A0
10B0
3118
324E
5444
9840
1244
1244
1244
1244
1244
13FC
1204
0000
ENDCHAR
STARTCHAR 0x81DA
ENCODING 33242
SWIDTH 1000 0
DWIDTH 16 0
BBX 16 16 0 -2
BITMAP
1008
1FFC
1400
2400
3400
67F8
A408
2408
2408
27F8
2400
2400
2400
27FE
2400
0000
ENDCHAR
STARTCHAR 0x81DB
ENCODING 33243
SWIDTH 1000 0
DWIDTH 16 0
BBX 16 16 0 -2
BITMAP
0800
0FFC
1880
1080
3080
5100
91F8
1108
1308
1508
1908
1108
11F8
1108
1100
0000
ENDCHAR
STARTCHAR 0x81DC
ENCODING 33244
SWIDTH 1000 0
DWIDTH 16 0
BBX 16 16 0 -2
BITMAP
0900
0D80
1900
13FC
3204
6404
ABE4
2224
2224
23E4
2214
2208
2202
2202
21FE
0000
ENDCHAR
STARTCHAR 0x81DD
ENCODING 33245
SWIDTH 1000 0
DWIDTH 16 0
BBX 16 16 0 -2
BITMAP
1000
1FFE
1402
2402
34F2
6492
A492
2492
2492
24F2
2492
2402
27FE
2402
2402
0000
ENDCHAR
STARTCHAR 0x81DE
ENCODING 33246
SWIDTH 1000 0
DWIDTH 16 0
BBX 16 16 0 -2
BITMAP
0900
0DF8
1908
1310
34A0
6840
A0B0
230E
2C04
23F8
2208
2208
2208
23F8
2208
0000
ENDCHAR
STARTCHAR 0x81DF
ENCODING 33247
SWIDTH 1000 0
DWIDTH 16 0
BBX 16 16 0 -2
BITMAP
1100
1900
11F8
2110
2290
6460
A998
2646
2BF8
2240
2240
27FC
2040
2040
2040
0000
ENDCHAR
STARTCHAR 0x81E0
ENCODING 33248
SWIDTH 1000 0
DWIDTH 16 0
BBX 16 16 0 -2
BITMAP
1040
1840
10A0
20B0
3118
620E
A7F4
2800
2000
23F8
2208
2208
2208
23F8
2208
0000
ENDCHAR
STARTCHAR 0x81E1
ENCODING 33249
SWIDTH 1000 0
DWIDTH 16 0
BBX 16 16 0 -2
BITMAP
0100
0100
0280
0440
0830
1FEE
6004
9FF8
0100
0100
11F8
1100
1100
1100
7FFE
0000
ENDCHAR
STARTCHAR 0x81E2
ENCODING 33250
SWIDTH 1000 0
DWIDTH 16 0
BBX 16 16 0 -2
BITMAP
0880
0C80
18FC
1104
2108
6288
A450
2060
2180
23FC
2D04
3104
2104
21FC
2104
0000
ENDCHAR
STARTCHAR 0x81E3
ENCODING 33251
SWIDTH 1000 0
DWIDTH 16 0
BBX 16 16 0 -2
BITMAP
1208
1908
1110
2FFE
2110
6110
A114
2FFE
2110
2110
2110
2210
2210
2410
2810
0000
ENDCHAR
STARTCHAR 0x81E4
ENCODING 33252
SWIDTH 1000 0
DWIDTH 16 0
BBX 16 16 0 -2
BITMAP
1000
1BF8
1208
2208
23F8
7208
A208
23F8
2244
224C
2250
2220
2298
270E
2204
0000
ENDCHAR
STARTCHAR 0x81E5
ENCODING 33253
SWIDTH 1000 0
DWIDTH 16 0
BBX 16 16 0 -2
BITMAP
0800
0C3C
1BC0
1040
3040
37FE
5040
9040
1040
13FC
1204
1204
1204
13FC
1204
0000
ENDCHAR
STARTCHAR 0x81E6
ENCODING 33254
SWIDTH 1000 0
DWIDTH 16 0
BBX 16 16 0 -2
BITMAP
0900
0DFC
0908
1210
15FE
3A00
52F8
9288
1288
1288
12B8
1290
1482
1482
187E
0000
ENDCHAR
STARTCHAR 0x81E7
ENCODING 33255
SWIDTH 1000 0
DWIDTH 16 0
BBX 16 16 0 -2
BITMAP
0840
0C40
18A0
1110
2208
6406
ABF4
2040
2040
23F0
2040
2040
2040
27FC
2000
0000
ENDCHAR
STARTCHAR 0x81E8
ENCODING 33256
SWIDTH 1000 0
DWIDTH 16 0
BBX 16 16 0 -2
BITMAP
1040
1860
1040
2040
24FE
6284
A228
2020
2220
2220
2450
2C50
2488
210E
2604
0000
ENDCHAR
STARTCHAR 0x81E9
ENCODING 33257
SWIDTH 1000 0
DWIDTH 16 0
BBX 16 16 0 -2
BITMAP
1000
1804
17C4
2494
2494
6494
A494
3FF4
2494
2494
2494
2494
2884
2894
3088
0000
ENDCHAR
STARTCHAR 0x81EA
ENCODING 33258
SWIDTH 1000 0
DWIDTH 16 0
BBX 16 16 0 -2
BITMAP
1140
1940
1248
23FC
2440
7440
A044
2FFE
2120
2120
2120
2122
2222
2222
241E
0000
ENDCHAR
STARTCHAR 0x81EB
ENCODING 33259
SWIDTH 1000 0
DWIDTH 16 0
BBX 16 16 0 -2
BITMAP
1080
1840
17FC
2400
2400
65F8
A440
2440
2440
27FC
2440
2442
2842
2842
303E
2000
ENDCHAR
STARTCHAR 0x81EC
ENCODING 33260
SWIDTH 1000 0
DWIDTH 16 0
BBX 16 16 0 -2
BITMAP
1080
1860
1040
27FE
2080
7110
A278
27B0
2268
20CC
2118
2630
284C
2186
2604
0000
ENDCHAR
STARTCHAR 0x81ED
ENCODING 33261
SWIDTH 1000 0
DWIDTH 16 0
BBX 16 16 0 -2
BITMAP
0100
0100
7FFE
1110
1110
1110
2928
6744
8584
0340
0520
0918
310E
C104
0100
0000
ENDCHAR
STARTCHAR 0x81EE
ENCODING 33262
SWIDTH 1000 0
DWIDTH 16 0
BBX 16 16 0 -2
BITMAP
1040
1840
17FE
2040
27FC
6044
A7FC
2440
2440
27FE
2042
20EA
2094
2108
2204
2402
ENDCHAR
STARTCHAR 0x81EF
ENCODING 33263
SWIDTH 1000 0
DWIDTH 16 0
BBX 16 16 0 -2
BITMAP
0880
0C80
1890
1498
22A0
3080
6FFC
A220
2220
2220
2220
2224
2224
2424
241C
2800
ENDCHAR
STARTCHAR 0x81F0
ENCODING 33264
SWIDTH 1000 0
DWIDTH 16 0
BBX 16 16 0 -2
BITMAP
0100
0280
0440
0930
308E
DFF4
0020
0040
1FF0
0000
7FFE
0200
0420
0810
1FF8
0010
ENDCHAR
STARTCHAR 0x81F1
ENCODING 33265
SWIDTH 1000 0
DWIDTH 16 0
BBX 16 16 0 -2
BITMAP
1040
1848
144C
3248
2350
6260
AFFE
20C0
2160
2150
2258
224E
2444
2840
2040
0000
ENDCHAR
STARTCHAR 0x81F2
ENCODING 33266
SWIDTH 1000 0
DWIDTH 16 0
BBX 16 16 0 -2
BITMAP
1040
1860
1080
27FC
34A4
64A4
A4A4
24A4
24A4
24A4
24A4
24A4
24A4
3FFE
2000
0000
ENDCHAR
STARTCHAR 0x81F3
ENCODING 33267
SWIDTH 1000 0
DWIDTH 16 0
BBX 16 16 0 -2
BITMAP
1180
1884
17FE
2404
2888
7080
A104
2FFE
2110
2210
2110
20A0
2060
2198
2E08
0000
ENDCHAR
STARTCHAR 0x81F4
ENCODING 33268
SWIDTH 1000 0
DWIDTH 16 0
BBX 16 16 0 -2
BITMAP
1040
1840
17F8
3048
2FFE
6048
A7F8
2040
2FFC
2040
2040
2FFE
2040
2040
2040
0000
ENDCHAR
STARTCHAR 0x81F5
ENCODING 33269
SWIDTH 1000 0
DWIDTH 16 0
BBX 16 16 0 -2
BITMAP
1000
1FFE
1040
3040
2080
67FC
6524
A524
2524
2524
2524
2524
2524
2514
2408
0000
ENDCHAR
STARTCHAR 0x81F6
ENCODING 33270
SWIDTH 1000 0
DWIDTH 16 0
BBX 16 16 0 -2
BITMAP
0100
0100
0280
0460
0818
37EE
C000
1FF8
1248
1248
1FF8
1248
1248
1228
1010
0000
ENDCHAR
STARTCHAR 0x81F7
ENCODING 33271
SWIDTH 1000 0
DWIDTH 16 0
BBX 16 16 0 -2
BITMAP
1080
1844
13FE
2604
2408
6038
67C0
A080
209E
2FE0
2080
2082
2082
2082
207E
2000
ENDCHAR
STARTCHAR 0x81F8
ENCODING 33272
SWIDTH 1000 0
DWIDTH 16 0
BBX 16 16 0 -2
BITMAP
1020
1828
1024
2FFE
2020
7020
A020
27E0
2120
2110
2110
2112
21CA
270A
2004
2000
ENDCHAR
STARTCHAR 0x81F9
ENCODING 33273
SWIDTH 1000 0
DWIDTH 16 0
BBX 16 16 0 -2
BITMAP
0900
0D00
1BFC
1204
2404
77E4
AA24
2224
23E4
2224
2224
23E4
2204
2014
2008
0000
ENDCHAR
STARTCHAR 0x81FA
ENCODING 33274
SWIDTH 1000 0
DWIDTH 16 0
BBX 16 16 0 -2
BITMAP
0840
0C80
1BF8
1208
2288
7268
A248
2FFE
2208
2288
2268
2248
2408
2428
2810
0000
ENDCHAR
STARTCHAR 0x81FB
ENCODING 33275
SWIDTH 1000 0
DWIDTH 16 0
BBX 16 16 0 -2
BITMAP
0A00
0B00
1200
121E
2FD2
6292
A292
2492
2492
2492
2312
2192
22DE
2452
2800
0000
ENDCHAR
STARTCHAR 0x81FC
ENCODING 33276
SWIDTH 1000 0
DWIDTH 16 0
BBX 16 16 0 -2
BITMAP
1080
1880
1084
37FE
2100
62FC
A208
2610
2A10
32FE
2210
2210
2210
2210
2250
2220
ENDCHAR
STARTCHAR 0x81FD
ENCODING 33277
SWIDTH 1000 0
DWIDTH 16 0
BBX 16 16 0 -2
BITMAP
0800
0FFE
18A0
10A0
30A0
37FC
54A4
94A4
14A4
14A4
14A4
14A4
14A4
17FC
1404
0000
ENDCHAR
STARTCHAR 0x81FE
ENCODING 33278
SWIDTH 1000 0
DWIDTH 16 0
BBX 16 16 0 -2
BITMAP
1000
1FFE
1040
3040
27FC
6444
A444
27FC
2444
2444
2FFE
2404
2404
2414
2408
0000
ENDCHAR
STARTCHAR 0x8240
ENCODING 33344
SWIDTH 1000 0
DWIDTH 16 0
BBX 16 16 0 -2
BITMAP
0840
0C48
1BFE
1048
3050
27FE
6040
A084
21FE
2280
2480
29FC
2084
2004
2014
2008
ENDCHAR
STARTCHAR 0x8241
ENCODING 33345
SWIDTH 1000 0
DWIDTH 16 0
BBX 16 16 0 -2
BITMAP
1080
1860
1040
37FE
2200
6200
A3FC
2080
2080
2FFE
2110
2190
2060
2098
230C
2C08
ENDCHAR
STARTCHAR 0x8242
ENCODING 33346
SWIDTH 1000 0
DWIDTH 16 0
BBX 16 16 0 -2
BITMAP
0800
0FFC
1A04
1204
23FC
6220
A230
2218
248E
2464
2820
2080
2060
2030
2010
0000
ENDCHAR
STARTCHAR 0x8243
ENCODING 33347
SWIDTH 1000 0
DWIDTH 16 0
BBX 16 16 0 -2
BITMAP
1000
1FF8
1088
3088
27FE
6088
A108
27F8
2100
23FC
2304
2504
2504
29FC
3104
0000
ENDCHAR
STARTCHAR 0x8244
ENCODING 33348
SWIDTH 1000 0
DWIDTH 16 0
BBX 16 16 0 -2
BITMAP
0800
0FF8
1A08
1208
3208
23F8
6000
A7FC
2040
2040
27FC
2040
2040
2040
2FFE
0000
ENDCHAR
STARTCHAR 0x8245
ENCODING 33349
SWIDTH 1000 0
DWIDTH 16 0
BBX 16 16 0 -2
BITMAP
1000
1FFC
1400
2400
25FC
6400
A7FE
24A0
24A8
24AC
2490
2498
28AE
28C4
3080
0000
ENDCHAR
STARTCHAR 0x8246
ENCODING 33350
SWIDTH 1000 0
DWIDTH 16 0
BBX 16 16 0 -2
BITMAP
0840
0C40
1A48
1248
2248
3554
64D2
A862
2040
27FC
2040
2040
2040
2FFE
2000
0000
ENDCHAR
STARTCHAR 0x8247
ENCODING 33351
SWIDTH 1000 0
DWIDTH 16 0
BBX 16 16 0 -2
BITMAP
0100
0280
0440
0830
37EE
C008
3F48
0948
0948
3F48
1148
1148
1788
F828
0010
0000
ENDCHAR
STARTCHAR 0x8248
ENCODING 33352
SWIDTH 1000 0
DWIDTH 16 0
BBX 16 16 0 -2
BITMAP
0800
0FFC
1A04
1204
3204
33FC
5040
9080
17FE
1402
1402
1402
1402
17FE
1402
0000
ENDCHAR
STARTCHAR 0x8249
ENCODING 33353
SWIDTH 1000 0
DWIDTH 16 0
BBX 16 16 0 -2
BITMAP
1000
1BFC
1204
1204
23FC
3200
53FE
5202
92F2
1292
12F2
1492
1402
180A
1004
0000
ENDCHAR
STARTCHAR 0x824A
ENCODING 33354
SWIDTH 1000 0
DWIDTH 16 0
BBX 16 16 0 -2
BITMAP
1000
1FFC
1000
3000
23F8
6208
6208
A208
23F8
2000
2210
2118
2190
2120
2FFE
0000
ENDCHAR
STARTCHAR 0x824B
ENCODING 33355
SWIDTH 1000 0
DWIDTH 16 0
BBX 16 16 0 -2
BITMAP
1000
1F0E
1170
2210
2210
7410
AFFE
2110
2110
2910
257C
2200
2200
2580
387C
0000
ENDCHAR
STARTCHAR 0x824C
ENCODING 33356
SWIDTH 1000 0
DWIDTH 16 0
BBX 16 16 0 -2
BITMAP
1040
1840
1444
2444
27FC
6040
A0A0
2118
264E
3824
27F8
2008
2010
2010
2020
0040
ENDCHAR
STARTCHAR 0x824D
ENCODING 33357
SWIDTH 1000 0
DWIDTH 16 0
BBX 16 16 0 -2
BITMAP
1010
1A18
1120
37F8
2408
6408
A408
27F8
2528
2120
2120
2222
2222
2422
281E
0000
ENDCHAR
STARTCHAR 0x824E
ENCODING 33358
SWIDTH 1000 0
DWIDTH 16 0
BBX 16 16 0 -2
BITMAP
1040
1840
17FC
2040
37FC
6804
A804
23F8
2010
2020
2FFE
2040
2040
2040
2140
2080
ENDCHAR
STARTCHAR 0x824F
ENCODING 33359
SWIDTH 1000 0
DWIDTH 16 0
BBX 16 16 0 -2
BITMAP
0800
0FF8
1A48
1248
33F8
3248
5248
93F8
1040
17FC
1044
1084
1084
1114
1208
0000
ENDCHAR
STARTCHAR 0x8250
ENCODING 33360
SWIDTH 1000 0
DWIDTH 16 0
BBX 16 16 0 -2
BITMAP
0840
0C48
1BFC
1048
2050
6FFE
A040
20F8
2110
2224
2DFE
2020
2020
20A0
2040
0000
ENDCHAR
STARTCHAR 0x8251
ENCODING 33361
SWIDTH 1000 0
DWIDTH 16 0
BBX 16 16 0 -2
BITMAP
103C
1FC0
1088
324C
2158
6090
A120
2100
2FFE
2110
2210
21E0
2070
218C
2E04
0000
ENDCHAR
STARTCHAR 0x8252
ENCODING 33362
SWIDTH 1000 0
DWIDTH 16 0
BBX 16 16 0 -2
BITMAP
1000
19F8
1108
3508
2508
65F8
A400
27FC
2044
2FFE
2040
20A0
2118
220E
2C04
0000
ENDCHAR
STARTCHAR 0x8253
ENCODING 33363
SWIDTH 1000 0
DWIDTH 16 0
BBX 16 16 0 -2
BITMAP
081C
0BF0
1840
10C8
311C
33F0
5060
9188
13FC
1044
1150
1148
124C
1548
1080
0000
ENDCHAR
STARTCHAR 0x8254
ENCODING 33364
SWIDTH 1000 0
DWIDTH 16 0
BBX 16 16 0 -2
BITMAP
0840
0C40
18A0
1110
320C
65F6
A842
2040
2FFC
2040
2250
2348
244C
2948
2080
0000
ENDCHAR
STARTCHAR 0x8255
ENCODING 33365
SWIDTH 1000 0
DWIDTH 16 0
BBX 16 16 0 -2
BITMAP
1000
1900
117E
2A10
3610
6A10
B110
237C
2310
2510
2910
3110
2110
2AFE
2400
0000
ENDCHAR
STARTCHAR 0x8256
ENCODING 33366
SWIDTH 1000 0
DWIDTH 16 0
BBX 16 16 0 -2
BITMAP
0840
0E40
1A48
13FC
2240
3440
6844
AFFE
2000
23F8
2208
2208
2208
23F8
2208
0000
ENDCHAR
STARTCHAR 0x8257
ENCODING 33367
SWIDTH 1000 0
DWIDTH 16 0
BBX 16 16 0 -2
BITMAP
1000
1BFC
1080
3080
27F8
6108
A108
2FFE
2000
23F8
2208
2208
2208
23F8
2208
0000
ENDCHAR
STARTCHAR 0x8258
ENCODING 33368
SWIDTH 1000 0
DWIDTH 16 0
BBX 16 16 0 -2
BITMAP
1000
1BF8
1208
2208
23F8
7000
A7FC
2444
2444
2444
27FC
2400
2402
2402
23FE
0000
ENDCHAR
STARTCHAR 0x8259
ENCODING 33369
SWIDTH 1000 0
DWIDTH 16 0
BBX 16 16 0 -2
BITMAP
1040
1850
1054
2FFE
2040
67FC
A444
27FC
2444
2444
27FC
2444
2444
2454
2448
0000
ENDCHAR
STARTCHAR 0x825A
ENCODING 33370
SWIDTH 1000 0
DWIDTH 16 0
BBX 16 16 0 -2
BITMAP
1100
1880
17F8
2408
2408
77F8
A408
2408
27F8
2440
2448
2458
2420
2518
260E
2404
ENDCHAR
STARTCHAR 0x825B
ENCODING 33371
SWIDTH 1000 0
DWIDTH 16 0
BBX 16 16 0 -2
BITMAP
1080
1844
17FE
3404
2808
67F8
A000
2000
2FFE
2120
2120
2220
2222
2422
281E
0000
ENDCHAR
STARTCHAR 0x825C
ENCODING 33372
SWIDTH 1000 0
DWIDTH 16 0
BBX 16 16 0 -2
BITMAP
1000
1800
17FC
2000
3248
6490
A920
2498
2248
27FC
2040
2040
2040
2040
2FFE
2000
ENDCHAR
STARTCHAR 0x825D
ENCODING 33373
SWIDTH 1000 0
DWIDTH 16 0
BBX 16 16 0 -2
BITMAP
1000
1BF8
1208
23F8
2208
63F8
A208
2208
23F8
2120
2120
2224
2224
2424
281C
0000
ENDCHAR
STARTCHAR 0x825E
ENCODING 33374
SWIDTH 1000 0
DWIDTH 16 0
BBX 16 16 0 -2
BITMAP
0880
0C60
0844
13FE
1204
3448
5040
97FE
10E0
1150
1158
124C
1446
1844
1040
0000
ENDCHAR
STARTCHAR 0x825F
ENCODING 33375
SWIDTH 1000 0
DWIDTH 16 0
BBX 16 16 0 -2
BITMAP
0800
0FFE
1840
1060
30D0
214C
6244
AC40
2040
27FC
2404
2404
2404
27FC
2404
0000
ENDCHAR
STARTCHAR 0x8260
ENCODING 33376
SWIDTH 1000 0
DWIDTH 16 0
BBX 16 16 0 -2
BITMAP
0808
0D0C
1090
1060
2190
7288
AFFE
2140
23FC
2644
2A44
3244
2254
2248
2040
2040
ENDCHAR
STARTCHAR 0x8261
ENCODING 33377
SWIDTH 1000 0
DWIDTH 16 0
BBX 16 16 0 -2
BITMAP
0900
0900
11FC
1208
2410
2BFC
6244
A244
23FC
22A4
20A0
2120
2122
2222
241E
2800
ENDCHAR
STARTCHAR 0x8262
ENCODING 33378
SWIDTH 1000 0
DWIDTH 16 0
BBX 16 16 0 -2
BITMAP
1040
1840
1040
37FE
2040
6248
A248
2254
2562
2942
20A0
20A0
2110
2208
2406
2804
ENDCHAR
STARTCHAR 0x8263
ENCODING 33379
SWIDTH 1000 0
DWIDTH 16 0
BBX 16 16 0 -2
BITMAP
0900
0D08
09FC
1108
1290
3460
50DE
9324
1CD0
1338
1068
118C
1618
1060
1180
1600
ENDCHAR
STARTCHAR 0x8264
ENCODING 33380
SWIDTH 1000 0
DWIDTH 16 0
BBX 16 16 0 -2
BITMAP
1210
1918
1120
37FC
2044
77FC
A440
2440
27FC
20C4
2144
2244
2454
2848
2040
2040
ENDCHAR
STARTCHAR 0x8265
ENCODING 33381
SWIDTH 1000 0
DWIDTH 16 0
BBX 16 16 0 -2
BITMAP
1040
1840
17FE
3040
23F8
6248
A3F8
2248
23F8
2248
2040
2FFE
2040
2040
2040
2040
ENDCHAR
STARTCHAR 0x8266
ENCODING 33382
SWIDTH 1000 0
DWIDTH 16 0
BBX 16 16 0 -2
BITMAP
0840
0C40
0840
17FC
1040
3040
5040
97FC
1080
1048
1564
1546
150A
1908
10F8
1000
ENDCHAR
STARTCHAR 0x8267
ENCODING 33383
SWIDTH 1000 0
DWIDTH 16 0
BBX 16 16 0 -2
BITMAP
0840
0840
17FC
1048
224C
6148
A150
27FE
2040
20E0
2150
2248
2446
2844
2040
0040
ENDCHAR
STARTCHAR 0x8268
ENCODING 33384
SWIDTH 1000 0
DWIDTH 16 0
BBX 16 16 0 -2
BITMAP
1000
18C8
1708
3208
2208
6FD0
A210
2710
26A0
2AA0
2A28
3244
225E
22F6
2244
0000
ENDCHAR
STARTCHAR 0x8269
ENCODING 33385
SWIDTH 1000 0
DWIDTH 16 0
BBX 16 16 0 -2
BITMAP
1000
18C0
171E
2112
3112
6FD2
A312
2312
2592
2552
2912
291E
3112
2112
2100
0000
ENDCHAR
STARTCHAR 0x826A
ENCODING 33386
SWIDTH 1000 0
DWIDTH 16 0
BBX 16 16 0 -2
BITMAP
1010
1A10
1110
3FD0
253C
6494
A8D4
2894
3514
2214
2324
24A4
2844
3094
2108
0000
ENDCHAR
STARTCHAR 0x826B
ENCODING 33387
SWIDTH 1000 0
DWIDTH 16 0
BBX 16 16 0 -2
BITMAP
10A0
1890
109C
27E0
2098
7062
A6B2
214E
2120
21F0
2E88
2090
2062
21B2
2E0E
0000
ENDCHAR
STARTCHAR 0x826C
ENCODING 33388
SWIDTH 1000 0
DWIDTH 16 0
BBX 16 16 0 -2
BITMAP
1040
1840
17FC
2040
27FC
6040
AFFE
20C0
2088
21CC
2350
2520
2918
214E
2184
2100
ENDCHAR
STARTCHAR 0x826D
ENCODING 33389
SWIDTH 1000 0
DWIDTH 16 0
BBX 16 16 0 -2
BITMAP
1200
1A00
127E
33A2
2222
6222
7FA4
A224
2A24
2F18
2A98
32D8
22AC
2A46
2484
0000
ENDCHAR
STARTCHAR 0x826E
ENCODING 33390
SWIDTH 1000 0
DWIDTH 16 0
BBX 16 16 0 -2
BITMAP
1000
1800
177C
2554
3554
6754
A554
257C
2744
2540
2540
2542
2942
2D42
323E
0000
ENDCHAR
STARTCHAR 0x826F
ENCODING 33391
SWIDTH 1000 0
DWIDTH 16 0
BBX 16 16 0 -2
BITMAP
1000
1FFE
10A0
30A0
20A0
77BC
A404
2404
2404
27BC
20A0
20A0
20A0
20A0
2FFE
0000
ENDCHAR
STARTCHAR 0x8270
ENCODING 33392
SWIDTH 1000 0
DWIDTH 16 0
BBX 16 16 0 -2
BITMAP
0900
0DF8
1B08
1310
34A0
6860
A198
260E
3BFC
2248
2248
23F8
2248
2248
23F8
2208
ENDCHAR
STARTCHAR 0x8271
ENCODING 33393
SWIDTH 1000 0
DWIDTH 16 0
BBX 16 16 0 -2
BITMAP
1080
1840
37FC
2110
6208
A7FC
2008
27F8
2408
27F8
2408
27F8
2408
2408
2428
2410
ENDCHAR
STARTCHAR 0x8272
ENCODING 33394
SWIDTH 1000 0
DWIDTH 16 0
BBX 16 16 0 -2
BITMAP
1020
18B0
1320
2420
243E
67A4
A550
2510
2510
2510
2928
2928
2924
3146
3184
2100
ENDCHAR
STARTCHAR 0x8273
ENCODING 33395
SWIDTH 1000 0
DWIDTH 16 0
BBX 16 16 0 -2
BITMAP
1040
1878
1040
27FE
7444
A478
25C4
247C
2400
24F0
2490
2490
2492
2912
360E
0000
ENDCHAR
STARTCHAR 0x8274
ENCODING 33396
SWIDTH 1000 0
DWIDTH 16 0
BBX 16 16 0 -2
BITMAP
1008
1BFC
1200
23F8
3200
63F8
A200
2204
2FFE
2288
2258
2220
2298
230E
2204
0000
ENDCHAR
STARTCHAR 0x8275
ENCODING 33397
SWIDTH 1000 0
DWIDTH 16 0
BBX 16 16 0 -2
BITMAP
1200
1B00
123C
27E4
2524
6924
7124
AFE4
2124
2124
22A4
22E4
24BC
2824
3020
0000
ENDCHAR
STARTCHAR 0x8276
ENCODING 33398
SWIDTH 1000 0
DWIDTH 16 0
BBX 16 16 0 -2
BITMAP
1108
198C
1210
37BC
2210
6210
A210
2210
2FBE
2210
2210
2210
2410
2410
2810
0000
ENDCHAR
STARTCHAR 0x8277
ENCODING 33399
SWIDTH 1000 0
DWIDTH 16 0
BBX 16 16 0 -2
BITMAP
1210
1A10
13D8
2456
3252
6290
A110
22C0
2430
380E
27F8
2408
2408
2408
27F8
2000
ENDCHAR
STARTCHAR 0x8278
ENCODING 33400
SWIDTH 1000 0
DWIDTH 16 0
BBX 16 16 0 -2
BITMAP
1108
1890
1060
2198
2288
4FFE
A100
23F8
2608
2BF8
3208
23F8
2208
2228
2210
0000
ENDCHAR
STARTCHAR 0x8279
ENCODING 33401
SWIDTH 1000 0
DWIDTH 16 0
BBX 16 16 0 -2
BITMAP
1080
1848
17FC
2210
3210
6210
A528
24C4
2880
2044
2FFE
2040
2040
2040
2040
0000
ENDCHAR
STARTCHAR 0x827A
ENCODING 33402
SWIDTH 1000 0
DWIDTH 16 0
BBX 16 16 0 -2
BITMAP
0800
0FFE
1840
1040
27FC
7444
A664
2554
2554
26EC
26E4
2444
2444
2454
2448
0000
ENDCHAR
STARTCHAR 0x827B
ENCODING 33403
SWIDTH 1000 0
DWIDTH 16 0
BBX 16 16 0 -2
BITMAP
1080
1844
17FE
2404
2A00
623C
A3A4
24A4
24A4
2AB4
2128
2120
2224
2424
381C
0000
ENDCHAR
STARTCHAR 0x827C
ENCODING 33404
SWIDTH 1000 0
DWIDTH 16 0
BBX 16 16 0 -2
BITMAP
1040
1840
1040
2FFC
3250
6250
A268
2564
28C4
30E0
2150
2258
244E
2844
2040
0000
ENDCHAR
STARTCHAR 0x827D
ENCODING 33405
SWIDTH 1000 0
DWIDTH 16 0
BBX 16 16 0 -2
BITMAP
0100
0280
0640
0930
300E
CFF4
0910
0890
0FF0
1000
1FF0
2810
2810
4FF0
8810
0000
ENDCHAR
STARTCHAR 0x827E
ENCODING 33406
SWIDTH 1000 0
DWIDTH 16 0
BBX 16 16 0 -2
BITMAP
1130
19A0
1120
2298
34CE
6924
A210
27F8
2010
2180
2548
2566
2552
2918
21F0
0000
ENDCHAR
STARTCHAR 0x8280
ENCODING 33408
SWIDTH 1000 0
DWIDTH 16 0
BBX 16 16 0 -2
BITMAP
1000
1FFC
1444
3444
27FC
7444
A444
25F4
2514
2514
25F4
2514
2404
27FC
2404
0000
ENDCHAR
STARTCHAR 0x8281
ENCODING 33409
SWIDTH 1000 0
DWIDTH 16 0
BBX 16 16 0 -2
BITMAP
1120
1920
1120
27F8
3528
6528
A7F8
2528
2528
2528
3FFE
2220
2310
2608
2808
0000
ENDCHAR
STARTCHAR 0x8282
ENCODING 33410
SWIDTH 1000 0
DWIDTH 16 0
BBX 16 16 0 -2
BITMAP
1080
18FC
1088
2188
2950
6A20
A8D8
2B06
2840
2948
294C
2250
2060
2090
210E
2604
ENDCHAR
STARTCHAR 0x8283
ENCODING 33411
SWIDTH 1000 0
DWIDTH 16 0
BBX 16 16 0 -2
BITMAP
1000
1FBC
14A4
27BC
34A4
67BC
A4A4
2404
2404
2404
2404
2404
2404
2414
2408
0000
ENDCHAR
STARTCHAR 0x8284
ENCODING 33412
SWIDTH 1000 0
DWIDTH 16 0
BBX 16 16 0 -2
BITMAP
1080
1880
1290
3298
24A0
6140
A220
2490
2888
2490
24A0
2940
2120
2218
240E
2804
ENDCHAR
STARTCHAR 0x8285
ENCODING 33413
SWIDTH 1000 0
DWIDTH 16 0
BBX 16 16 0 -2
BITMAP
1000
1BF8
1040
2FFE
2248
6248
AFFE
2248
2248
2248
2FFE
2040
2040
2040
2FFC
2000
ENDCHAR
STARTCHAR 0x8286
ENCODING 33414
SWIDTH 1000 0
DWIDTH 16 0
BBX 16 16 0 -2
BITMAP
1040
1840
13FC
2040
2040
67FE
A108
2090
27FC
2040
2040
2FFE
2040
2040
2040
2040
ENDCHAR
STARTCHAR 0x8287
ENCODING 33415
SWIDTH 1000 0
DWIDTH 16 0
BBX 16 16 0 -2
BITMAP
1000
1F9E
1492
2492
379E
6492
A492
2492
279E
2492
2492
2492
28A2
2AAA
3144
0000
ENDCHAR
STARTCHAR 0x8288
ENCODING 33416
SWIDTH 1000 0
DWIDTH 16 0
BBX 16 16 0 -2
BITMAP
1210
1A10
1210
2FFC
2210
63F0
A210
23F0
2210
2FFE
2000
2210
2208
240C
2808
0000
ENDCHAR
STARTCHAR 0x8289
ENCODING 33417
SWIDTH 1000 0
DWIDTH 16 0
BBX 16 16 0 -2
BITMAP
1020
1020
FF20
1020
7E20
4220
7E20
4220
7E20
1020
FF50
1048
108C
1086
1104
1200
ENDCHAR
STARTCHAR 0x828A
ENCODING 33418
SWIDTH 1000 0
DWIDTH 16 0
BBX 16 16 0 -2
BITMAP
1080
1840
17FC
2000
3000
63F8
A208
2208
23F8
2040
2250
2348
244C
2848
2140
2080
ENDCHAR
STARTCHAR 0x828B
ENCODING 33419
SWIDTH 1000 0
DWIDTH 16 0
BBX 16 16 0 -2
BITMAP
1240
1B30
1220
23FE
3620
6620
ABFC
2220
2220
23FC
2220
2220
2220
23FE
2200
2200
ENDCHAR
STARTCHAR 0x828C
ENCODING 33420
SWIDTH 1000 0
DWIDTH 16 0
BBX 16 16 0 -2
BITMAP
1080
1880
17FC
2080
27F8
7088
AFFE
2088
27F8
2080
2480
24F8
2480
2A80
29C0
303C
ENDCHAR
STARTCHAR 0x828D
ENCODING 33421
SWIDTH 1000 0
DWIDTH 16 0
BBX 16 16 0 -2
BITMAP
2840
3460
2440
2F7E
6488
A488
2748
2548
2548
2528
2910
2910
3528
3246
2084
0000
ENDCHAR
STARTCHAR 0x828E
ENCODING 33422
SWIDTH 1000 0
DWIDTH 16 0
BBX 16 16 0 -2
BITMAP
0820
0C20
1BFE
1020
21F8
6508
A5F8
2508
2508
25F8
2508
2508
25F8
2400
27FE
2000
ENDCHAR
STARTCHAR 0x828F
ENCODING 33423
SWIDTH 1000 0
DWIDTH 16 0
BBX 16 16 0 -2
BITMAP
1080
1844
17FE
2404
2808
63F8
A000
2000
2FFE
2040
2250
234C
2646
2444
2940
2080
ENDCHAR
STARTCHAR 0x8290
ENCODING 33424
SWIDTH 1000 0
DWIDTH 16 0
BBX 16 16 0 -2
BITMAP
0880
0C80
1940
1230
240E
6BF4
A000
27F8
2528
2528
27F8
2528
2528
2508
2418
0000
ENDCHAR
STARTCHAR 0x8291
ENCODING 33425
SWIDTH 1000 0
DWIDTH 16 0
BBX 16 16 0 -2
BITMAP
1200
1A28
1228
2228
2FC4
6644
A686
2B24
2AA0
32A0
3248
2244
22FE
2244
2200
0000
ENDCHAR
STARTCHAR 0x8292
ENCODING 33426
SWIDTH 1000 0
DWIDTH 16 0
BBX 16 16 0 -2
BITMAP
1040
1840
13F8
2040
2FFE
6120
A198
230C
2484
29F8
2290
2490
2060
219E
2E04
0000
ENDCHAR
STARTCHAR 0x8293
ENCODING 33427
SWIDTH 1000 0
DWIDTH 16 0
BBX 16 16 0 -2
BITMAP
1000
1FF8
1408
27F8
2408
7408
A7F8
2420
2424
27AE
2430
2420
25A2
2622
241E
0000
ENDCHAR
STARTCHAR 0x8294
ENCODING 33428
SWIDTH 1000 0
DWIDTH 16 0
BBX 16 16 0 -2
BITMAP
1040
1840
17FE
2040
33FC
6244
A3FC
2244
23FC
2244
20E0
2158
224E
2444
2840
2040
ENDCHAR
STARTCHAR 0x8295
ENCODING 33429
SWIDTH 1000 0
DWIDTH 16 0
BBX 16 16 0 -2
BITMAP
1040
1840
17FE
2040
37FC
6444
A7FC
2040
27FC
2044
2FFE
2044
27FC
2040
2140
2080
ENDCHAR
STARTCHAR 0x8296
ENCODING 33430
SWIDTH 1000 0
DWIDTH 16 0
BBX 16 16 0 -2
BITMAP
1040
1840
17FE
20A0
3118
624E
ADF4
2040
2250
2250
2FFE
2210
2210
2410
3810
0000
ENDCHAR
STARTCHAR 0x8297
ENCODING 33431
SWIDTH 1000 0
DWIDTH 16 0
BBX 16 16 0 -2
BITMAP
1010
1818
17D4
2010
3FFE
6010
A110
2510
25D0
2510
2510
256A
278A
2C06
2002
0000
ENDCHAR
STARTCHAR 0x8298
ENCODING 33432
SWIDTH 1000 0
DWIDTH 16 0
BBX 16 16 0 -2
BITMAP
1000
1BF8
1208
23F8
2208
63F8
A208
2208
23F8
2000
2FFE
2220
2318
260C
2804
0000
ENDCHAR
STARTCHAR 0x8299
ENCODING 33433
SWIDTH 1000 0
DWIDTH 16 0
BBX 16 16 0 -2
BITMAP
1080
1888
17FC
2140
2230
641C
ABE8
3000
2FFC
2080
24A0
2698
288C
3288
2100
0000
ENDCHAR
STARTCHAR 0x829A
ENCODING 33434
SWIDTH 1000 0
DWIDTH 16 0
BBX 16 16 0 -2
BITMAP
101C
1BE0
1008
248C
2248
6210
A040
2FFE
20C0
21E0
2350
224C
2446
2844
2040
0000
ENDCHAR
STARTCHAR 0x829B
ENCODING 33435
SWIDTH 1000 0
DWIDTH 16 0
BBX 16 16 0 -2
BITMAP
1080
1880
1160
2218
2406
6BF8
A040
27FC
2444
27FC
2444
20A0
2118
220E
2C04
0000
ENDCHAR
STARTCHAR 0x829C
ENCODING 33436
SWIDTH 1000 0
DWIDTH 16 0
BBX 16 16 0 -2
BITMAP
1000
1800
1FFE
14A4
24A4
37A8
64A8
A4A8
27A4
24A4
24E2
27A2
2CBE
20A4
20A0
20A0
ENDCHAR
STARTCHAR 0x829D
ENCODING 33437
SWIDTH 1000 0
DWIDTH 16 0
BBX 16 16 0 -2
BITMAP
0840
0840
10A0
1110
320C
57F6
9840
1040
17FC
1040
1040
13F8
1208
1208
13F8
1208
ENDCHAR
STARTCHAR 0x829E
ENCODING 33438
SWIDTH 1000 0
DWIDTH 16 0
BBX 16 16 0 -2
BITMAP
1080
1840
17FC
2210
2198
7120
AFFE
2080
2100
2FFE
2210
23A0
2060
2098
230C
2C08
ENDCHAR
STARTCHAR 0x829F
ENCODING 33439
SWIDTH 1000 0
DWIDTH 16 0
BBX 16 16 0 -2
BITMAP
1110
1910
17FE
2110
3150
6040
A3F8
2248
2248
2248
2FFE
2040
20A0
2118
220E
2C04
ENDCHAR
STARTCHAR 0x82A0
ENCODING 33440
SWIDTH 1000 0
DWIDTH 16 0
BBX 16 16 0 -2
BITMAP
107C
1FC0
1488
2248
3250
67F8
A448
2448
27F8
2448
2448
3FFE
2408
2428
2410
0000
ENDCHAR
STARTCHAR 0x82A1
ENCODING 33441
SWIDTH 1000 0
DWIDTH 16 0
BBX 16 16 0 -2
BITMAP
1210
1918
1120
2FFE
2000
6784
A4A4
27A4
24A4
24A4
27A4
24A4
2484
2694
2508
0000
ENDCHAR
STARTCHAR 0x82A2
ENCODING 33442
SWIDTH 1000 0
DWIDTH 16 0
BBX 16 16 0 -2
BITMAP
1004
1FFE
3080
27FC
74A4
A4A4
24A4
2414
2088
2FFE
2080
2160
2230
241C
2808
0000
ENDCHAR
STARTCHAR 0x82A3
ENCODING 33443
SWIDTH 1000 0
DWIDTH 16 0
BBX 16 16 0 -2
BITMAP
1018
187C
17C0
2040
37FE
6040
A7FC
2444
27FC
2444
27FC
2040
27FC
2040
2040
2FFE
ENDCHAR
STARTCHAR 0x82A4
ENCODING 33444
SWIDTH 1000 0
DWIDTH 16 0
BBX 16 16 0 -2
BITMAP
1040
1840
17F8
2040
27F8
6080
BFFE
2110
23F8
2616
3A14
23F0
2210
2210
23F0
2210
ENDCHAR
STARTCHAR 0x82A5
ENCODING 33445
SWIDTH 1000 0
DWIDTH 16 0
BBX 16 16 0 -2
BITMAP
0080
1080
1BF8
1088
2FFE
2000
63F8
A208
23F8
2040
27FC
2440
2440
2FFE
2040
2040
ENDCHAR
STARTCHAR 0x82A6
ENCODING 33446
SWIDTH 1000 0
DWIDTH 16 0
BBX 16 16 0 -2
BITMAP
1038
1BC0
1040
23F8
7248
A248
23F8
2040
27FC
2444
2454
247C
2794
2504
2414
2408
ENDCHAR
STARTCHAR 0x82A7
ENCODING 33447
SWIDTH 1000 0
DWIDTH 16 0
BBX 16 16 0 -2
BITMAP
0000
17FC
1404
2404
27FC
7504
A488
27FE
2488
2488
27FE
2488
2488
2908
2908
3208
ENDCHAR
STARTCHAR 0x82A8
ENCODING 33448
SWIDTH 1000 0
DWIDTH 16 0
BBX 16 16 0 -2
BITMAP
1000
1BF8
1208
23F8
3208
63F8
A000
2FFE
2040
2240
227C
2240
2240
25C0
287E
2000
ENDCHAR
STARTCHAR 0x82A9
ENCODING 33449
SWIDTH 1000 0
DWIDTH 16 0
BBX 16 16 0 -2
BITMAP
1040
1820
17FE
2108
3090
67FE
A410
2430
24C8
2718
2426
28CC
2B18
2860
3180
2600
ENDCHAR
STARTCHAR 0x82AA
ENCODING 33450
SWIDTH 1000 0
DWIDTH 16 0
BBX 16 16 0 -2
BITMAP
2000
3FF8
2808
4BE8
4888
CBE8
4AA8
4AA8
4AA8
4BE8
4888
48A8
57FA
522A
6004
4000
ENDCHAR
STARTCHAR 0x82AB
ENCODING 33451
SWIDTH 1000 0
DWIDTH 16 0
BBX 16 16 0 -2
BITMAP
13F8
1A08
13F8
2208
23F8
7000
AFFE
2100
21FC
22A4
24A4
2124
2244
2494
2108
0000
ENDCHAR
STARTCHAR 0x82AC
ENCODING 33452
SWIDTH 1000 0
DWIDTH 16 0
BBX 16 16 0 -2
BITMAP
1000
1FFC
1404
2404
37FC
6400
A7FC
2488
2504
25FE
2424
25FC
2820
2820
33FE
0000
ENDCHAR
STARTCHAR 0x82AD
ENCODING 33453
SWIDTH 1000 0
DWIDTH 16 0
BBX 16 16 0 -2
BITMAP
1000
1FBC
14A4
14A4
27BC
3000
53F8
9000
1FFE
1100
13FC
1104
1004
1004
1028
1010
ENDCHAR
STARTCHAR 0x82AE
ENCODING 33454
SWIDTH 1000 0
DWIDTH 16 0
BBX 16 16 0 -2
BITMAP
1040
1840
13FA
3044
2048
6FFE
A020
20C0
21F8
2308
2D08
21F8
2108
2108
21F8
2108
ENDCHAR
STARTCHAR 0x82AF
ENCODING 33455
SWIDTH 1000 0
DWIDTH 16 0
BBX 16 16 0 -2
BITMAP
0840
0A50
134C
1244
3458
3070
50C0
93FC
1D04
11FC
1104
11FC
1104
1104
11FC
1104
ENDCHAR
STARTCHAR 0x82B0
ENCODING 33456
SWIDTH 1000 0
DWIDTH 16 0
BBX 16 16 0 -2
BITMAP
1000
1BF8
1208
3208
2208
73F8
A000
2000
2FBE
28A2
28A2
28A2
28A2
2FBE
28A2
2000
ENDCHAR
STARTCHAR 0x82B1
ENCODING 33457
SWIDTH 1000 0
DWIDTH 16 0
BBX 16 16 0 -2
BITMAP
1080
1840
17FE
2208
2110
67FE
A442
2844
23F8
2248
2248
2248
2268
2250
2040
2040
ENDCHAR
STARTCHAR 0x82B2
ENCODING 33458
SWIDTH 1000 0
DWIDTH 16 0
BBX 16 16 0 -2
BITMAP
1008
183C
17C0
1040
2FFE
3040
575C
5444
9444
175C
1444
1444
1444
17FC
1404
0000
ENDCHAR
STARTCHAR 0x82B3
ENCODING 33459
SWIDTH 1000 0
DWIDTH 16 0
BBX 16 16 0 -2
BITMAP
1120
1924
1738
2122
3322
6D1E
A400
23F8
2208
23F8
2208
23F8
2208
2228
2210
0000
ENDCHAR
STARTCHAR 0x82B4
ENCODING 33460
SWIDTH 1000 0
DWIDTH 16 0
BBX 16 16 0 -2
BITMAP
1090
1A90
1290
2FFE
2290
62F0
A200
23FC
2040
2FFE
20E0
2150
2248
2446
2844
2040
ENDCHAR
STARTCHAR 0x82B5
ENCODING 33461
SWIDTH 1000 0
DWIDTH 16 0
BBX 16 16 0 -2
BITMAP
1080
1900
17FC
2404
27FC
6404
A7FC
2000
2FFE
2040
2040
27FC
2040
2040
2FFE
2000
ENDCHAR
STARTCHAR 0x82B6
ENCODING 33462
SWIDTH 1000 0
DWIDTH 16 0
BBX 16 16 0 -2
BITMAP
1000
1FFC
10A0
27FC
34A4
64A4
A7FC
2080
2088
2FFE
2108
2310
20E0
2110
220C
2404
ENDCHAR
STARTCHAR 0x82B7
ENCODING 33463
SWIDTH 1000 0
DWIDTH 16 0
BBX 16 16 0 -2
BITMAP
1110
1910
17FE
2110
21F0
6110
A1F0
2110
2110
2FFE
2290
22C8
230C
2208
27FE
2200
ENDCHAR
STARTCHAR 0x82B8
ENCODING 33464
SWIDTH 1000 0
DWIDTH 16 0
BBX 16 16 0 -2
BITMAP
1000
1990
1610
2210
3254
6FD6
A658
2750
2A90
2A90
3210
2228
2228
2244
2246
2284
ENDCHAR
STARTCHAR 0x82B9
ENCODING 33465
SWIDTH 1000 0
DWIDTH 16 0
BBX 16 16 0 -2
BITMAP
1080
1840
17FC
2210
2110
6120
AFFE
2000
23F8
2208
23F8
2208
2208
23F8
2208
0000
ENDCHAR
STARTCHAR 0x82BA
ENCODING 33466
SWIDTH 1000 0
DWIDTH 16 0
BBX 16 16 0 -2
BITMAP
1210
1998
1120
2FFC
30A0
60A0
A7F8
2528
2538
2608
27F8
2408
2408
27F8
2408
0000
ENDCHAR
STARTCHAR 0x82BB
ENCODING 33467
SWIDTH 1000 0
DWIDTH 16 0
BBX 16 16 0 -2
BITMAP
1000
1BFE
1042
2274
3240
6540
A8FE
3000
23FC
2204
23FC
2204
23FC
2204
2214
2208
ENDCHAR
STARTCHAR 0x82BC
ENCODING 33468
SWIDTH 1000 0
DWIDTH 16 0
BBX 16 16 0 -2
BITMAP
1080
1884
37FE
2120
6298
A5FE
3B14
24A0
20C0
2344
2CFE
210C
2658
2030
21C0
2E00
ENDCHAR
STARTCHAR 0x82BD
ENCODING 33469
SWIDTH 1000 0
DWIDTH 16 0
BBX 16 16 0 -2
BITMAP
1120
1920
1124
25EE
7530
A522
25A2
2E1E
2040
2FFE
20C0
2160
2258
244E
2844
2040
ENDCHAR
STARTCHAR 0x82BE
ENCODING 33470
SWIDTH 1000 0
DWIDTH 16 0
BBX 16 16 0 -2
BITMAP
0900
0DF8
0908
1210
1BF8
3208
53F8
9208
13F8
1208
13F8
1100
1190
1308
120C
1408
ENDCHAR
STARTCHAR 0x82BF
ENCODING 33471
SWIDTH 1000 0
DWIDTH 16 0
BBX 16 16 0 -2
BITMAP
1000
1FFC
1000
33F8
2208
6208
A3F8
2000
27FC
2444
27FC
2444
2444
27FC
2404
0000
ENDCHAR
STARTCHAR 0x82C0
ENCODING 33472
SWIDTH 1000 0
DWIDTH 16 0
BBX 16 16 0 -2
BITMAP
1210
1B10
34FE
2810
7210
A3FE
2408
2E08
34FE
2488
2448
2448
2408
2428
2410
0000
ENDCHAR
STARTCHAR 0x82C1
ENCODING 33473
SWIDTH 1000 0
DWIDTH 16 0
BBX 16 16 0 -2
BITMAP
1000
1FFE
1080
2080
37FE
6492
A492
24F2
2492
2492
24F2
2492
2492
27FE
2402
0000
ENDCHAR
STARTCHAR 0x82C2
ENCODING 33474
SWIDTH 1000 0
DWIDTH 16 0
BBX 16 16 0 -2
BITMAP
1000
1BF8
1208
3208
23F8
3000
57FE
9208
13F8
1208
13F8
1208
12FE
1788
1008
1008
ENDCHAR
STARTCHAR 0x82C3
ENCODING 33475
SWIDTH 1000 0
DWIDTH 16 0
BBX 16 16 0 -2
BITMAP
1080
1840
37FC
2000
73F8
A208
2208
23F8
2088
215C
2320
2630
2A58
228E
2704
2200
ENDCHAR
STARTCHAR 0x82C4
ENCODING 33476
SWIDTH 1000 0
DWIDTH 16 0
BBX 16 16 0 -2
BITMAP
1100
193C
17D4
2114
27D4
6114
AFA4
215C
2108
2040
27FC
2040
20B0
231C
2C08
0000
ENDCHAR
STARTCHAR 0x82C5
ENCODING 33477
SWIDTH 1000 0
DWIDTH 16 0
BBX 16 16 0 -2
BITMAP
103C
1FE0
1420
2424
37FE
6420
A5F8
2508
25F8
2508
25F8
2908
2908
29F8
3108
0000
ENDCHAR
STARTCHAR 0x82C6
ENCODING 33478
SWIDTH 1000 0
DWIDTH 16 0
BBX 16 16 0 -2
BITMAP
1000
1FFC
1444
2444
37FC
6444
A444
27FC
2000
2148
2524
2526
290A
2908
20F8
0000
ENDCHAR
STARTCHAR 0x82C7
ENCODING 33479
SWIDTH 1000 0
DWIDTH 16 0
BBX 16 16 0 -2
BITMAP
1040
1C44
1444
2444
27FC
6000
AFFE
2080
27FC
2524
2524
2524
2524
2534
2508
0000
ENDCHAR
STARTCHAR 0x82C8
ENCODING 33480
SWIDTH 1000 0
DWIDTH 16 0
BBX 16 16 0 -2
BITMAP
1002
1FC2
1452
2452
27D2
6452
A7D2
2452
2452
27D2
2292
2292
2442
284A
3004
0000
ENDCHAR
STARTCHAR 0x82C9
ENCODING 33481
SWIDTH 1000 0
DWIDTH 16 0
BBX 16 16 0 -2
BITMAP
0840
0C40
187C
1040
33F8
3208
53F8
9208
13F8
1208
13F8
1100
1190
1308
120C
0408
ENDCHAR
STARTCHAR 0x82CA
ENCODING 33482
SWIDTH 1000 0
DWIDTH 16 0
BBX 16 16 0 -2
BITMAP
0880
0CC0
1920
1218
25EE
6804
A792
2492
27A4
24C8
27A4
2494
2492
268A
2508
0000
ENDCHAR
STARTCHAR 0x82CB
ENCODING 33483
SWIDTH 1000 0
DWIDTH 16 0
BBX 16 16 0 -2
BITMAP
1080
1880
10FC
3188
2250
6C20
A8DE
2F04
2BF8
2A48
2BF8
2A48
2248
23F8
2208
0000
ENDCHAR
STARTCHAR 0x82CC
ENCODING 33484
SWIDTH 1000 0
DWIDTH 16 0
BBX 16 16 0 -2
BITMAP
0A10
0A10
13D8
1454
2454
6A90
A190
227E
3C00
23F8
2208
23F8
2208
2208
23F8
0000
ENDCHAR
STARTCHAR 0x82CD
ENCODING 33485
SWIDTH 1000 0
DWIDTH 16 0
BBX 16 16 0 -2
BITMAP
0840
0C40
187E
1040
33F8
2008
67FE
A008
23F8
2040
227C
2240
2540
28C0
303E
0000
ENDCHAR
STARTCHAR 0x82CE
ENCODING 33486
SWIDTH 1000 0
DWIDTH 16 0
BBX 16 16 0 -2
BITMAP
1080
1A80
1288
17FC
2088
2090
61FC
A108
23FE
2252
252A
268A
2AA2
3014
2008
0000
ENDCHAR
STARTCHAR 0x82CF
ENCODING 33487
SWIDTH 1000 0
DWIDTH 16 0
BBX 16 16 0 -2
BITMAP
1000
1940
165C
2444
375C
6444
A7FC
2444
2040
23F8
2110
20A0
2040
20B0
230E
2C04
ENDCHAR
STARTCHAR 0x82D0
ENCODING 33488
SWIDTH 1000 0
DWIDTH 16 0
BBX 16 16 0 -2
BITMAP
0808
087C
17A0
1438
2420
75FE
A524
25F8
2524
253C
2A00
2AF0
2A92
3512
2A0E
0000
ENDCHAR
STARTCHAR 0x82D1
ENCODING 33489
SWIDTH 1000 0
DWIDTH 16 0
BBX 16 16 0 -2
BITMAP
1040
1BFC
1040
23F8
3040
6FFE
A110
27E0
2110
27F8
2044
2248
2344
2446
2944
2080
ENDCHAR
STARTCHAR 0x82D2
ENCODING 33490
SWIDTH 1000 0
DWIDTH 16 0
BBX 16 16 0 -2
BITMAP
1040
1840
17FE
14A8
22AC
3110
530E
9DFC
1108
11F8
1108
11F8
1108
1108
11F8
1108
ENDCHAR
STARTCHAR 0x82D3
ENCODING 33491
SWIDTH 1000 0
DWIDTH 16 0
BBX 16 16 0 -2
BITMAP
1000
1FFE
1420
24FC
3484
64FC
A484
24FC
24A4
2420
24A8
24A4
2522
2AA2
3040
0000
ENDCHAR
STARTCHAR 0x82D4
ENCODING 33492
SWIDTH 1000 0
DWIDTH 16 0
BBX 16 16 0 -2
BITMAP
1110
1910
17FE
3110
2000
6FFE
A210
23F0
2210
23F0
2210
227E
2F90
2010
2010
0000
ENDCHAR
STARTCHAR 0x82D5
ENCODING 33493
SWIDTH 1000 0
DWIDTH 16 0
BBX 16 16 0 -2
BITMAP
1000
1BFE
1200
23FC
2200
73FE
A2AC
2290
22CE
2208
22FE
2448
2428
2808
3028
0010
ENDCHAR
STARTCHAR 0x82D6
ENCODING 33494
SWIDTH 1000 0
DWIDTH 16 0
BBX 16 16 0 -2
BITMAP
09F8
0D08
1908
11F8
2000
33FC
5204
93FC
1204
13FC
1204
13FC
1110
118C
1206
1404
ENDCHAR
STARTCHAR 0x82D7
ENCODING 33495
SWIDTH 1000 0
DWIDTH 16 0
BBX 16 16 0 -2
BITMAP
0000
1120
1FFC
1120
27FC
2120
6FFE
A040
27F8
2448
27F8
2448
3FFE
2408
2428
2410
ENDCHAR
STARTCHAR 0x82D8
ENCODING 33496
SWIDTH 1000 0
DWIDTH 16 0
BBX 16 16 0 -2
BITMAP
1008
1FFC
1440
27FC
3440
67FC
A440
2440
27FC
20A4
2654
2554
2904
2014
2008
0000
ENDCHAR
STARTCHAR 0x82D9
ENCODING 33497
SWIDTH 1000 0
DWIDTH 16 0
BBX 16 16 0 -2
BITMAP
1040
1044
2FFE
3040
63F8
A208
23F8
2208
23F8
2208
23F8
2208
2FFE
2110
230C
2408
ENDCHAR
STARTCHAR 0x82DA
ENCODING 33498
SWIDTH 1000 0
DWIDTH 16 0
BBX 16 16 0 -2
BITMAP
1080
1840
17FC
2440
35F8
6448
A7FE
2448
25F8
2440
25F8
2508
2908
29F8
3108
0000
ENDCHAR
STARTCHAR 0x82DB
ENCODING 33499
SWIDTH 1000 0
DWIDTH 16 0
BBX 16 16 0 -2
BITMAP
1080
1840
17FC
2000
33F0
6210
A3F0
2000
27FC
2404
25E4
2524
25E4
2414
2408
0000
ENDCHAR
STARTCHAR 0x82DC
ENCODING 33500
SWIDTH 1000 0
DWIDTH 16 0
BBX 16 16 0 -2
BITMAP
1410
1C10
177E
2950
2950
75FE
A210
2450
3840
27FE
20C0
2160
2258
244E
2844
2040
ENDCHAR
STARTCHAR 0x82DD
ENCODING 33501
SWIDTH 1000 0
DWIDTH 16 0
BBX 16 16 0 -2
BITMAP
103C
1BC0
124C
2148
2080
7118
A3E0
2090
23FC
2148
2040
27FC
20A0
2118
220E
2404
ENDCHAR
STARTCHAR 0x82DE
ENCODING 33502
SWIDTH 1000 0
DWIDTH 16 0
BBX 16 16 0 -2
BITMAP
1080
1840
17FC
2404
27FC
7400
A7DC
2444
2564
2554
2444
2554
2A64
2954
3088
0000
ENDCHAR
STARTCHAR 0x82DF
ENCODING 33503
SWIDTH 1000 0
DWIDTH 16 0
BBX 16 16 0 -2
BITMAP
1210
1920
17FE
2120
37F8
6128
AFFE
2128
27F8
2120
2330
2328
252E
2924
2120
0000
ENDCHAR
STARTCHAR 0x82E0
ENCODING 33504
SWIDTH 1000 0
DWIDTH 16 0
BBX 16 16 0 -2
BITMAP
1080
18C0
1484
27FE
2504
6920
A3FC
2620
2BFC
3220
23FC
2220
2220
23FE
2200
0000
ENDCHAR
STARTCHAR 0x82E1
ENCODING 33505
SWIDTH 1000 0
DWIDTH 16 0
BBX 16 16 0 -2
BITMAP
1080
18C0
1130
229C
3408
6BF8
A288
2248
23F8
2200
27F8
2608
2A08
2BF8
3208
0000
ENDCHAR
STARTCHAR 0x82E2
ENCODING 33506
SWIDTH 1000 0
DWIDTH 16 0
BBX 16 16 0 -2
BITMAP
1080
1840
17FC
2080
2118
73E0
A188
27FC
2008
27F8
2448
27F8
2448
27F8
2408
0000
ENDCHAR
STARTCHAR 0x82E3
ENCODING 33507
SWIDTH 1000 0
DWIDTH 16 0
BBX 16 16 0 -2
BITMAP
0100
0180
0240
0D30
312E
C924
1550
69A8
0920
1550
2388
FFFE
0100
0100
0100
0100
ENDCHAR
STARTCHAR 0x82E4
ENCODING 33508
SWIDTH 1000 0
DWIDTH 16 0
BBX 16 16 0 -2
BITMAP
1120
1920
17FC
2120
2FFE
6100
A3F8
2648
3BF8
2248
2248
23F8
2248
2248
2258
0000
ENDCHAR
STARTCHAR 0x82E5
ENCODING 33509
SWIDTH 1000 0
DWIDTH 16 0
BBX 16 16 0 -2
BITMAP
1410
1210
2220
2FBE
6464
A524
28A4
35A4
2524
2218
2310
24A8
2844
3086
2104
0000
ENDCHAR
STARTCHAR 0x82E6
ENCODING 33510
SWIDTH 1000 0
DWIDTH 16 0
BBX 16 16 0 -2
BITMAP
1080
1844
37FE
2524
6910
A248
2C48
20A0
2118
260E
2BF4
2210
2210
23F0
2210
0000
ENDCHAR
STARTCHAR 0x82E7
ENCODING 33511
SWIDTH 1000 0
DWIDTH 16 0
BBX 16 16 0 -2
BITMAP
103C
1FE0
1288
214C
2150
7200
A3FC
2240
2440
2FFE
2040
2444
2444
27FC
2404
0000
ENDCHAR
STARTCHAR 0x82E8
ENCODING 33512
SWIDTH 1000 0
DWIDTH 16 0
BBX 16 16 0 -2
BITMAP
1000
1BF8
1208
33F8
2208
63F8
A000
2FFC
2884
24A4
2294
2494
28A4
22D4
2108
0000
ENDCHAR
STARTCHAR 0x82E9
ENCODING 33513
SWIDTH 1000 0
DWIDTH 16 0
BBX 16 16 0 -2
BITMAP
1210
1920
17FC
3040
27F8
6040
A080
2FFE
2100
23FC
2220
2420
2820
37FE
2000
0000
ENDCHAR
STARTCHAR 0x82EA
ENCODING 33514
SWIDTH 1000 0
DWIDTH 16 0
BBX 16 16 0 -2
BITMAP
1120
19A0
1110
2298
252E
6BF4
A110
2FBC
2084
24B4
258C
2294
2CA4
2294
2108
0000
ENDCHAR
STARTCHAR 0x82EB
ENCODING 33515
SWIDTH 1000 0
DWIDTH 16 0
BBX 16 16 0 -2
BITMAP
1000
1A04
1104
1FC4
203E
3784
6004
A7A4
2014
2794
2484
2484
2784
2494
2008
0000
ENDCHAR
STARTCHAR 0x82EC
ENCODING 33516
SWIDTH 1000 0
DWIDTH 16 0
BBX 16 16 0 -2
BITMAP
1000
1810
1408
1208
2F7E
2004
7144
A944
2928
2A28
2228
2208
2708
38FE
2000
0000
ENDCHAR
STARTCHAR 0x82ED
ENCODING 33517
SWIDTH 1000 0
DWIDTH 16 0
BBX 16 16 0 -2
BITMAP
1080
1840
17FE
2404
2BF8
6080
A110
2698
28B0
2360
2CD0
2148
264E
3944
2080
0000
ENDCHAR
STARTCHAR 0x82EE
ENCODING 33518
SWIDTH 1000 0
DWIDTH 16 0
BBX 16 16 0 -2
BITMAP
1110
1910
17D4
2112
3FFE
6210
A214
2FD6
2514
29D8
2F18
21D0
2F2A
214A
2104
0000
ENDCHAR
STARTCHAR 0x82EF
ENCODING 33519
SWIDTH 1000 0
DWIDTH 16 0
BBX 16 16 0 -2
BITMAP
09F8
0D08
11E8
1128
2528
37FE
5804
93F8
1208
13F8
1208
13F8
1208
1228
1210
0000
ENDCHAR
STARTCHAR 0x82F0
ENCODING 33520
SWIDTH 1000 0
DWIDTH 16 0
BBX 16 16 0 -2
BITMAP
1080
18C0
1110
23F8
3210
6524
AF7E
20A4
2110
264E
39B0
264C
2198
2060
2780
0000
ENDCHAR
STARTCHAR 0x82F1
ENCODING 33521
SWIDTH 1000 0
DWIDTH 16 0
BBX 16 16 0 -2
BITMAP
1000
1FFC
1444
27FC
3444
67FC
A0C0
2318
27F0
20C8
27FC
2254
2648
2D4C
3088
0000
ENDCHAR
STARTCHAR 0x82F2
ENCODING 33522
SWIDTH 1000 0
DWIDTH 16 0
BBX 16 16 0 -2
BITMAP
1040
1FFE
1420
25F8
2428
77FE
A428
25F8
2420
25FC
2524
25FC
2524
25FC
2524
292C
ENDCHAR
STARTCHAR 0x82F3
ENCODING 33523
SWIDTH 1000 0
DWIDTH 16 0
BBX 16 16 0 -2
BITMAP
10A0
18A0
17FE
20A0
27FC
74A4
A7FC
24A4
27FC
2000
23F8
2208
23F8
2208
2208
23F8
ENDCHAR
STARTCHAR 0x82F4
ENCODING 33524
SWIDTH 1000 0
DWIDTH 16 0
BBX 16 16 0 -2
BITMAP
10C0
1880
17FC
2484
34F4
65A4
A644
25A4
27FC
2084
2240
2A54
2A52
3212
21F0
0000
ENDCHAR
STARTCHAR 0x82F5
ENCODING 33525
SWIDTH 1000 0
DWIDTH 16 0
BBX 16 16 0 -2
BITMAP
1040
1C44
1444
27FC
2000
77BC
A4A4
27BC
24A4
24A4
27BC
24A4
24A4
2BBC
3148
0000
ENDCHAR
STARTCHAR 0x82F6
ENCODING 33526
SWIDTH 1000 0
DWIDTH 16 0
BBX 16 16 0 -2
BITMAP
2448
3648
2448
28D8
7524
A642
2420
2CA0
34BC
24A0
24A0
24A0
2560
2630
240E
0000
ENDCHAR
STARTCHAR 0x82F7
ENCODING 33527
SWIDTH 1000 0
DWIDTH 16 0
BBX 16 16 0 -2
BITMAP
1040
1FFE
1040
23F8
2248
63F8
A248
23F8
2048
27FE
2014
2FFE
2110
2110
2050
2020
ENDCHAR
STARTCHAR 0x82F8
ENCODING 33528
SWIDTH 1000 0
DWIDTH 16 0
BBX 16 16 0 -2
BITMAP
1000
1FFE
1400
24F8
3488
64F8
A400
2400
25DC
2554
2554
25DC
2400
27FE
2400
0000
ENDCHAR
STARTCHAR 0x82F9
ENCODING 33529
SWIDTH 1000 0
DWIDTH 16 0
BBX 16 16 0 -2
BITMAP
1040
1FFC
1040
37F8
2040
6FFE
A208
23F8
2208
2208
23F8
2208
23F8
2110
230C
2408
ENDCHAR
STARTCHAR 0x82FA
ENCODING 33530
SWIDTH 1000 0
DWIDTH 16 0
BBX 16 16 0 -2
BITMAP
1010
1814
1014
27FE
3510
65D4
A516
2514
27D4
2518
2590
2552
292A
2B46
3082
2100
ENDCHAR
STARTCHAR 0x82FB
ENCODING 33531
SWIDTH 1000 0
DWIDTH 16 0
BBX 16 16 0 -2
BITMAP
1200
1BFC
1400
27F8
2208
63F8
A208
2FFE
2100
23FC
24A4
3924
2644
2084
2314
2008
ENDCHAR
STARTCHAR 0x82FC
ENCODING 33532
SWIDTH 1000 0
DWIDTH 16 0
BBX 16 16 0 -2
BITMAP
1080
1080
2FFC
2080
2AA8
6490
AAA8
2080
2AA8
2490
2AA8
20C0
2120
2218
240E
2804
ENDCHAR
STARTCHAR 0x82FD
ENCODING 33533
SWIDTH 1000 0
DWIDTH 16 0
BBX 16 16 0 -2
BITMAP
1080
1840
17FC
2210
3120
67FC
A000
23F8
2208
23F8
2208
23F8
2120
2124
2224
241C
ENDCHAR
STARTCHAR 0x82FE
ENCODING 33534
SWIDTH 1000 0
DWIDTH 16 0
BBX 16 16 0 -2
BITMAP
1110
1FFE
1110
21F0
3040
67FC
A444
27FC
2040
27FC
2040
2FFE
20A0
2118
220E
2C04
ENDCHAR
STARTCHAR 0x8340
ENCODING 33600
SWIDTH 1000 0
DWIDTH 16 0
BBX 16 16 0 -2
BITMAP
1080
1844
17FE
2110
30A0
6FFE
A000
23F8
2208
23F8
2208
23F8
2040
2FFE
2040
2040
ENDCHAR
STARTCHAR 0x8341
ENCODING 33601
SWIDTH 1000 0
DWIDTH 16 0
BBX 16 16 0 -2
BITMAP
1000
19FE
1020
28FC
2884
6EFC
A884
28FC
2884
2884
2AFC
2C00
2888
20C4
2186
2204
ENDCHAR
STARTCHAR 0x8342
ENCODING 33602
SWIDTH 1000 0
DWIDTH 16 0
BBX 16 16 0 -2
BITMAP
1000
1FFE
1240
227C
2240
6FFE
A200
23FC
2200
23FC
2244
2524
25B4
2924
2014
2008
ENDCHAR
STARTCHAR 0x8343
ENCODING 33603
SWIDTH 1000 0
DWIDTH 16 0
BBX 16 16 0 -2
BITMAP
1528
1528
2FFE
2528
69EE
A000
2FFE
2842
2842
23F8
2248
2248
2248
2258
2040
2040
ENDCHAR
STARTCHAR 0x8344
ENCODING 33604
SWIDTH 1000 0
DWIDTH 16 0
BBX 16 16 0 -2
BITMAP
1078
1F90
1498
22A0
2FFC
61C0
A2B0
248E
2884
2048
2524
2534
2528
2908
20F8
2000
ENDCHAR
STARTCHAR 0x8345
ENCODING 33605
SWIDTH 1000 0
DWIDTH 16 0
BBX 16 16 0 -2
BITMAP
1040
1FF8
1448
2FFE
2448
67F8
A040
27F8
2448
27F8
2100
2FFE
2210
2120
20D8
2F04
ENDCHAR
STARTCHAR 0x8346
ENCODING 33606
SWIDTH 1000 0
DWIDTH 16 0
BBX 16 16 0 -2
BITMAP
1120
1928
17FC
2120
2524
67FE
A804
2FE4
34A4
27E4
24A4
27E4
24A4
28A4
2814
3008
ENDCHAR
STARTCHAR 0x8347
ENCODING 33607
SWIDTH 1000 0
DWIDTH 16 0
BBX 16 16 0 -2
BITMAP
1004
1FFE
10A0
27FC
34A4
67FC
A000
23FC
2000
2FFE
2040
2250
224C
2444
2940
2080
ENDCHAR
STARTCHAR 0x8348
ENCODING 33608
SWIDTH 1000 0
DWIDTH 16 0
BBX 16 16 0 -2
BITMAP
1110
1910
17FE
2110
31F0
6040
A7FC
2444
27FC
2040
27FC
2040
23F8
2040
2FFE
2000
ENDCHAR
STARTCHAR 0x8349
ENCODING 33609
SWIDTH 1000 0
DWIDTH 16 0
BBX 16 16 0 -2
BITMAP
1020
1820
13FE
2420
35FC
6124
ADFC
2524
25FC
2420
25FE
2420
2420
2B20
28FE
2000
ENDCHAR
STARTCHAR 0x834A
ENCODING 33610
SWIDTH 1000 0
DWIDTH 16 0
BBX 16 16 0 -2
BITMAP
1778
1148
2528
2518
6128
AD48
20C0
2120
265E
3984
2E68
218C
2630
20C0
2300
2C00
ENDCHAR
STARTCHAR 0x834B
ENCODING 33611
SWIDTH 1000 0
DWIDTH 16 0
BBX 16 16 0 -2
BITMAP
1000
1BF8
1288
2248
23F8
6000
A7FC
24A4
27FC
2000
23F8
2110
2110
20E0
231C
2C08
ENDCHAR
STARTCHAR 0x834C
ENCODING 33612
SWIDTH 1000 0
DWIDTH 16 0
BBX 16 16 0 -2
BITMAP
0100
0280
0440
0820
37D8
C006
3EF8
2288
2288
3EF8
2A20
0820
1450
1248
228C
4088
ENDCHAR
STARTCHAR 0x834D
ENCODING 33613
SWIDTH 1000 0
DWIDTH 16 0
BBX 16 16 0 -2
BITMAP
17FC
18A0
17FC
24A4
37FC
6484
A100
2FFE
2210
27F8
3A16
2210
23F0
2208
2208
21F8
ENDCHAR
STARTCHAR 0x834E
ENCODING 33614
SWIDTH 1000 0
DWIDTH 16 0
BBX 16 16 0 -2
BITMAP
1080
1880
1160
229C
2448
6BF0
A020
23F8
2208
2388
2278
2208
23F8
2110
230C
2408
ENDCHAR
STARTCHAR 0x834F
ENCODING 33615
SWIDTH 1000 0
DWIDTH 16 0
BBX 16 16 0 -2
BITMAP
1220
1A30
17A0
2224
3FFE
6AA8
AFA8
2AA8
2FA8
2AA8
2210
3FD0
2228
2244
2382
2200
ENDCHAR
STARTCHAR 0x8350
ENCODING 33616
SWIDTH 1000 0
DWIDTH 16 0
BBX 16 16 0 -2
BITMAP
1060
1F88
1108
2FC8
2108
6FFE
A94A
2FCA
294A
2FCA
2112
2FD2
2112
23E2
3C5C
2088
ENDCHAR
STARTCHAR 0x8351
ENCODING 33617
SWIDTH 1000 0
DWIDTH 16 0
BBX 16 16 0 -2
BITMAP
1000
1FBC
14A4
27BC
3420
64A2
A79E
2120
2FFC
2120
2120
3FFE
2220
2310
240C
2804
ENDCHAR
STARTCHAR 0x8352
ENCODING 33618
SWIDTH 1000 0
DWIDTH 16 0
BBX 16 16 0 -2
BITMAP
1210
1920
17FC
2040
37FC
6040
AFFE
2248
2150
2FFE
2000
23F8
2208
2208
23F8
2208
ENDCHAR
STARTCHAR 0x8353
ENCODING 33619
SWIDTH 1000 0
DWIDTH 16 0
BBX 16 16 0 -2
BITMAP
1018
1FE0
1084
2FFE
2110
67E8
B926
21E4
2FF8
2808
2BE8
2A28
2BE8
2A28
2818
0000
ENDCHAR
STARTCHAR 0x8354
ENCODING 33620
SWIDTH 1000 0
DWIDTH 16 0
BBX 16 16 0 -2
BITMAP
1080
1840
17FE
2512
2A08
67FC
A088
2FFE
2108
27F8
2200
25F8
2908
3108
21F8
2108
ENDCHAR
STARTCHAR 0x8355
ENCODING 33621
SWIDTH 1000 0
DWIDTH 16 0
BBX 16 16 0 -2
BITMAP
1040
1BF8
1248
23F8
7040
AFFE
2208
23F8
2208
23F8
2208
23F8
2110
2188
220C
2408
ENDCHAR
STARTCHAR 0x8356
ENCODING 33622
SWIDTH 1000 0
DWIDTH 16 0
BBX 16 16 0 -2
BITMAP
1210
1920
17FC
20A0
37F8
64A8
A538
27F8
2408
27F8
2010
2FFE
2210
2110
2150
2020
ENDCHAR
STARTCHAR 0x8357
ENCODING 33623
SWIDTH 1000 0
DWIDTH 16 0
BBX 16 16 0 -2
BITMAP
1120
1928
152C
2530
2FFE
6220
A7F8
2080
27F8
2080
2FFE
2080
2140
2230
241C
2808
ENDCHAR
STARTCHAR 0x8358
ENCODING 33624
SWIDTH 1000 0
DWIDTH 16 0
BBX 16 16 0 -2
BITMAP
1110
1954
15D8
2530
3510
62A8
A4C4
27FE
2884
27F8
2088
2088
2108
2108
2238
2410
ENDCHAR
STARTCHAR 0x8359
ENCODING 33625
SWIDTH 1000 0
DWIDTH 16 0
BBX 16 16 0 -2
BITMAP
1210
1A18
1250
2A90
361E
6FA4
A8A4
2EE4
2AA8
2AA8
2A98
2E90
28A8
2AA6
2944
0000
ENDCHAR
STARTCHAR 0x835A
ENCODING 33626
SWIDTH 1000 0
DWIDTH 16 0
BBX 16 16 0 -2
BITMAP
1110
1910
17FC
2110
3FFE
6040
A7FC
2444
27FC
2444
27FC
2120
2190
2318
240C
2808
ENDCHAR
STARTCHAR 0x835B
ENCODING 33627
SWIDTH 1000 0
DWIDTH 16 0
BBX 16 16 0 -2
BITMAP
1020
1CB0
14A0
2FE0
64BE
A7D2
2494
2790
24A8
3FE8
2928
2CA4
28A4
3042
2042
0080
ENDCHAR
STARTCHAR 0x835C
ENCODING 33628
SWIDTH 1000 0
DWIDTH 16 0
BBX 16 16 0 -2
BITMAP
1040
1BA8
14B2
32AC
2110
63E8
A406
3BFC
2208
2208
23F8
2110
2110
20A4
2FFE
0000
ENDCHAR
STARTCHAR 0x835D
ENCODING 33629
SWIDTH 1000 0
DWIDTH 16 0
BBX 16 16 0 -2
BITMAP
1000
1FFC
1404
27FC
35F0
6424
A7FE
24A0
2440
2BFC
2888
2BFE
2888
3088
32A8
2110
ENDCHAR
STARTCHAR 0x835E
ENCODING 33630
SWIDTH 1000 0
DWIDTH 16 0
BBX 16 16 0 -2
BITMAP
101C
1BE0
1488
2290
37F8
6408
A7F0
2410
27FC
2424
2754
26B4
2A84
2814
3008
0000
ENDCHAR
STARTCHAR 0x835F
ENCODING 33631
SWIDTH 1000 0
DWIDTH 16 0
BBX 16 16 0 -2
BITMAP
1250
1A58
1552
17FE
2244
654A
AFDE
2242
3FFE
2248
2228
2530
2492
28AA
3046
0000
ENDCHAR
STARTCHAR 0x8360
ENCODING 33632
SWIDTH 1000 0
DWIDTH 16 0
BBX 16 16 0 -2
BITMAP
101C
1BE0
1258
2150
2FFC
7160
A258
244E
2FFC
2448
27F8
2448
2448
27F8
2408
0000
ENDCHAR
STARTCHAR 0x8361
ENCODING 33633
SWIDTH 1000 0
DWIDTH 16 0
BBX 16 16 0 -2
BITMAP
1040
1840
17FC
2040
77FC
A444
27FC
2444
27FC
2048
2FFE
2084
2A40
2A54
2A12
21F0
ENDCHAR
STARTCHAR 0x8362
ENCODING 33634
SWIDTH 1000 0
DWIDTH 16 0
BBX 16 16 0 -2
BITMAP
1008
1FFC
1488
3248
2250
6FFE
A814
2410
27FE
2490
2B50
21FE
2210
2410
2810
0000
ENDCHAR
STARTCHAR 0x8363
ENCODING 33635
SWIDTH 1000 0
DWIDTH 16 0
BBX 16 16 0 -2
BITMAP
2210
3210
2FBE
6210
6FBE
A210
25A8
2846
23F8
2208
2208
23F8
2208
2208
23F8
2208
ENDCHAR
STARTCHAR 0x8364
ENCODING 33636
SWIDTH 1000 0
DWIDTH 16 0
BBX 16 16 0 -2
BITMAP
1000
1FBC
14A4
27BC
3000
67FC
A444
27FC
2444
27FC
2040
2FFE
2040
2040
2040
2040
ENDCHAR
STARTCHAR 0x8365
ENCODING 33637
SWIDTH 1000 0
DWIDTH 16 0
BBX 16 16 0 -2
BITMAP
1080
1880
17F8
2080
37FC
6210
AF7C
2210
2F7E
2000
2FFC
2120
2322
2622
381E
0000
ENDCHAR
STARTCHAR 0x8366
ENCODING 33638
SWIDTH 1000 0
DWIDTH 16 0
BBX 16 16 0 -2
BITMAP
1040
1FFC
1040
2250
3FFE
6210
A7F8
2408
27F8
2408
27F8
2408
27F8
2210
260C
2808
ENDCHAR
STARTCHAR 0x8367
ENCODING 33639
SWIDTH 1000 0
DWIDTH 16 0
BBX 16 16 0 -2
BITMAP
2000
3FBE
28A2
2FBE
68A2
AFBE
29F2
2912
29F2
2912
29F2
2912
2A52
2C22
280A
0004
ENDCHAR
STARTCHAR 0x8368
ENCODING 33640
SWIDTH 1000 0
DWIDTH 16 0
BBX 16 16 0 -2
BITMAP
13FC
1808
1010
27FE
30A4
6128
A260
27FC
24A4
2514
26EC
24A4
24A4
24E4
2414
2408
ENDCHAR
STARTCHAR 0x8369
ENCODING 33641
SWIDTH 1000 0
DWIDTH 16 0
BBX 16 16 0 -2
BITMAP
1000
1FFE
10A0
27BC
3404
67BC
A0A0
20A0
2FFE
2080
2448
2564
292A
2908
20F8
0000
ENDCHAR
STARTCHAR 0x836A
ENCODING 33642
SWIDTH 1000 0
DWIDTH 16 0
BBX 16 16 0 -2
BITMAP
1048
1A4C
1150
27FC
70E0
A158
224E
2C54
27BE
2490
28D0
357E
2150
2210
3C10
0000
ENDCHAR
STARTCHAR 0x836B
ENCODING 33643
SWIDTH 1000 0
DWIDTH 16 0
BBX 16 16 0 -2
BITMAP
0820
7EFE
0820
7EFC
4AA4
4AB4
5C68
2AA4
C924
0920
0100
0280
0460
1818
6006
0000
ENDCHAR
STARTCHAR 0x836C
ENCODING 33644
SWIDTH 1000 0
DWIDTH 16 0
BBX 16 16 0 -2
BITMAP
1080
1840
17FC
2404
37FC
6520
A510
27FE
2510
25FC
2510
29FC
2910
29FE
3100
0000
ENDCHAR
STARTCHAR 0x836D
ENCODING 33645
SWIDTH 1000 0
DWIDTH 16 0
BBX 16 16 0 -2
BITMAP
1000
1FFE
10A0
27FC
34A4
67FC
A010
2410
277E
2950
3550
22FE
2210
2410
2810
2010
ENDCHAR
STARTCHAR 0x836E
ENCODING 33646
SWIDTH 1000 0
DWIDTH 16 0
BBX 16 16 0 -2
BITMAP
1000
1FBC
14A4
17BC
24A4
27BC
6404
A5F4
2514
25F4
2514
25F4
2504
2414
2408
0000
ENDCHAR
STARTCHAR 0x836F
ENCODING 33647
SWIDTH 1000 0
DWIDTH 16 0
BBX 16 16 0 -2
BITMAP
1000
1FF8
1528
2528
3738
6120
AF3C
2924
2F3C
2924
2F3C
2120
2122
2122
20FE
0000
ENDCHAR
STARTCHAR 0x8370
ENCODING 33648
SWIDTH 1000 0
DWIDTH 16 0
BBX 16 16 0 -2
BITMAP
1220
1FFC
1220
2490
2490
7FFC
A490
24F0
27FE
2040
2FF8
2160
2258
244E
2844
2040
ENDCHAR
STARTCHAR 0x8371
ENCODING 33649
SWIDTH 1000 0
DWIDTH 16 0
BBX 16 16 0 -2
BITMAP
1210
1210
2FBE
2338
66B4
AA56
3290
27FC
2000
2FFE
2040
2448
2644
2446
2944
2080
ENDCHAR
STARTCHAR 0x8372
ENCODING 33650
SWIDTH 1000 0
DWIDTH 16 0
BBX 16 16 0 -2
BITMAP
1000
1FFE
10A0
37FC
24A4
67FC
A208
23F8
2208
23F8
2208
23F8
2110
2188
220C
2408
ENDCHAR
STARTCHAR 0x8373
ENCODING 33651
SWIDTH 1000 0
DWIDTH 16 0
BBX 16 16 0 -2
BITMAP
1000
1BF0
1210
23F0
2000
77BC
A4A4
27BC
2040
2FFC
20C0
2160
2258
244E
2844
2040
ENDCHAR
STARTCHAR 0x8374
ENCODING 33652
SWIDTH 1000 0
DWIDTH 16 0
BBX 16 16 0 -2
BITMAP
1120
1920
17F8
2528
37F8
6528
A7F8
2000
2FFC
2000
27F8
2408
27F8
2210
2120
2FFE
ENDCHAR
STARTCHAR 0x8375
ENCODING 33653
SWIDTH 1000 0
DWIDTH 16 0
BBX 16 16 0 -2
BITMAP
1190
1E10
1212
2254
3FB8
6710
AAA8
2A44
3286
2104
2080
2A44
2A4A
2A0A
29F8
0000
ENDCHAR
STARTCHAR 0x8376
ENCODING 33654
SWIDTH 1000 0
DWIDTH 16 0
BBX 16 16 0 -2
BITMAP
1038
1BC8
148C
2250
37FE
6894
A548
2514
29F0
2200
23F0
2520
38C0
233C
2C08
2000
ENDCHAR
STARTCHAR 0x8377
ENCODING 33655
SWIDTH 1000 0
DWIDTH 16 0
BBX 16 16 0 -2
BITMAP
2080
3040
2FFE
2912
43F8
6110
A7F8
2110
2FFE
2250
2448
2BF6
2044
2040
2FFC
2000
ENDCHAR
STARTCHAR 0x8378
ENCODING 33656
SWIDTH 1000 0
DWIDTH 16 0
BBX 16 16 0 -2
BITMAP
1210
1920
17FC
3040
27FC
6040
AFFE
2028
2F24
2220
2FFE
2328
2E30
2252
2E8A
2406
ENDCHAR
STARTCHAR 0x8379
ENCODING 33657
SWIDTH 1000 0
DWIDTH 16 0
BBX 16 16 0 -2
BITMAP
1240
1BF8
1240
27F8
2A40
63F8
A240
23FC
2200
27BC
24A4
24E4
2404
2414
2408
0000
ENDCHAR
STARTCHAR 0x837A
ENCODING 33658
SWIDTH 1000 0
DWIDTH 16 0
BBX 16 16 0 -2
BITMAP
1120
1FF8
1528
27F8
3528
67F8
A000
27FC
2400
27F8
2400
27FE
2540
2930
2BDC
3108
ENDCHAR
STARTCHAR 0x837B
ENCODING 33659
SWIDTH 1000 0
DWIDTH 16 0
BBX 16 16 0 -2
BITMAP
1080
1840
17FE
3000
27FC
6524
A5E4
2404
27FC
2000
23F8
2288
2248
23F8
2000
2FFE
ENDCHAR
STARTCHAR 0x837C
ENCODING 33660
SWIDTH 1000 0
DWIDTH 16 0
BBX 16 16 0 -2
BITMAP
0880
0C40
0BFC
1110
17FE
3000
53F8
9208
13F8
1208
13F8
1000
1524
152A
190A
10F8
ENDCHAR
STARTCHAR 0x837D
ENCODING 33661
SWIDTH 1000 0
DWIDTH 16 0
BBX 16 16 0 -2
BITMAP
1448
1A4C
1150
27FE
2802
6BFC
A208
23F8
2000
27FC
2444
27FC
2444
27FC
2404
0000
ENDCHAR
STARTCHAR 0x837E
ENCODING 33662
SWIDTH 1000 0
DWIDTH 16 0
BBX 16 16 0 -2
BITMAP
1080
1880
1160
2618
3BF6
6000
A7FC
2554
24E4
27FC
2000
23F8
2208
23F8
2208
23F8
ENDCHAR
STARTCHAR 0x8380
ENCODING 33664
SWIDTH 1000 0
DWIDTH 16 0
BBX 16 16 0 -2
BITMAP
0840
0CA0
0910
1208
15F6
3800
57BC
94A4
14A4
17BC
1210
1210
1510
15A8
1944
1082
ENDCHAR
STARTCHAR 0x8381
ENCODING 33665
SWIDTH 1000 0
DWIDTH 16 0
BBX 16 16 0 -2
BITMAP
1110
1910
17BC
2310
25B8
6556
A910
27FE
2044
2240
227C
2240
2240
2540
24FE
2800
ENDCHAR
STARTCHAR 0x8382
ENCODING 33666
SWIDTH 1000 0
DWIDTH 16 0
BBX 16 16 0 -2
BITMAP
1110
1A18
1790
24A0
37BE
64A4
A7A4
2054
2FD4
2208
2388
2288
2498
2494
2AA6
3144
ENDCHAR
STARTCHAR 0x8383
ENCODING 33667
SWIDTH 1000 0
DWIDTH 16 0
BBX 16 16 0 -2
BITMAP
1040
1928
1694
256C
3494
654C
A7FC
2208
2484
39FA
2312
24A0
2840
21B0
260E
3804
ENDCHAR
STARTCHAR 0x8384
ENCODING 33668
SWIDTH 1000 0
DWIDTH 16 0
BBX 16 16 0 -2
BITMAP
1220
1A28
17A4
2220
3FFE
6220
AFA4
2AA6
2FA4
2A98
2F90
2212
3FAA
224A
2284
2200
ENDCHAR
STARTCHAR 0x8385
ENCODING 33669
SWIDTH 1000 0
DWIDTH 16 0
BBX 16 16 0 -2
BITMAP
1100
19DC
1104
13E4
2258
2698
6924
A244
2D48
20D0
2FFE
20E0
2150
2248
2446
2844
ENDCHAR
STARTCHAR 0x8386
ENCODING 33670
SWIDTH 1000 0
DWIDTH 16 0
BBX 16 16 0 -2
BITMAP
1040
1BFE
1454
2550
21CC
6258
A0E0
23F8
2608
2BF8
2208
23F8
2208
23F8
2110
2608
ENDCHAR
STARTCHAR 0x8387
ENCODING 33671
SWIDTH 1000 0
DWIDTH 16 0
BBX 16 16 0 -2
BITMAP
0000
13FC
1A04
13FC
2204
73FC
A210
24A4
27BC
2108
2294
27BC
2004
2528
2494
2894
ENDCHAR
STARTCHAR 0x8388
ENCODING 33672
SWIDTH 1000 0
DWIDTH 16 0
BBX 16 16 0 -2
BITMAP
1040
1840
17FC
2040
23F8
6000
AFFE
2802
23F4
2110
23F8
2040
27F8
2040
2FFE
2000
ENDCHAR
STARTCHAR 0x8389
ENCODING 33673
SWIDTH 1000 0
DWIDTH 16 0
BBX 16 16 0 -2
BITMAP
1080
1FFC
1080
27F8
2000
6FFE
A004
27F0
2080
2FFE
2008
2F7E
2928
2908
2F28
2010
ENDCHAR
STARTCHAR 0x838A
ENCODING 33674
SWIDTH 1000 0
DWIDTH 16 0
BBX 16 16 0 -2
BITMAP
1080
1FFE
1220
214C
2E90
6A98
AA94
2E9A
3010
2408
27F8
2408
27F8
2408
2808
3008
ENDCHAR
STARTCHAR 0x838B
ENCODING 33675
SWIDTH 1000 0
DWIDTH 16 0
BBX 16 16 0 -2
BITMAP
1010
1FD0
1510
27DE
2450
67D4
A522
2522
27C0
2000
27FC
24A4
24A4
24A4
2FFE
2000
ENDCHAR
STARTCHAR 0x838C
ENCODING 33676
SWIDTH 1000 0
DWIDTH 16 0
BBX 16 16 0 -2
BITMAP
1400
1D7E
1604
2498
2488
67FE
A812
2F9C
3250
225E
3FD0
2250
2550
28B0
331E
2004
ENDCHAR
STARTCHAR 0x838D
ENCODING 33677
SWIDTH 1000 0
DWIDTH 16 0
BBX 16 16 0 -2
BITMAP
1080
1880
17F8
3088
27FE
6088
A7F8
2080
2FFC
2248
2924
3124
27F8
2528
2528
3FFE
ENDCHAR
STARTCHAR 0x838E
ENCODING 33678
SWIDTH 1000 0
DWIDTH 16 0
BBX 16 16 0 -2
BITMAP
1020
19FC
1124
21FC
2020
6BFE
A000
2DFC
2504
25FC
2500
25FC
2504
25FC
2A00
31FE
ENDCHAR
STARTCHAR 0x838F
ENCODING 33679
SWIDTH 1000 0
DWIDTH 16 0
BBX 16 16 0 -2
BITMAP
1090
1FFE
1090
13FC
22A4
33FC
5000
93FE
1282
14FC
1108
1290
1C60
10C0
1300
1C00
ENDCHAR
STARTCHAR 0x8390
ENCODING 33680
SWIDTH 1000 0
DWIDTH 16 0
BBX 16 16 0 -2
BITMAP
1400
17FC
2D50
2550
4FFC
6550
A550
3FFE
2410
2FFC
28D0
3550
237E
2210
2410
2810
ENDCHAR
STARTCHAR 0x8391
ENCODING 33681
SWIDTH 1000 0
DWIDTH 16 0
BBX 16 16 0 -2
BITMAP
1080
17FE
1444
2B28
252C
61F8
A000
27F8
2528
2FFE
2000
27FC
2040
2040
2140
2080
ENDCHAR
STARTCHAR 0x8392
ENCODING 33682
SWIDTH 1000 0
DWIDTH 16 0
BBX 16 16 0 -2
BITMAP
1110
1D54
13B8
3110
3198
52A2
1400
17FE
1444
1040
13FC
1150
1148
1246
1440
1040
ENDCHAR
STARTCHAR 0x8393
ENCODING 33683
SWIDTH 1000 0
DWIDTH 16 0
BBX 16 16 0 -2
BITMAP
1004
1FFE
1158
2244
6FFE
A444
26EC
2554
26EC
2444
26EC
2554
26EC
2444
244C
0000
ENDCHAR
STARTCHAR 0x8394
ENCODING 33684
SWIDTH 1000 0
DWIDTH 16 0
BBX 16 16 0 -2
BITMAP
1248
1954
17FE
2404
2BF8
6210
A3F0
2000
23F8
2208
2388
2278
2208
23F8
2110
260C
ENDCHAR
STARTCHAR 0x8395
ENCODING 33685
SWIDTH 1000 0
DWIDTH 16 0
BBX 16 16 0 -2
BITMAP
1128
1A4C
1490
2248
6FFC
AA28
29C8
2A28
2FF8
2888
2CC8
2AA8
2C88
2AAA
3DCA
2886
ENDCHAR
STARTCHAR 0x8396
ENCODING 33686
SWIDTH 1000 0
DWIDTH 16 0
BBX 16 16 0 -2
BITMAP
0840
0C7C
1840
17FE
2444
75F0
A448
2438
25FC
2524
25FC
2524
25FC
2AA2
2AAA
34F8
ENDCHAR
STARTCHAR 0x8397
ENCODING 33687
SWIDTH 1000 0
DWIDTH 16 0
BBX 16 16 0 -2
BITMAP
1040
1820
17FE
2490
37FC
6490
A7FE
2420
25FC
2524
25FC
2524
25FC
2888
2986
3204
ENDCHAR
STARTCHAR 0x8398
ENCODING 33688
SWIDTH 1000 0
DWIDTH 16 0
BBX 16 16 0 -2
BITMAP
13F8
1A08
13F8
2208
33F8
6110
A7FC
2110
2FFE
2250
2C4E
3254
2160
2658
2148
2080
ENDCHAR
STARTCHAR 0x8399
ENCODING 33689
SWIDTH 1000 0
DWIDTH 16 0
BBX 16 16 0 -2
BITMAP
1040
1FFC
1040
23F8
3000
67FC
A4A4
27FC
2208
23F8
2208
23F8
2208
23F8
21B0
260C
ENDCHAR
STARTCHAR 0x839A
ENCODING 33690
SWIDTH 1000 0
DWIDTH 16 0
BBX 16 16 0 -2
BITMAP
1040
1820
17FE
2490
27FC
7494
A7FC
2514
25D6
2518
25D2
250E
2828
2A94
3452
2000
ENDCHAR
STARTCHAR 0x839B
ENCODING 33691
SWIDTH 1000 0
DWIDTH 16 0
BBX 16 16 0 -2
BITMAP
1210
1A10
17BC
2210
2FFE
6318
A4A4
3BF8
2308
23F8
2208
23F8
2208
23F8
21B0
260C
ENDCHAR
STARTCHAR 0x839C
ENCODING 33692
SWIDTH 1000 0
DWIDTH 16 0
BBX 16 16 0 -2
BITMAP
10C6
1B18
1420
27BE
3524
6944
ABFC
3208
23F8
2208
23F8
2208
23F8
2110
230C
2408
ENDCHAR
STARTCHAR 0x839D
ENCODING 33693
SWIDTH 1000 0
DWIDTH 16 0
BBX 16 16 0 -2
BITMAP
2000
3F7C
2944
497C
4F44
C944
4F7C
4940
497E
4FAA
404A
4A92
5122
6154
4008
0000
ENDCHAR
STARTCHAR 0x839E
ENCODING 33694
SWIDTH 1000 0
DWIDTH 16 0
BBX 16 16 0 -2
BITMAP
17FC
1880
13F8
2208
33F8
6208
A7FE
2944
2528
24F8
21F0
2310
24A0
2840
21B0
2E0C
ENDCHAR
STARTCHAR 0x839F
ENCODING 33695
SWIDTH 1000 0
DWIDTH 16 0
BBX 16 16 0 -2
BITMAP
1080
1840
17FE
2110
21F0
6000
A7FE
2802
23F8
20C0
235C
2CA0
2350
2CA8
2326
2CC0
ENDCHAR
STARTCHAR 0x83A0
ENCODING 33696
SWIDTH 1000 0
DWIDTH 16 0
BBX 16 16 0 -2
BITMAP
1200
123C
1FA4
223C
2F24
6224
BFFC
2024
2FA4
28BC
2F98
2898
2FAA
28AA
2AC6
2900
ENDCHAR
STARTCHAR 0x83A1
ENCODING 33697
SWIDTH 1000 0
DWIDTH 16 0
BBX 16 16 0 -2
BITMAP
2400
327C
2F44
4044
497C
C644
5F7C
4444
4444
5F7C
4428
5628
654A
454A
548E
4900
ENDCHAR
STARTCHAR 0x83A2
ENCODING 33698
SWIDTH 1000 0
DWIDTH 16 0
BBX 16 16 0 -2
BITMAP
1000
1FFE
1444
27B8
6488
A7FE
25D8
26AC
268A
2420
2520
253C
2920
2920
37FE
0000
ENDCHAR
STARTCHAR 0x83A3
ENCODING 33699
SWIDTH 1000 0
DWIDTH 16 0
BBX 16 16 0 -2
BITMAP
1248
1950
17FC
3080
2FFE
6310
A608
2BFE
3240
23F8
2240
23FC
2014
254C
2954
2008
ENDCHAR
STARTCHAR 0x83A4
ENCODING 33700
SWIDTH 1000 0
DWIDTH 16 0
BBX 16 16 0 -2
BITMAP
1120
1FFC
1120
2078
2FD0
648C
A3F0
2210
23F8
2408
27FC
2414
2AAC
2AA4
2A14
3008
ENDCHAR
STARTCHAR 0x83A5
ENCODING 33701
SWIDTH 1000 0
DWIDTH 16 0
BBX 16 16 0 -2
BITMAP
1420
1A20
2FBC
2520
653C
AF84
203C
2FA0
28BC
2FA0
28BC
2FA0
28BC
28A0
2AA2
291E
ENDCHAR
STARTCHAR 0x83A6
ENCODING 33702
SWIDTH 1000 0
DWIDTH 16 0
BBX 16 16 0 -2
BITMAP
1010
1A10
2214
2F7E
6014
AF18
207E
2F20
207C
20C4
2F44
297C
2944
2944
2F7C
2044
ENDCHAR
STARTCHAR 0x83A7
ENCODING 33703
SWIDTH 1000 0
DWIDTH 16 0
BBX 16 16 0 -2
BITMAP
1100
19F8
1210
27F8
6408
A7F8
2420
27BC
2520
27FC
2A10
27F8
2488
27F8
212A
263E
ENDCHAR
STARTCHAR 0x83A8
ENCODING 33704
SWIDTH 1000 0
DWIDTH 16 0
BBX 16 16 0 -2
BITMAP
1080
1FFC
1000
27BC
74A4
A7BC
2120
2FFC
2120
2FFC
2120
2FFC
2320
2E10
3A8E
2304
ENDCHAR
STARTCHAR 0x83A9
ENCODING 33705
SWIDTH 1000 0
DWIDTH 16 0
BBX 16 16 0 -2
BITMAP
1100
19FC
1188
2270
298C
6FFE
A924
29AC
2974
29FC
2820
29FC
2820
2BFE
2154
2252
ENDCHAR
STARTCHAR 0x83AA
ENCODING 33706
SWIDTH 1000 0
DWIDTH 16 0
BBX 16 16 0 -2
BITMAP
1244
1A44
13FC
3220
23FC
6620
ABFC
2220
23FE
2000
23FE
228A
228A
22FA
220A
2204
ENDCHAR
STARTCHAR 0x83AB
ENCODING 33707
SWIDTH 1000 0
DWIDTH 16 0
BBX 16 16 0 -2
BITMAP
17BE
1800
17BC
26B4
35AC
64A4
A040
27FE
2490
27FC
2494
2BFC
2A20
2BBC
2AA2
331E
ENDCHAR
STARTCHAR 0x83AC
ENCODING 33708
SWIDTH 1000 0
DWIDTH 16 0
BBX 16 16 0 -2
BITMAP
1000
1FFE
1492
2492
27FE
6250
A548
2F7E
22C8
257C
2FC8
20FE
2A48
2A48
327E
2040
ENDCHAR
STARTCHAR 0x83AD
ENCODING 33709
SWIDTH 1000 0
DWIDTH 16 0
BBX 16 16 0 -2
BITMAP
2A50
3F7C
2A50
3FFC
2628
6AAA
AB4E
37F8
2408
27F8
2408
27F8
2408
27F8
2330
2C0C
ENDCHAR
STARTCHAR 0x83AE
ENCODING 33710
SWIDTH 1000 0
DWIDTH 16 0
BBX 16 16 0 -2
BITMAP
1500
1528
1FA8
253E
2768
6228
AFBE
2AA8
2FA8
2228
2FBE
2228
2FA8
253E
28A0
30A0
ENDCHAR
STARTCHAR 0x83AF
ENCODING 33711
SWIDTH 1000 0
DWIDTH 16 0
BBX 16 16 0 -2
BITMAP
1248
1950
17FE
250A
61F8
A000
27FC
2554
24E4
27FC
2040
27FC
2040
2FFE
2524
2924
ENDCHAR
STARTCHAR 0x83B0
ENCODING 33712
SWIDTH 1000 0
DWIDTH 16 0
BBX 16 16 0 -2
BITMAP
17BC
1CA4
17BC
2000
2FFE
6BD0
A890
2FFE
2A54
2A74
2BC8
2A68
2BC8
2E54
3062
2042
ENDCHAR
STARTCHAR 0x83B1
ENCODING 33713
SWIDTH 1000 0
DWIDTH 16 0
BBX 16 16 0 -2
BITMAP
13F8
1A48
13F8
2248
2FFE
6AAA
AFBE
2AAA
2FBE
2098
23F0
2198
27E4
2250
2D4C
2088
ENDCHAR
STARTCHAR 0x83B2
ENCODING 33714
SWIDTH 1000 0
DWIDTH 16 0
BBX 16 16 0 -2
BITMAP
1040
1FFE
1040
17FC
2444
2FFE
6AAA
A3B8
2110
27FC
2110
2FFE
2224
26A8
2B18
220E
ENDCHAR
STARTCHAR 0x83B3
ENCODING 33715
SWIDTH 1000 0
DWIDTH 16 0
BBX 16 16 0 -2
BITMAP
0100
0100
3FF8
1100
1900
1100
2100
7FFC
0280
0280
0480
0482
0882
1082
207E
4000
ENDCHAR
STARTCHAR 0x83B4
ENCODING 33716
SWIDTH 1000 0
DWIDTH 16 0
BBX 16 16 0 -2
BITMAP
0040
2460
2288
2108
2288
2468
2848
3FF8
2448
0440
0440
0840
0842
1042
203E
4000
ENDCHAR
STARTCHAR 0x83B5
ENCODING 33717
SWIDTH 1000 0
DWIDTH 16 0
BBX 16 16 0 -2
BITMAP
0440
0640
0820
1318
224E
C424
0FF0
0010
0440
0440
0440
0440
0844
0844
103C
2000
ENDCHAR
STARTCHAR 0x83B6
ENCODING 33718
SWIDTH 1000 0
DWIDTH 16 0
BBX 16 16 0 -2
BITMAP
0440
0420
0818
100E
3FF4
5010
1010
1010
1FF0
1250
0240
0440
0442
0842
103E
2000
ENDCHAR
STARTCHAR 0x83B7
ENCODING 33719
SWIDTH 1000 0
DWIDTH 16 0
BBX 16 16 0 -2
BITMAP
0038
3FC0
0100
0100
1FF8
1108
1108
1FF8
1288
02A0
0290
0498
0492
0882
107E
6000
ENDCHAR
STARTCHAR 0x83B8
ENCODING 33720
SWIDTH 1000 0
DWIDTH 16 0
BBX 16 16 0 -2
BITMAP
0004
3FFE
2080
2080
20F8
2080
2080
2FFE
2240
2240
2240
2240
4442
4442
883E
1000
ENDCHAR
STARTCHAR 0x83B9
ENCODING 33721
SWIDTH 1000 0
DWIDTH 16 0
BBX 16 16 0 -2
BITMAP
0000
23F8
2208
23F8
2208
2208
23F8
2208
0840
0840
0840
0840
1042
1042
203E
4000
ENDCHAR
STARTCHAR 0x83BA
ENCODING 33722
SWIDTH 1000 0
DWIDTH 16 0
BBX 16 16 0 -2
BITMAP
0300
3CF8
2008
2008
3EF8
2008
2008
3FF8
2448
0440
0440
0842
0842
1042
203E
4000
ENDCHAR
STARTCHAR 0x83BB
ENCODING 33723
SWIDTH 1000 0
DWIDTH 16 0
BBX 16 16 0 -2
BITMAP
0000
0000
7EFE
0810
2890
2890
7EFE
0820
1820
1450
1450
2550
2692
4D12
860E
0000
ENDCHAR
STARTCHAR 0x83BC
ENCODING 33724
SWIDTH 1000 0
DWIDTH 16 0
BBX 16 16 0 -2
BITMAP
0100
0080
7FFE
0810
180C
2FF6
4814
0810
0FF0
0A40
0240
0440
0444
0844
103C
6000
ENDCHAR
STARTCHAR 0x83BD
ENCODING 33725
SWIDTH 1000 0
DWIDTH 16 0
BBX 16 16 0 -2
BITMAP
0020
7E20
0050
0048
0086
FF7A
2400
24F8
2488
2488
2488
24FA
248A
4402
43FE
8000
ENDCHAR
STARTCHAR 0x83BE
ENCODING 33726
SWIDTH 1000 0
DWIDTH 16 0
BBX 16 16 0 -2
BITMAP
0810
0810
FF90
0810
0810
7FFE
4110
4110
7F10
1410
1410
1410
2412
2402
43FE
8000
ENDCHAR
STARTCHAR 0x83BF
ENCODING 33727
SWIDTH 1000 0
DWIDTH 16 0
BBX 16 16 0 -2
BITMAP
0808
081C
7FE0
0820
3E20
2220
23FE
2220
3E20
1420
1420
1422
2422
2402
43FE
8000
ENDCHAR
STARTCHAR 0x83C0
ENCODING 33728
SWIDTH 1000 0
DWIDTH 16 0
BBX 16 16 0 -2
BITMAP
0848
086C
7F48
0844
3E84
2282
237A
2248
3E48
1448
1488
2538
2612
4402
83FE
0000
ENDCHAR
STARTCHAR 0x83C1
ENCODING 33729
SWIDTH 1000 0
DWIDTH 16 0
BBX 16 16 0 -2
BITMAP
0800
0808
7F3C
08E0
0820
3E3C
23E0
2220
3E3C
15E0
1424
2424
241C
4402
83FE
0000
ENDCHAR
STARTCHAR 0x83C2
ENCODING 33730
SWIDTH 1000 0
DWIDTH 16 0
BBX 16 16 0 -2
BITMAP
0820
4920
4920
7FFC
4920
8A20
0A20
FFFE
2450
2450
2450
2492
4692
4D12
820E
0000
ENDCHAR
STARTCHAR 0x83C3
ENCODING 33731
SWIDTH 1000 0
DWIDTH 16 0
BBX 16 16 0 -2
BITMAP
0100
1210
17D4
1456
F7D8
1450
1452
37D2
D00E
0440
0440
0440
0842
0842
103E
2000
ENDCHAR
STARTCHAR 0x83C4
ENCODING 33732
SWIDTH 1000 0
DWIDTH 16 0
BBX 16 16 0 -2
BITMAP
1000
10FC
FE20
1020
7EF8
4288
4288
4288
7EF8
2488
2488
24F8
248A
4402
43FE
8000
ENDCHAR
STARTCHAR 0x83C5
ENCODING 33733
SWIDTH 1000 0
DWIDTH 16 0
BBX 16 16 0 -2
BITMAP
1000
11FE
FD00
117C
7D54
457C
4554
457C
7D10
2AFC
2A10
2BFE
2C02
4802
87FE
0000
ENDCHAR
STARTCHAR 0x83C6
ENCODING 33734
SWIDTH 1000 0
DWIDTH 16 0
BBX 16 16 0 -2
BITMAP
1020
1410
97FE
5550
59FC
1148
FDFE
2920
29FC
2AA4
2AFC
2AA4
2AFC
4C52
488A
87FE
ENDCHAR
STARTCHAR 0x83C7
ENCODING 33735
SWIDTH 1000 0
DWIDTH 16 0
BBX 16 16 0 -2
BITMAP
0300
2100
2080
2080
2140
2140
2220
2210
2418
280E
3004
2000
7FFE
2000
0000
0000
ENDCHAR
STARTCHAR 0x83C8
ENCODING 33736
SWIDTH 1000 0
DWIDTH 16 0
BBX 16 16 0 -2
BITMAP
0700
0100
0100
3FF8
2108
2108
2108
2188
2248
2468
2838
3028
2008
2028
2010
0000
ENDCHAR
STARTCHAR 0x83C9
ENCODING 33737
SWIDTH 1000 0
DWIDTH 16 0
BBX 16 16 0 -2
BITMAP
0004
7FFE
0100
0100
7FFC
4104
5144
4924
4D34
555C
5594
6104
4104
4114
4108
0000
ENDCHAR
STARTCHAR 0x83CA
ENCODING 33738
SWIDTH 1000 0
DWIDTH 16 0
BBX 16 16 0 -2
BITMAP
0100
0280
0640
0830
3FEE
C004
3E28
222C
3E48
2290
3F20
2290
2248
2A24
2424
0000
ENDCHAR
STARTCHAR 0x83CB
ENCODING 33739
SWIDTH 1000 0
DWIDTH 16 0
BBX 16 16 0 -2
BITMAP
1020
0830
0C20
0440
7FFC
0104
0104
0104
0104
0104
011C
0108
0100
0100
0100
0100
ENDCHAR
STARTCHAR 0x83CC
ENCODING 33740
SWIDTH 1000 0
DWIDTH 16 0
BBX 16 16 0 -2
BITMAP
0000
3FFC
0100
0110
1FF8
0100
0104
FFFE
0000
0440
0640
0C20
1810
3018
400E
8004
ENDCHAR
STARTCHAR 0x83CD
ENCODING 33741
SWIDTH 1000 0
DWIDTH 16 0
BBX 16 16 0 -2
BITMAP
0440
0C20
1018
2FEE
4424
0420
08A0
1040
2088
3E9C
22E0
2280
2284
2284
3E7C
0000
ENDCHAR
STARTCHAR 0x83CE
ENCODING 33742
SWIDTH 1000 0
DWIDTH 16 0
BBX 16 16 0 -2
BITMAP
0440
0830
1FFE
2914
CFF0
0910
0FF0
0440
3FFC
0440
0444
FFFE
0420
1818
700C
2008
ENDCHAR
STARTCHAR 0x83CF
ENCODING 33743
SWIDTH 1000 0
DWIDTH 16 0
BBX 16 16 0 -2
BITMAP
0820
0440
FFFE
0840
7EF8
0848
1CC8
686A
098A
3FF6
0000
FFFC
0820
1010
3FF8
1010
ENDCHAR
STARTCHAR 0x83D0
ENCODING 33744
SWIDTH 1000 0
DWIDTH 16 0
BBX 16 16 0 -2
BITMAP
0000
3FFC
2004
2004
2FF4
2004
2004
2004
2FF4
2004
2004
2004
2004
201C
2008
0000
ENDCHAR
STARTCHAR 0x83D1
ENCODING 33745
SWIDTH 1000 0
DWIDTH 16 0
BBX 16 16 0 -2
BITMAP
0000
1FF8
1008
1008
1008
7FFE
1008
1008
1008
FFFE
1008
1008
1008
1008
1028
1010
ENDCHAR
STARTCHAR 0x83D2
ENCODING 33746
SWIDTH 1000 0
DWIDTH 16 0
BBX 16 16 0 -2
BITMAP
0000
3FF8
2108
2108
2108
2108
2108
3FF8
2008
2008
2008
2008
2008
2028
2010
0000
ENDCHAR
STARTCHAR 0x83D3
ENCODING 33747
SWIDTH 1000 0
DWIDTH 16 0
BBX 16 16 0 -2
BITMAP
0100
0100
FFFE
0200
0400
0FF0
1C10
3410
4410
8410
0410
0410
0410
0410
0450
0420
ENDCHAR
STARTCHAR 0x83D4
ENCODING 33748
SWIDTH 1000 0
DWIDTH 16 0
BBX 16 16 0 -2
BITMAP
0000
3FFC
2244
2244
2244
2244
2244
FFFE
2244
2244
2244
2244
2244
2254
2248
0000
ENDCHAR
STARTCHAR 0x83D5
ENCODING 33749
SWIDTH 1000 0
DWIDTH 16 0
BBX 16 16 0 -2
BITMAP
0000
3FFC
2004
2004
2004
27E4
2424
2424
2424
2424
27E4
2004
2004
2014
2008
0000
ENDCHAR
STARTCHAR 0x83D6
ENCODING 33750
SWIDTH 1000 0
DWIDTH 16 0
BBX 16 16 0 -2
BITMAP
0000
0FF0
0810
0F90
0890
0890
0890
3FFC
2004
2004
2004
2004
2004
2004
2014
2008
ENDCHAR
STARTCHAR 0x83D7
ENCODING 33751
SWIDTH 1000 0
DWIDTH 16 0
BBX 16 16 0 -2
BITMAP
0000
7FFC
4004
4444
4624
4834
7014
4FE4
4824
4824
4FE4
4824
4004
4014
4008
0000
ENDCHAR
STARTCHAR 0x83D8
ENCODING 33752
SWIDTH 1000 0
DWIDTH 16 0
BBX 16 16 0 -2
BITMAP
3FFC
2004
2FF4
2004
2FF4
0000
1FF8
1008
1FF8
1008
1008
1FF8
1008
1028
1010
0000
ENDCHAR
STARTCHAR 0x83D9
ENCODING 33753
SWIDTH 1000 0
DWIDTH 16 0
BBX 16 16 0 -2
BITMAP
0100
3FFC
2104
3FFC
2104
3FFC
0000
1FF8
1008
17E8
1008
1008
17E8
1008
1028
1010
ENDCHAR
STARTCHAR 0x83DA
ENCODING 33754
SWIDTH 1000 0
DWIDTH 16 0
BBX 16 16 0 -2
BITMAP
0440
7FFC
0440
3FF8
0440
7FFE
0100
1FF0
1110
1FF0
1110
FFFE
1010
1010
1050
1020
ENDCHAR
STARTCHAR 0x83DB
ENCODING 33755
SWIDTH 1000 0
DWIDTH 16 0
BBX 16 16 0 -2
BITMAP
3FFC
2004
2FF4
2004
2FF4
0000
01FC
3E20
2220
23FC
2220
2220
3E20
0020
00A0
0040
ENDCHAR
STARTCHAR 0x83DC
ENCODING 33756
SWIDTH 1000 0
DWIDTH 16 0
BBX 16 16 0 -2
BITMAP
0100
0100
0104
3FFE
2104
4108
0100
0100
0280
0280
0480
0482
0882
1082
207E
4000
ENDCHAR
STARTCHAR 0x83DD
ENCODING 33757
SWIDTH 1000 0
DWIDTH 16 0
BBX 16 16 0 -2
BITMAP
0000
3FFE
2004
4108
0100
0100
2108
2108
2108
2108
2108
2108
2108
3FF8
0008
0000
ENDCHAR
STARTCHAR 0x83DE
ENCODING 33758
SWIDTH 1000 0
DWIDTH 16 0
BBX 16 16 0 -2
BITMAP
0000
3FFC
2004
4008
0FF0
0810
0810
0FF0
0810
0810
0FF0
0810
0810
FFFE
0000
0000
ENDCHAR
STARTCHAR 0x83DF
ENCODING 33759
SWIDTH 1000 0
DWIDTH 16 0
BBX 16 16 0 -2
BITMAP
0000
3FFE
2104
5128
0920
0940
0108
7FFC
0380
0540
0920
1118
210E
4104
0100
0000
ENDCHAR
STARTCHAR 0x83E0
ENCODING 33760
SWIDTH 1000 0
DWIDTH 16 0
BBX 16 16 0 -2
BITMAP
0000
3FFE
2204
4408
1FF0
1010
1FF0
1010
1FF0
0000
10F0
1F04
1004
1006
0FFC
0000
ENDCHAR
STARTCHAR 0x83E1
ENCODING 33761
SWIDTH 1000 0
DWIDTH 16 0
BBX 16 16 0 -2
BITMAP
2004
3FFE
4004
5FE8
0000
3FFC
0310
0638
1B20
6540
09A0
1290
6498
188E
E284
0100
ENDCHAR
STARTCHAR 0x83E2
ENCODING 33762
SWIDTH 1000 0
DWIDTH 16 0
BBX 16 16 0 -2
BITMAP
0000
FFFE
8002
0000
7FFC
2200
2200
3FF8
2288
3E88
2250
2250
2720
FA58
428E
0304
ENDCHAR
STARTCHAR 0x83E3
ENCODING 33763
SWIDTH 1000 0
DWIDTH 16 0
BBX 16 16 0 -2
BITMAP
0000
3FFE
4004
7E20
003C
0020
7FF8
1408
1488
1450
1430
244C
2482
43FE
8000
0000
ENDCHAR
STARTCHAR 0x83E4
ENCODING 33764
SWIDTH 1000 0
DWIDTH 16 0
BBX 16 16 0 -2
BITMAP
0000
3FFE
2824
4828
0820
7FFC
1820
1870
2CB0
2AA8
4924
4A26
8C24
0820
0820
0000
ENDCHAR
STARTCHAR 0x83E5
ENCODING 33765
SWIDTH 1000 0
DWIDTH 16 0
BBX 16 16 0 -2
BITMAP
0000
3FFE
2004
5FF8
0000
0FE0
0820
0FE0
0000
3FF8
2108
3FF8
2108
2108
3FF8
0000
ENDCHAR
STARTCHAR 0x83E6
ENCODING 33766
SWIDTH 1000 0
DWIDTH 16 0
BBX 16 16 0 -2
BITMAP
7FFC
4004
BEF8
2010
3EF0
2010
3FF0
1000
1FFC
2004
C944
2524
24A4
4084
0028
0010
ENDCHAR
STARTCHAR 0x83E7
ENCODING 33767
SWIDTH 1000 0
DWIDTH 16 0
BBX 16 16 0 -2
BITMAP
7FFE
4844
9FF0
0840
1FF0
1210
1110
1FF0
0200
FFFE
1930
2FEE
4924
8920
0960
0100
ENDCHAR
STARTCHAR 0x83E8
ENCODING 33768
SWIDTH 1000 0
DWIDTH 16 0
BBX 16 16 0 -2
BITMAP
0100
0100
0100
7FFC
0280
0440
0830
1218
218E
40C4
0080
0000
0070
0380
1C00
0000
ENDCHAR
STARTCHAR 0x83E9
ENCODING 33769
SWIDTH 1000 0
DWIDTH 16 0
BBX 16 16 0 -2
BITMAP
0000
4000
27FC
3040
2040
0840
0840
1040
1040
E040
2040
2040
2044
2FFE
0000
0000
ENDCHAR
STARTCHAR 0x83EA
ENCODING 33770
SWIDTH 1000 0
DWIDTH 16 0
BBX 16 16 0 -2
BITMAP
0000
43FC
3010
2910
0910
0A14
13FE
1030
2050
E090
2110
2210
2410
28F0
2020
0000
ENDCHAR
STARTCHAR 0x83EB
ENCODING 33771
SWIDTH 1000 0
DWIDTH 16 0
BBX 16 16 0 -2
BITMAP
0040
4448
224C
3348
2A50
0844
17FE
1040
1040
EFFE
2040
2040
2040
2040
2040
2040
ENDCHAR
STARTCHAR 0x83EC
ENCODING 33772
SWIDTH 1000 0
DWIDTH 16 0
BBX 16 16 0 -2
BITMAP
0080
80A0
4098
6090
4FFE
1100
1100
11FC
2288
E290
2260
2460
2498
290E
3204
2000
ENDCHAR
STARTCHAR 0x83ED
ENCODING 33773
SWIDTH 1000 0
DWIDTH 16 0
BBX 16 16 0 -2
BITMAP
0000
87F8
6408
2408
17F8
1448
1440
27F8
2440
C420
4420
4492
4512
4E0A
4404
0000
ENDCHAR
STARTCHAR 0x83EE
ENCODING 33774
SWIDTH 1000 0
DWIDTH 16 0
BBX 16 16 0 -2
BITMAP
0040
4040
20A0
3110
1208
0406
1BF8
1000
1000
23F8
E208
2208
2208
23F8
2208
0000
ENDCHAR
STARTCHAR 0x83EF
ENCODING 33775
SWIDTH 1000 0
DWIDTH 16 0
BBX 16 16 0 -2
BITMAP
0080
8080
67F8
2088
07FE
1088
17F8
1080
2080
27F8
E080
2084
2FFE
2080
2080
2080
ENDCHAR
STARTCHAR 0x83F0
ENCODING 33776
SWIDTH 1000 0
DWIDTH 16 0
BBX 16 16 0 -2
BITMAP
0040
4044
37FE
2040
03F8
1248
1248
13F8
2248
E0E0
2150
2248
2446
2844
2040
0000
ENDCHAR
STARTCHAR 0x83F1
ENCODING 33777
SWIDTH 1000 0
DWIDTH 16 0
BBX 16 16 0 -2
BITMAP
0100
8100
41F8
2210
0220
17F8
1248
1248
23F8
E2A8
20A0
20A0
2122
2222
2C1E
2000
ENDCHAR
STARTCHAR 0x83F2
ENCODING 33778
SWIDTH 1000 0
DWIDTH 16 0
BBX 16 16 0 -2
BITMAP
0040
4040
20A0
3110
2A0C
0FFE
1040
1040
17FE
E040
2258
2344
2246
2442
2940
2080
ENDCHAR
STARTCHAR 0x83F3
ENCODING 33779
SWIDTH 1000 0
DWIDTH 16 0
BBX 16 16 0 -2
BITMAP
87FC
4444
6444
4444
17F4
1444
1444
25F4
2514
E514
25F4
2514
2404
27FC
2404
0000
ENDCHAR
STARTCHAR 0x83F4
ENCODING 33780
SWIDTH 1000 0
DWIDTH 16 0
BBX 16 16 0 -2
BITMAP
0070
4F90
2918
2490
04A0
17F8
1088
1FFE
2088
E088
2FF8
2080
2080
2080
2280
2100
ENDCHAR
STARTCHAR 0x83F5
ENCODING 33781
SWIDTH 1000 0
DWIDTH 16 0
BBX 16 16 0 -2
BITMAP
0040
87FC
6040
37F8
2040
0FFE
2000
23F8
2208
E3F8
4208
43F8
4208
4228
4210
0000
ENDCHAR
STARTCHAR 0x83F6
ENCODING 33782
SWIDTH 1000 0
DWIDTH 16 0
BBX 16 16 0 -2
BITMAP
0040
8040
6FFE
2040
13F8
1248
13F8
2248
2248
E3F8
42C8
4160
4258
444E
4844
5040
ENDCHAR
STARTCHAR 0x83F7
ENCODING 33783
SWIDTH 1000 0
DWIDTH 16 0
BBX 16 16 0 -2
BITMAP
0040
4040
20A0
3110
2A0C
0FFE
1040
1040
27FC
2040
E448
224C
2348
2250
2FFE
2000
ENDCHAR
STARTCHAR 0x83F8
ENCODING 33784
SWIDTH 1000 0
DWIDTH 16 0
BBX 16 16 0 -2
BITMAP
0004
4FFE
20A0
30A0
27FC
04A4
24A4
27FC
2444
2040
C7FC
4040
4040
4040
4FFE
0000
ENDCHAR
STARTCHAR 0x83F9
ENCODING 33785
SWIDTH 1000 0
DWIDTH 16 0
BBX 16 16 0 -2
BITMAP
0040
4444
2444
37FC
2000
0FFE
2000
27F8
2408
E7F8
4000
4210
4210
4120
4FFE
4000
ENDCHAR
STARTCHAR 0x83FA
ENCODING 33786
SWIDTH 1000 0
DWIDTH 16 0
BBX 16 16 0 -2
BITMAP
0004
4FFE
20A0
37FC
24A4
04A4
27FC
2440
2044
DFFE
4160
4250
4458
484E
5044
4040
ENDCHAR
STARTCHAR 0x83FB
ENCODING 33787
SWIDTH 1000 0
DWIDTH 16 0
BBX 16 16 0 -2
BITMAP
0080
40C0
2130
329C
1448
0BF8
2288
2248
23F8
2200
C7FC
4608
4A08
53F8
6208
4000
ENDCHAR
STARTCHAR 0x83FC
ENCODING 33788
SWIDTH 1000 0
DWIDTH 16 0
BBX 16 16 0 -2
BITMAP
0000
87FE
4404
2BF8
3208
23F8
0208
23F8
2080
2040
CFFE
4220
4310
4618
4C0C
5008
ENDCHAR
STARTCHAR 0x83FD
ENCODING 33789
SWIDTH 1000 0
DWIDTH 16 0
BBX 16 16 0 -2
BITMAP
0240
4320
2BFE
2E20
13FC
1220
63FC
2220
23FE
2280
0080
7FFE
0080
0080
0080
0080
ENDCHAR
STARTCHAR 0x83FE
ENCODING 33790
SWIDTH 1000 0
DWIDTH 16 0
BBX 16 16 0 -2
BITMAP
0040
4444
2444
37FC
2240
1240
17FC
2C40
F7FC
2440
27FC
2440
2440
27FE
2400
0000
ENDCHAR
STARTCHAR 0x8440
ENCODING 33856
SWIDTH 1000 0
DWIDTH 16 0
BBX 16 16 0 -2
BITMAP
0480
4486
2FD8
3490
2790
049E
1494
1794
2494
2FD4
C514
44A4
48A4
4844
5084
0000
ENDCHAR
STARTCHAR 0x8441
ENCODING 33857
SWIDTH 1000 0
DWIDTH 16 0
BBX 16 16 0 -2
BITMAP
47FC
2524
3524
27FC
1040
17F8
1040
27FC
2110
E0A0
47FC
4040
4FFE
4040
4040
4040
ENDCHAR
STARTCHAR 0x8442
ENCODING 33858
SWIDTH 1000 0
DWIDTH 16 0
BBX 16 16 0 -2
BITMAP
0210
8210
6F7E
3630
2758
1AD6
1292
27F8
2000
CFFC
4240
4350
464C
4444
4940
4080
ENDCHAR
STARTCHAR 0x8443
ENCODING 33859
SWIDTH 1000 0
DWIDTH 16 0
BBX 16 16 0 -2
BITMAP
0040
8FFE
4000
47FC
1514
15F4
1404
27FC
2000
E078
27C0
2040
2FFE
2250
2248
2448
ENDCHAR
STARTCHAR 0x8444
ENCODING 33860
SWIDTH 1000 0
DWIDTH 16 0
BBX 16 16 0 -2
BITMAP
0000
0BFC
4A94
4A94
2BD4
2A5C
0A50
2BD0
3A92
2A92
4BCE
4008
8A44
0926
11B2
1120
ENDCHAR
STARTCHAR 0x8445
ENCODING 33861
SWIDTH 1000 0
DWIDTH 16 0
BBX 16 16 0 -2
BITMAP
0040
87FE
4040
23F8
3000
07FC
14A4
17FC
1208
E3F8
2208
23F8
2208
23F8
21B0
260C
ENDCHAR
STARTCHAR 0x8446
ENCODING 33862
SWIDTH 1000 0
DWIDTH 16 0
BBX 16 16 0 -2
BITMAP
0100
0180
0200
0FE0
0820
0820
0820
0820
0820
0820
0820
1022
1022
2022
401E
0000
ENDCHAR
STARTCHAR 0x8447
ENCODING 33863
SWIDTH 1000 0
DWIDTH 16 0
BBX 16 16 0 -2
BITMAP
0100
0100
0100
0FE0
0820
0820
0820
0820
0820
0820
0820
1020
1022
2022
401E
0000
ENDCHAR
STARTCHAR 0x8448
ENCODING 33864
SWIDTH 1000 0
DWIDTH 16 0
BBX 16 16 0 -2
BITMAP
3FF8
2008
2008
3FF8
2000
2000
23F0
2210
2210
2210
2210
2412
4412
480E
9000
0000
ENDCHAR
STARTCHAR 0x8449
ENCODING 33865
SWIDTH 1000 0
DWIDTH 16 0
BBX 16 16 0 -2
BITMAP
1000
1800
1070
1F50
2250
2250
6250
5450
9494
0894
090C
1400
2200
4180
807E
0000
ENDCHAR
STARTCHAR 0x844A
ENCODING 33866
SWIDTH 1000 0
DWIDTH 16 0
BBX 16 16 0 -2
BITMAP
0000
3FF8
2108
2108
2108
2FE8
2928
2928
2928
29A8
2948
210A
410A
4106
8102
0000
ENDCHAR
STARTCHAR 0x844B
ENCODING 33867
SWIDTH 1000 0
DWIDTH 16 0
BBX 16 16 0 -2
BITMAP
0000
3FF8
2008
2008
2FC8
2008
2008
3FE8
2208
2208
2488
244A
49EA
5E26
8002
0000
ENDCHAR
STARTCHAR 0x844C
ENCODING 33868
SWIDTH 1000 0
DWIDTH 16 0
BBX 16 16 0 -2
BITMAP
1FF8
1008
1108
1108
1148
1FE8
1108
1308
1388
2548
2528
292A
510A
4106
8102
0000
ENDCHAR
STARTCHAR 0x844D
ENCODING 33869
SWIDTH 1000 0
DWIDTH 16 0
BBX 16 16 0 -2
BITMAP
0000
3FF8
2008
2108
2108
2108
2508
25E8
2508
2508
250A
250A
450A
5FF6
8002
0000
ENDCHAR
STARTCHAR 0x844E
ENCODING 33870
SWIDTH 1000 0
DWIDTH 16 0
BBX 16 16 0 -2
BITMAP
0000
3FF8
2008
2FE8
2008
2FE8
2828
2828
2FE8
2828
2828
2FEA
482A
4006
8002
0000
ENDCHAR
STARTCHAR 0x844F
ENCODING 33871
SWIDTH 1000 0
DWIDTH 16 0
BBX 16 16 0 -2
BITMAP
0000
3FF8
2008
2FE8
2108
2108
27C8
2448
2448
27C8
2448
244A
47CA
4446
8002
0000
ENDCHAR
STARTCHAR 0x8450
ENCODING 33872
SWIDTH 1000 0
DWIDTH 16 0
BBX 16 16 0 -2
BITMAP
0800
4978
4948
7F48
0048
3F48
0048
3F48
2148
3F48
2248
1348
144A
0F8A
7086
0100
ENDCHAR
STARTCHAR 0x8451
ENCODING 33873
SWIDTH 1000 0
DWIDTH 16 0
BBX 16 16 0 -2
BITMAP
0000
3FF8
2848
2488
3FE8
2288
2FE8
22A8
3FF8
22A8
2FE8
46CA
4AAA
92B6
A2A2
0000
ENDCHAR
STARTCHAR 0x8452
ENCODING 33874
SWIDTH 1000 0
DWIDTH 16 0
BBX 16 16 0 -2
BITMAP
07FC
4440
27F8
2440
17F8
1440
67FC
24A4
2954
3254
27C8
0440
0440
0842
0842
103E
ENDCHAR
STARTCHAR 0x8453
ENCODING 33875
SWIDTH 1000 0
DWIDTH 16 0
BBX 16 16 0 -2
BITMAP
0000
0100
2104
2104
2124
2FF4
2104
2104
2104
3FFC
2004
2004
2004
3FFC
2004
0000
ENDCHAR
STARTCHAR 0x8454
ENCODING 33876
SWIDTH 1000 0
DWIDTH 16 0
BBX 16 16 0 -2
BITMAP
3FF0
0020
0040
0080
5D74
5514
5554
5554
5524
5D54
554C
418C
4104
7FFC
4004
0000
ENDCHAR
STARTCHAR 0x8455
ENCODING 33877
SWIDTH 1000 0
DWIDTH 16 0
BBX 16 16 0 -2
BITMAP
0000
3FF0
0210
1210
0A10
0A10
0610
0610
0310
0590
08D0
1070
203E
C134
00E0
0040
ENDCHAR
STARTCHAR 0x8456
ENCODING 33878
SWIDTH 1000 0
DWIDTH 16 0
BBX 16 16 0 -2
BITMAP
0000
3FE0
0220
0220
0230
2228
2224
6426
C424
0420
0820
0820
1020
23C0
4080
0000
ENDCHAR
STARTCHAR 0x8457
ENCODING 33879
SWIDTH 1000 0
DWIDTH 16 0
BBX 16 16 0 -2
BITMAP
2004
3004
2104
3FA4
4024
8024
3F24
0224
0424
0824
1024
2004
4084
4094
3F88
0000
ENDCHAR
STARTCHAR 0x8458
ENCODING 33880
SWIDTH 1000 0
DWIDTH 16 0
BBX 16 16 0 -2
BITMAP
0104
0F84
7824
0824
0824
0824
FFA4
0824
0824
0824
0804
1004
1004
2004
C014
0008
ENDCHAR
STARTCHAR 0x8459
ENCODING 33881
SWIDTH 1000 0
DWIDTH 16 0
BBX 16 16 0 -2
BITMAP
0204
0204
0224
0224
FFA4
0224
4224
2224
3224
1A24
1224
0204
0204
0204
0A14
0408
ENDCHAR
STARTCHAR 0x845A
ENCODING 33882
SWIDTH 1000 0
DWIDTH 16 0
BBX 16 16 0 -2
BITMAP
1004
1084
1FC4
2024
3F24
4024
BE24
0224
0224
0224
0224
0104
0144
0154
00C8
0000
ENDCHAR
STARTCHAR 0x845B
ENCODING 33883
SWIDTH 1000 0
DWIDTH 16 0
BBX 16 16 0 -2
BITMAP
0004
3E04
2224
3224
2A24
2A24
2224
FFA4
2224
2224
2224
2204
4204
4A14
8408
0000
ENDCHAR
STARTCHAR 0x845C
ENCODING 33884
SWIDTH 1000 0
DWIDTH 16 0
BBX 16 16 0 -2
BITMAP
0004
7F04
0024
0024
0024
FFA4
1224
1224
1224
1224
2224
2284
4304
8214
0008
0000
ENDCHAR
STARTCHAR 0x845D
ENCODING 33885
SWIDTH 1000 0
DWIDTH 16 0
BBX 16 16 0 -2
BITMAP
0804
0804
0824
7F24
0924
0924
0924
7FA4
0824
0824
1424
1204
2304
4194
8108
0000
ENDCHAR
STARTCHAR 0x845E
ENCODING 33886
SWIDTH 1000 0
DWIDTH 16 0
BBX 16 16 0 -2
BITMAP
3FF8
0208
0208
0408
0408
08F0
1020
7EFC
1224
1224
1224
2244
2244
4A94
8508
0000
ENDCHAR
STARTCHAR 0x845F
ENCODING 33887
SWIDTH 1000 0
DWIDTH 16 0
BBX 16 16 0 -2
BITMAP
1204
1204
FF94
1294
1294
7F94
5214
5214
7FD4
1254
1354
3284
2204
4214
8208
0000
ENDCHAR
STARTCHAR 0x8460
ENCODING 33888
SWIDTH 1000 0
DWIDTH 16 0
BBX 16 16 0 -2
BITMAP
0004
3E04
2224
2224
3E24
2224
2224
2224
3E24
2224
2224
2384
3C04
E014
0008
0000
ENDCHAR
STARTCHAR 0x8461
ENCODING 33889
SWIDTH 1000 0
DWIDTH 16 0
BBX 16 16 0 -2
BITMAP
0004
7F04
1124
1124
1124
2124
2724
4224
3F24
2124
2124
2104
2104
3F14
2108
0000
ENDCHAR
STARTCHAR 0x8462
ENCODING 33890
SWIDTH 1000 0
DWIDTH 16 0
BBX 16 16 0 -2
BITMAP
0004
7F84
4094
4094
7F94
4494
4414
4494
7FD4
4414
4414
4204
5244
6154
4088
0000
ENDCHAR
STARTCHAR 0x8463
ENCODING 33891
SWIDTH 1000 0
DWIDTH 16 0
BBX 16 16 0 -2
BITMAP
0804
0804
1424
1324
21A4
48A4
8424
0424
7FA4
0124
2224
1424
0804
0604
0414
0008
ENDCHAR
STARTCHAR 0x8464
ENCODING 33892
SWIDTH 1000 0
DWIDTH 16 0
BBX 16 16 0 -2
BITMAP
0804
0C04
1824
1024
2224
4124
FFA4
0124
0024
7F24
4124
4124
4104
4104
7F14
4108
ENDCHAR
STARTCHAR 0x8465
ENCODING 33893
SWIDTH 1000 0
DWIDTH 16 0
BBX 16 16 0 -2
BITMAP
0004
3F04
2104
2124
3F24
2124
1024
1024
1F24
1124
1124
2124
2104
4704
8214
0008
ENDCHAR
STARTCHAR 0x8466
ENCODING 33894
SWIDTH 1000 0
DWIDTH 16 0
BBX 16 16 0 -2
BITMAP
0804
0804
0804
7FA4
0824
0824
0824
FFA4
0824
1024
1424
2324
4D84
F104
0014
0008
ENDCHAR
STARTCHAR 0x8467
ENCODING 33895
SWIDTH 1000 0
DWIDTH 16 0
BBX 16 16 0 -2
BITMAP
0800
0800
08FC
7F24
0824
0824
0924
FFA4
0824
1024
2244
4F44
F284
011C
0208
0000
ENDCHAR
STARTCHAR 0x8468
ENCODING 33896
SWIDTH 1000 0
DWIDTH 16 0
BBX 16 16 0 -2
BITMAP
0004
3F84
2A94
2A94
2A94
2A94
2A94
FFD4
2A94
2A94
2A94
2A94
2A94
2A84
2194
0008
ENDCHAR
STARTCHAR 0x8469
ENCODING 33897
SWIDTH 1000 0
DWIDTH 16 0
BBX 16 16 0 -2
BITMAP
1002
1402
1212
1F12
F012
1012
11D2
1E12
F092
0912
0A12
0C02
1402
2242
C14A
0084
ENDCHAR
STARTCHAR 0x846A
ENCODING 33898
SWIDTH 1000 0
DWIDTH 16 0
BBX 16 16 0 -2
BITMAP
0004
7FC4
0004
0024
3F24
2124
3F24
2124
2124
3F24
2124
0004
0784
7804
2014
0008
ENDCHAR
STARTCHAR 0x846B
ENCODING 33899
SWIDTH 1000 0
DWIDTH 16 0
BBX 16 16 0 -2
BITMAP
2400
2400
25F8
2428
FF28
2428
24AC
24AA
FF2A
2428
2448
2448
4488
4528
8610
0000
ENDCHAR
STARTCHAR 0x846C
ENCODING 33900
SWIDTH 1000 0
DWIDTH 16 0
BBX 16 16 0 -2
BITMAP
0804
0804
0824
7FA4
0824
0824
FFA4
0824
0824
7FA4
0824
0824
0F84
F804
4014
0008
ENDCHAR
STARTCHAR 0x846D
ENCODING 33901
SWIDTH 1000 0
DWIDTH 16 0
BBX 16 16 0 -2
BITMAP
0000
7F04
1104
1204
13A4
20A4
20A4
4AA4
8924
FFA4
1C24
1A24
2924
4884
8814
0808
ENDCHAR
STARTCHAR 0x846E
ENCODING 33902
SWIDTH 1000 0
DWIDTH 16 0
BBX 16 16 0 -2
BITMAP
0004
FF84
2224
2224
3E24
2224
2224
3E24
2224
2224
27A4
3A24
E204
0214
0208
0000
ENDCHAR
STARTCHAR 0x846F
ENCODING 33903
SWIDTH 1000 0
DWIDTH 16 0
BBX 16 16 0 -2
BITMAP
0800
0800
08FC
7E24
0824
08A4
08A4
FEA4
1124
1444
2244
4E84
F284
4138
0210
0000
ENDCHAR
STARTCHAR 0x8470
ENCODING 33904
SWIDTH 1000 0
DWIDTH 16 0
BBX 16 16 0 -2
BITMAP
0804
0804
0904
7FA4
0824
4924
2924
2A24
FFA4
0824
1424
1224
2304
4104
801C
0008
ENDCHAR
STARTCHAR 0x8471
ENCODING 33905
SWIDTH 1000 0
DWIDTH 16 0
BBX 16 16 0 -2
BITMAP
0004
7FC4
2504
35A4
2924
5224
4924
24A4
24A4
7FA4
0424
0404
0584
0E04
7014
0008
ENDCHAR
STARTCHAR 0x8472
ENCODING 33906
SWIDTH 1000 0
DWIDTH 16 0
BBX 16 16 0 -2
BITMAP
0004
7F84
0024
0024
3F24
2124
2124
3F24
2124
0224
2324
1204
17C4
7C14
0008
0000
ENDCHAR
STARTCHAR 0x8473
ENCODING 33907
SWIDTH 1000 0
DWIDTH 16 0
BBX 16 16 0 -2
BITMAP
0804
0404
3F04
2124
3F24
2124
2124
3F24
2024
2024
2424
2204
2704
7A04
2014
0008
ENDCHAR
STARTCHAR 0x8474
ENCODING 33908
SWIDTH 1000 0
DWIDTH 16 0
BBX 16 16 0 -2
BITMAP
0004
7E04
4224
7E24
4224
4224
7E24
4224
4224
4224
7E04
2404
3204
4314
8208
0000
ENDCHAR
STARTCHAR 0x8475
ENCODING 33909
SWIDTH 1000 0
DWIDTH 16 0
BBX 16 16 0 -2
BITMAP
0004
7F04
4124
4124
7F24
0024
7F24
4124
7F24
4124
7F24
4104
4104
4514
4208
0000
ENDCHAR
STARTCHAR 0x8476
ENCODING 33910
SWIDTH 1000 0
DWIDTH 16 0
BBX 16 16 0 -2
BITMAP
0402
2482
3492
2492
2512
5592
4E52
8652
0412
7FD2
0412
0412
04C2
0F02
700A
0004
ENDCHAR
STARTCHAR 0x8477
ENCODING 33911
SWIDTH 1000 0
DWIDTH 16 0
BBX 16 16 0 -2
BITMAP
0808
0808
FF48
0848
0848
7F48
4148
4148
7F48
1448
1408
1428
2412
2402
43FE
8000
ENDCHAR
STARTCHAR 0x8478
ENCODING 33912
SWIDTH 1000 0
DWIDTH 16 0
BBX 16 16 0 -2
BITMAP
0204
2304
1624
0C24
1224
29A4
4924
0824
FFA4
1C24
2A24
2B24
4984
8914
0808
0000
ENDCHAR
STARTCHAR 0x8479
ENCODING 33913
SWIDTH 1000 0
DWIDTH 16 0
BBX 16 16 0 -2
BITMAP
4200
237E
1412
7F12
2412
2452
2452
FF52
2492
2412
2422
2422
4442
4494
8508
0000
ENDCHAR
STARTCHAR 0x847A
ENCODING 33914
SWIDTH 1000 0
DWIDTH 16 0
BBX 16 16 0 -2
BITMAP
1202
1202
7F92
1212
1212
FFD2
0012
3F12
2112
2112
3F12
2112
2102
3F1E
2104
0000
ENDCHAR
STARTCHAR 0x847B
ENCODING 33915
SWIDTH 1000 0
DWIDTH 16 0
BBX 16 16 0 -2
BITMAP
0640
7840
087C
FE94
1914
2C24
4B44
8A94
0908
7FF8
0208
0208
0408
0808
1038
6010
ENDCHAR
STARTCHAR 0x847C
ENCODING 33916
SWIDTH 1000 0
DWIDTH 16 0
BBX 16 16 0 -2
BITMAP
1202
1202
1212
F3D2
1212
1212
7392
1212
1212
1212
F3D2
1202
1202
1202
120A
1204
ENDCHAR
STARTCHAR 0x847D
ENCODING 33917
SWIDTH 1000 0
DWIDTH 16 0
BBX 16 16 0 -2
BITMAP
1402
1202
1792
FC12
0892
1492
2312
1412
1392
FE12
1112
0A02
0C82
328A
C104
0000
ENDCHAR
STARTCHAR 0x847E
ENCODING 33918
SWIDTH 1000 0
DWIDTH 16 0
BBX 16 16 0 -2
BITMAP
1102
1102
1112
7FD2
1112
1F12
1112
1F12
1112
1112
FFD2
1202
2102
20CA
4044
8000
ENDCHAR
STARTCHAR 0x8480
ENCODING 33920
SWIDTH 1000 0
DWIDTH 16 0
BBX 16 16 0 -2
BITMAP
4200
2308
14FC
7F28
1428
1428
14AC
FFAA
14AA
1548
2448
2448
4488
44B8
8510
0000
ENDCHAR
STARTCHAR 0x8481
ENCODING 33921
SWIDTH 1000 0
DWIDTH 16 0
BBX 16 16 0 -2
BITMAP
0404
7FC4
0404
3FA4
24A4
3FA4
0424
7FA4
04A4
FFA4
04A4
7FA4
0404
0404
141C
0808
ENDCHAR
STARTCHAR 0x8482
ENCODING 33922
SWIDTH 1000 0
DWIDTH 16 0
BBX 16 16 0 -2
BITMAP
0004
7F84
52A4
63A4
54A4
7FA4
48A4
6AA4
6AA4
6AA4
7EA4
4284
4084
4294
4108
0000
ENDCHAR
STARTCHAR 0x8483
ENCODING 33923
SWIDTH 1000 0
DWIDTH 16 0
BBX 16 16 0 -2
BITMAP
1004
1F04
1204
2224
7E24
0224
FFA4
4A24
2B24
2C24
0C24
1A24
E984
4904
2814
1008
ENDCHAR
STARTCHAR 0x8484
ENCODING 33924
SWIDTH 1000 0
DWIDTH 16 0
BBX 16 16 0 -2
BITMAP
0002
7DE2
0852
31D2
1892
2552
4232
7BD2
0852
2A92
1992
1552
2252
4402
080E
0004
ENDCHAR
STARTCHAR 0x8485
ENCODING 33925
SWIDTH 1000 0
DWIDTH 16 0
BBX 16 16 0 -2
BITMAP
0804
0404
7FA4
0024
3F24
2124
2124
3F24
0524
2624
3524
45A4
8504
1414
0808
0000
ENDCHAR
STARTCHAR 0x8486
ENCODING 33926
SWIDTH 1000 0
DWIDTH 16 0
BBX 16 16 0 -2
BITMAP
0002
FFC2
0C12
1912
2992
C712
2C12
1612
3712
56D2
8A92
1212
2202
4202
0E0A
0404
ENDCHAR
STARTCHAR 0x8487
ENCODING 33927
SWIDTH 1000 0
DWIDTH 16 0
BBX 16 16 0 -2
BITMAP
0404
0A04
1104
20A4
5FA4
8424
3FA4
24A4
24A4
24A4
3FA4
0424
0A04
1104
20D4
4088
ENDCHAR
STARTCHAR 0x8488
ENCODING 33928
SWIDTH 1000 0
DWIDTH 16 0
BBX 16 16 0 -2
BITMAP
0802
0402
7F92
0112
3212
0C12
1B12
60D2
9152
1F12
1112
1F12
2102
2102
410A
8104
ENDCHAR
STARTCHAR 0x8489
ENCODING 33929
SWIDTH 1000 0
DWIDTH 16 0
BBX 16 16 0 -2
BITMAP
0804
0804
FFC4
1424
2224
49A4
FF24
4924
7F24
4924
7F24
4824
0884
0884
0794
0008
ENDCHAR
STARTCHAR 0x848A
ENCODING 33930
SWIDTH 1000 0
DWIDTH 16 0
BBX 16 16 0 -2
BITMAP
0404
7F84
0404
3F24
0424
7FA4
0424
7FA4
0824
1024
1F24
3124
5104
9F14
1108
0000
ENDCHAR
STARTCHAR 0x848B
ENCODING 33931
SWIDTH 1000 0
DWIDTH 16 0
BBX 16 16 0 -2
BITMAP
0402
0202
3FC2
2512
3FD2
2512
2712
2012
2FD2
2092
2512
2212
4502
4882
908A
0004
ENDCHAR
STARTCHAR 0x848C
ENCODING 33932
SWIDTH 1000 0
DWIDTH 16 0
BBX 16 16 0 -2
BITMAP
0402
4442
4442
4452
7FD2
0012
7FD2
0812
7FD2
4A52
4A52
4A52
4A42
4A42
414A
4084
ENDCHAR
STARTCHAR 0x848D
ENCODING 33933
SWIDTH 1000 0
DWIDTH 16 0
BBX 16 16 0 -2
BITMAP
0002
3F82
2092
3F92
2012
3F92
2412
2912
3F92
2492
5F12
4412
44C2
8702
B80A
0004
ENDCHAR
STARTCHAR 0x848E
ENCODING 33934
SWIDTH 1000 0
DWIDTH 16 0
BBX 16 16 0 -2
BITMAP
0004
3F04
2124
3D24
2524
2524
2524
7FA4
40A4
5EA4
52A4
5E84
5084
4294
4108
0000
ENDCHAR
STARTCHAR 0x848F
ENCODING 33935
SWIDTH 1000 0
DWIDTH 16 0
BBX 16 16 0 -2
BITMAP
0384
7C04
0404
7FA4
2524
FFA4
2524
2524
7FA4
0C24
1624
25A4
4484
8404
0414
0408
ENDCHAR
STARTCHAR 0x8490
ENCODING 33936
SWIDTH 1000 0
DWIDTH 16 0
BBX 16 16 0 -2
BITMAP
0800
0800
14FC
2224
FF24
08A4
7EA4
4A64
4A24
7E34
424C
244A
3248
43A8
8290
0000
ENDCHAR
STARTCHAR 0x8491
ENCODING 33937
SWIDTH 1000 0
DWIDTH 16 0
BBX 16 16 0 -2
BITMAP
1104
1104
7FC4
1124
1524
0A24
11A4
20A4
5F24
8024
1F24
1124
1104
1F14
1108
0000
ENDCHAR
STARTCHAR 0x8492
ENCODING 33938
SWIDTH 1000 0
DWIDTH 16 0
BBX 16 16 0 -2
BITMAP
0404
4484
4484
7FA4
0024
7FA4
0024
3F24
2124
3F24
2224
1304
1404
0F94
7808
0000
ENDCHAR
STARTCHAR 0x8493
ENCODING 33939
SWIDTH 1000 0
DWIDTH 16 0
BBX 16 16 0 -2
BITMAP
0804
0C04
1204
29A4
4524
BF24
2124
3F24
2124
3F24
2024
5F24
5124
9104
1F14
0008
ENDCHAR
STARTCHAR 0x8494
ENCODING 33940
SWIDTH 1000 0
DWIDTH 16 0
BBX 16 16 0 -2
BITMAP
1002
1F82
1102
3F12
0212
FFD2
1452
2D92
CA12
3712
CA92
12E2
2242
C202
0A0A
0404
ENDCHAR
STARTCHAR 0x8495
ENCODING 33941
SWIDTH 1000 0
DWIDTH 16 0
BBX 16 16 0 -2
BITMAP
0402
0202
3FC2
1092
0912
3FD2
2212
2A12
2FD2
3212
2FD2
2202
43C2
5E02
880A
0004
ENDCHAR
STARTCHAR 0x8496
ENCODING 33942
SWIDTH 1000 0
DWIDTH 16 0
BBX 16 16 0 -2
BITMAP
0404
7F84
0404
3F94
2494
3F94
2494
3F94
0514
7F94
0294
FFF4
2204
2214
0A08
0400
ENDCHAR
STARTCHAR 0x8497
ENCODING 33943
SWIDTH 1000 0
DWIDTH 16 0
BBX 16 16 0 -2
BITMAP
0004
7BC4
2954
28D4
1954
6A94
0614
1914
62D4
8C54
6314
1C64
6384
1C14
E008
0000
ENDCHAR
STARTCHAR 0x8498
ENCODING 33944
SWIDTH 1000 0
DWIDTH 16 0
BBX 16 16 0 -2
BITMAP
0420
3F20
047E
7FA4
0E18
1518
64A4
1FFE
1000
17FC
1084
1084
2104
2214
4C08
0000
ENDCHAR
STARTCHAR 0x8499
ENCODING 33945
SWIDTH 1000 0
DWIDTH 16 0
BBX 16 16 0 -2
BITMAP
0404
2484
2494
3F94
0014
7BD4
4A54
7BD4
4A54
4A54
7BD4
4A54
4A44
AD54
9488
0000
ENDCHAR
STARTCHAR 0x849A
ENCODING 33946
SWIDTH 1000 0
DWIDTH 16 0
BBX 16 16 0 -2
BITMAP
0404
0904
3F84
1094
2114
4A54
FDD4
0A54
3594
C854
3314
CC94
3104
4614
1808
E000
ENDCHAR
STARTCHAR 0x849B
ENCODING 33947
SWIDTH 1000 0
DWIDTH 16 0
BBX 16 16 0 -2
BITMAP
0002
7FC2
4012
4F92
4892
4F92
4012
5DD2
5552
5552
5DD2
5552
4002
7FCA
0004
0000
ENDCHAR
STARTCHAR 0x849C
ENCODING 33948
SWIDTH 1000 0
DWIDTH 16 0
BBX 16 16 0 -2
BITMAP
7F02
1202
0C12
7FD2
1492
2512
4C12
7F92
4A92
5192
7F92
5282
5E82
4082
428A
4104
ENDCHAR
STARTCHAR 0x849D
ENCODING 33949
SWIDTH 1000 0
DWIDTH 16 0
BBX 16 16 0 -2
BITMAP
0804
3F04
0924
7FA4
0924
3F24
0824
7FA4
0024
7F24
4924
7F24
4924
7F04
0014
7F88
ENDCHAR
STARTCHAR 0x849E
ENCODING 33950
SWIDTH 1000 0
DWIDTH 16 0
BBX 16 16 0 -2
BITMAP
2204
2204
3FE4
2A84
48A4
8524
0A24
1124
20A4
DF24
0024
3F24
2104
2104
3F14
2108
ENDCHAR
STARTCHAR 0x849F
ENCODING 33951
SWIDTH 1000 0
DWIDTH 16 0
BBX 16 16 0 -2
BITMAP
7FC2
4A42
4A42
7FD2
2012
3FD2
4852
BF52
2952
2952
3F52
0952
0FC2
7942
014A
0084
ENDCHAR
STARTCHAR 0x84A0
ENCODING 33952
SWIDTH 1000 0
DWIDTH 16 0
BBX 16 16 0 -2
BITMAP
0402
7FC2
5082
4912
7FD2
4A12
7F92
4A92
7FD2
4A92
7F92
5B12
5AC2
AA42
8A0A
0A04
ENDCHAR
STARTCHAR 0x84A1
ENCODING 33953
SWIDTH 1000 0
DWIDTH 16 0
BBX 16 16 0 -2
BITMAP
0404
0704
0424
7FA4
4424
5F24
44A4
43A4
4024
7FA4
44A4
4B24
7704
8AC4
B254
0608
ENDCHAR
STARTCHAR 0x84A2
ENCODING 33954
SWIDTH 1000 0
DWIDTH 16 0
BBX 16 16 0 -2
BITMAP
1802
63C2
4152
5152
6A52
04D2
0A12
3192
DF52
0452
3F12
1492
1502
07C2
7C0A
0004
ENDCHAR
STARTCHAR 0x84A3
ENCODING 33955
SWIDTH 1000 0
DWIDTH 16 0
BBX 16 16 0 -2
BITMAP
0402
0A02
1182
3FD2
4072
FFD2
5552
4E52
7FD2
0012
3F92
2092
3F82
2082
3F8A
2084
ENDCHAR
STARTCHAR 0x84A4
ENCODING 33956
SWIDTH 1000 0
DWIDTH 16 0
BBX 16 16 0 -2
BITMAP
1F02
1102
1F02
0012
7BD2
4A52
4A52
7BD2
0412
7FD2
0E12
0D12
14C2
2482
440A
0404
ENDCHAR
STARTCHAR 0x84A5
ENCODING 33957
SWIDTH 1000 0
DWIDTH 16 0
BBX 16 16 0 -2
BITMAP
0402
2782
2402
FFD2
0292
7FD2
4212
7E92
4AD2
5A92
6D12
4B12
5342
64C2
884A
1004
ENDCHAR
STARTCHAR 0x84A6
ENCODING 33958
SWIDTH 1000 0
DWIDTH 16 0
BBX 16 16 0 -2
BITMAP
0804
0C04
1204
21A4
7EA4
8024
7BA4
4AA4
7BA4
4AA4
1124
1124
2A84
44C4
9894
0008
ENDCHAR
STARTCHAR 0x84A7
ENCODING 33959
SWIDTH 1000 0
DWIDTH 16 0
BBX 16 16 0 -2
BITMAP
0800
0C00
137C
20A4
7F24
8024
7724
5524
7724
5524
2224
2244
5544
4894
9108
0000
ENDCHAR
STARTCHAR 0x84A8
ENCODING 33960
SWIDTH 1000 0
DWIDTH 16 0
BBX 16 16 0 -2
BITMAP
0402
2482
1512
7FD2
4052
9F92
1112
1F12
0012
3F92
2492
3F92
2482
3F82
208A
0004
ENDCHAR
STARTCHAR 0x84A9
ENCODING 33961
SWIDTH 1000 0
DWIDTH 16 0
BBX 16 16 0 -2
BITMAP
0402
7FC2
0A12
F5D2
5512
5552
75D2
8532
2092
3F92
2092
3F92
2092
2082
408A
8004
ENDCHAR
STARTCHAR 0x84AA
ENCODING 33962
SWIDTH 1000 0
DWIDTH 16 0
BBX 16 16 0 -2
BITMAP
0800
0C7C
1214
2194
5F14
8054
7754
5554
5594
7724
1224
1224
2B44
4494
9908
0000
ENDCHAR
STARTCHAR 0x84AB
ENCODING 33963
SWIDTH 1000 0
DWIDTH 16 0
BBX 16 16 0 -2
BITMAP
0800
1400
22FC
4124
FF24
8024
77A4
5564
7724
5534
222C
222A
5548
49A8
9110
0000
ENDCHAR
STARTCHAR 0x84AC
ENCODING 33964
SWIDTH 1000 0
DWIDTH 16 0
BBX 16 16 0 -2
BITMAP
18C2
6302
7FD2
4A92
4A92
8C92
BFD2
2052
3FD2
2052
3FD2
2052
3FD2
0902
18CA
6084
ENDCHAR
STARTCHAR 0x84AD
ENCODING 33965
SWIDTH 1000 0
DWIDTH 16 0
BBX 16 16 0 -2
BITMAP
2002
3F02
6112
BF92
2092
3F92
2212
3B92
2292
3712
7F92
A492
3F82
0B02
124A
21C4
ENDCHAR
STARTCHAR 0x84AE
ENCODING 33966
SWIDTH 1000 0
DWIDTH 16 0
BBX 16 16 0 -2
BITMAP
5302
7BC2
5502
BFD2
2A92
2EB2
48D2
BF92
2092
3F92
2092
3F92
2082
3F82
110A
2084
ENDCHAR
STARTCHAR 0x84AF
ENCODING 33967
SWIDTH 1000 0
DWIDTH 16 0
BBX 16 16 0 -2
BITMAP
0202
7FE2
4882
7FE2
49D2
5EB2
6A92
4892
4512
5DD2
4512
5DD2
4502
BDE2
850A
0004
ENDCHAR
STARTCHAR 0x84B0
ENCODING 33968
SWIDTH 1000 0
DWIDTH 16 0
BBX 16 16 0 -2
BITMAP
1004
1F84
2114
7FD4
1514
6D14
1694
6A54
2494
FBF4
AAB4
FBE4
28A4
3CE4
EBB4
0008
ENDCHAR
STARTCHAR 0x84B1
ENCODING 33969
SWIDTH 1000 0
DWIDTH 16 0
BBX 16 16 0 -2
BITMAP
7F82
4082
7F92
5512
4E12
5512
5FD2
5552
5FD2
4452
5F52
5552
5F52
4542
9F4A
0184
ENDCHAR
STARTCHAR 0x84B2
ENCODING 33970
SWIDTH 1000 0
DWIDTH 16 0
BBX 16 16 0 -2
BITMAP
1040
1040
1040
1040
7E40
1240
1240
1240
1240
1240
1240
2240
2242
4E42
843E
0000
ENDCHAR
STARTCHAR 0x84B3
ENCODING 33971
SWIDTH 1000 0
DWIDTH 16 0
BBX 16 16 0 -2
BITMAP
0720
3820
2020
2020
20FE
3F22
2422
2422
2422
2422
2442
2442
4482
448A
8504
0000
ENDCHAR
STARTCHAR 0x84B4
ENCODING 33972
SWIDTH 1000 0
DWIDTH 16 0
BBX 16 16 0 -2
BITMAP
1020
0820
0020
FF20
00FC
3C24
2424
2424
2424
2424
2444
2544
4684
4114
8208
0000
ENDCHAR
STARTCHAR 0x84B5
ENCODING 33973
SWIDTH 1000 0
DWIDTH 16 0
BBX 16 16 0 -2
BITMAP
0100
0100
3FF8
0108
0208
0228
1410
1020
7EFC
1224
1224
1224
2244
2A54
4488
0000
ENDCHAR
STARTCHAR 0x84B6
ENCODING 33974
SWIDTH 1000 0
DWIDTH 16 0
BBX 16 16 0 -2
BITMAP
0220
0F20
7820
0820
08FC
7E24
0824
0824
FF24
0824
0844
0844
0884
7894
1108
0000
ENDCHAR
STARTCHAR 0x84B7
ENCODING 33975
SWIDTH 1000 0
DWIDTH 16 0
BBX 16 16 0 -2
BITMAP
0820
2820
2820
3F20
48FC
4824
0824
FF24
0824
1424
1244
2344
2284
411C
8208
0000
ENDCHAR
STARTCHAR 0x84B8
ENCODING 33976
SWIDTH 1000 0
DWIDTH 16 0
BBX 16 16 0 -2
BITMAP
0020
0020
FF20
1020
11FC
2024
2024
7E24
A224
2244
2244
3E84
2284
211C
0208
0000
ENDCHAR
STARTCHAR 0x84B9
ENCODING 33977
SWIDTH 1000 0
DWIDTH 16 0
BBX 16 16 0 -2
BITMAP
1020
1820
1020
2020
7EFC
4224
4224
4224
7E24
4224
4244
4244
7E84
4294
0108
0000
ENDCHAR
STARTCHAR 0x84BA
ENCODING 33978
SWIDTH 1000 0
DWIDTH 16 0
BBX 16 16 0 -2
BITMAP
2208
110C
0CC8
0890
3FFE
2104
4108
0100
3FF8
0108
0208
0208
0408
1888
6050
0020
ENDCHAR
STARTCHAR 0x84BB
ENCODING 33979
SWIDTH 1000 0
DWIDTH 16 0
BBX 16 16 0 -2
BITMAP
2120
1930
1140
7FFC
0200
FFFE
0440
0920
1118
2FEE
C224
0220
0420
08A0
1040
0000
ENDCHAR
STARTCHAR 0x84BC
ENCODING 33980
SWIDTH 1000 0
DWIDTH 16 0
BBX 16 16 0 -2
BITMAP
0020
0F20
7020
4020
7F7C
4024
4024
5F24
5124
5124
5124
5F44
5144
90B8
0110
0000
ENDCHAR
STARTCHAR 0x84BD
ENCODING 33981
SWIDTH 1000 0
DWIDTH 16 0
BBX 16 16 0 -2
BITMAP
4220
3320
2420
FF20
08FC
0824
7F24
0824
0824
FF24
0844
1044
1084
2114
C208
0000
ENDCHAR
STARTCHAR 0x84BE
ENCODING 33982
SWIDTH 1000 0
DWIDTH 16 0
BBX 16 16 0 -2
BITMAP
0820
0820
7F20
0820
08FC
FF24
0824
0824
0824
7F24
0844
0844
0E84
F114
0208
0000
ENDCHAR
STARTCHAR 0x84BF
ENCODING 33983
SWIDTH 1000 0
DWIDTH 16 0
BBX 16 16 0 -2
BITMAP
1010
0C10
0810
7F90
127E
1112
2092
4212
1312
0A22
0422
0A22
1342
224A
4084
0000
ENDCHAR
STARTCHAR 0x84C0
ENCODING 33984
SWIDTH 1000 0
DWIDTH 16 0
BBX 16 16 0 -2
BITMAP
1020
1020
2220
4F20
F97C
0824
4824
7F24
4824
8824
7F44
0844
0884
089C
0908
0800
ENDCHAR
STARTCHAR 0x84C1
ENCODING 33985
SWIDTH 1000 0
DWIDTH 16 0
BBX 16 16 0 -2
BITMAP
0020
7FA0
4020
7F20
44FE
4422
5F22
4422
4422
4422
7F22
4042
7F42
408A
0104
0000
ENDCHAR
STARTCHAR 0x84C2
ENCODING 33986
SWIDTH 1000 0
DWIDTH 16 0
BBX 16 16 0 -2
BITMAP
0820
0820
FF20
0820
09FC
7E24
0024
0024
7E24
4244
4244
4244
7E84
4294
4108
0000
ENDCHAR
STARTCHAR 0x84C3
ENCODING 33987
SWIDTH 1000 0
DWIDTH 16 0
BBX 16 16 0 -2
BITMAP
0004
7F84
0824
0F24
1124
3124
4A04
0D14
3108
1FF8
0108
0208
0208
0408
0428
0810
ENDCHAR
STARTCHAR 0x84C4
ENCODING 33988
SWIDTH 1000 0
DWIDTH 16 0
BBX 16 16 0 -2
BITMAP
0820
0820
FF20
0820
08FC
7F24
4124
4124
7F24
1424
1424
1444
2544
2554
4788
8000
ENDCHAR
STARTCHAR 0x84C5
ENCODING 33989
SWIDTH 1000 0
DWIDTH 16 0
BBX 16 16 0 -2
BITMAP
0020
7F20
2920
2A20
52FE
A422
5222
2B22
2A22
7F42
0842
0842
0F82
F88A
0104
0000
ENDCHAR
STARTCHAR 0x84C6
ENCODING 33990
SWIDTH 1000 0
DWIDTH 16 0
BBX 16 16 0 -2
BITMAP
0820
2820
2820
3F20
48FC
4824
FFA4
0024
0024
3F24
2124
2144
2144
3F94
2108
0000
ENDCHAR
STARTCHAR 0x84C7
ENCODING 33991
SWIDTH 1000 0
DWIDTH 16 0
BBX 16 16 0 -2
BITMAP
2020
2020
3F20
4020
BF7C
2924
2524
FFA4
3124
2D24
2924
3FA4
0144
0E54
0488
0000
ENDCHAR
STARTCHAR 0x84C8
ENCODING 33992
SWIDTH 1000 0
DWIDTH 16 0
BBX 16 16 0 -2
BITMAP
0820
0820
FFA0
0820
7F7E
4922
4922
7F22
4922
1C22
2A22
2942
4842
888A
0904
0800
ENDCHAR
STARTCHAR 0x84C9
ENCODING 33993
SWIDTH 1000 0
DWIDTH 16 0
BBX 16 16 0 -2
BITMAP
1020
0820
7E20
4220
7EFC
4224
4224
7E24
4024
4824
4444
4A44
5284
6128
4210
0000
ENDCHAR
STARTCHAR 0x84CA
ENCODING 33994
SWIDTH 1000 0
DWIDTH 16 0
BBX 16 16 0 -2
BITMAP
7F20
0320
1420
08FC
7F24
4924
7F24
4924
4924
7F24
4924
4924
4944
4D54
4288
0000
ENDCHAR
STARTCHAR 0x84CB
ENCODING 33995
SWIDTH 1000 0
DWIDTH 16 0
BBX 16 16 0 -2
BITMAP
0820
0820
FFA0
0820
7F7C
4124
4124
4124
7F24
1444
1444
24B8
2512
4402
83FE
0000
ENDCHAR
STARTCHAR 0x84CC
ENCODING 33996
SWIDTH 1000 0
DWIDTH 16 0
BBX 16 16 0 -2
BITMAP
0810
4910
2A10
7F10
087E
FF92
1212
2112
3E92
5292
9222
1622
1042
1442
388A
1104
ENDCHAR
STARTCHAR 0x84CD
ENCODING 33997
SWIDTH 1000 0
DWIDTH 16 0
BBX 16 16 0 -2
BITMAP
0810
0410
7F90
0010
007E
3F12
2112
2112
3F12
0412
2612
3522
25A2
454A
1484
0800
ENDCHAR
STARTCHAR 0x84CE
ENCODING 33998
SWIDTH 1000 0
DWIDTH 16 0
BBX 16 16 0 -2
BITMAP
0820
0820
7F20
0820
08FC
FFA4
1424
3324
4924
8824
7F24
0844
0B44
1C94
E108
0000
ENDCHAR
STARTCHAR 0x84CF
ENCODING 33999
SWIDTH 1000 0
DWIDTH 16 0
BBX 16 16 0 -2
BITMAP
1020
0820
7FA0
2220
137C
1424
7FA4
0024
0024
3F24
2124
2144
2144
3F94
2108
0000
ENDCHAR
STARTCHAR 0x84D0
ENCODING 34000
SWIDTH 1000 0
DWIDTH 16 0
BBX 16 16 0 -2
BITMAP
0820
0820
FFA0
2920
297C
2924
5AA4
9CA4
0C24
1A24
2944
4944
8884
0914
0A08
0800
ENDCHAR
STARTCHAR 0x84D1
ENCODING 34001
SWIDTH 1000 0
DWIDTH 16 0
BBX 16 16 0 -2
BITMAP
4420
4420
4520
7620
44FC
74A4
53A4
2024
7E24
4224
7E24
4244
4244
7E94
4308
0000
ENDCHAR
STARTCHAR 0x84D2
ENCODING 34002
SWIDTH 1000 0
DWIDTH 16 0
BBX 16 16 0 -2
BITMAP
0010
FF90
0810
1010
7F7E
5512
5512
5D12
5512
5D22
5522
5542
7F42
408A
0104
0000
ENDCHAR
STARTCHAR 0x84D3
ENCODING 34003
SWIDTH 1000 0
DWIDTH 16 0
BBX 16 16 0 -2
BITMAP
0720
7820
0820
FF20
08FE
7F22
4922
7F22
4922
7F22
0822
7F22
0842
0F42
F08A
0104
ENDCHAR
STARTCHAR 0x84D4
ENCODING 34004
SWIDTH 1000 0
DWIDTH 16 0
BBX 16 16 0 -2
BITMAP
0000
1FF8
1008
1FF8
1008
1FF8
0020
3E20
22FC
3E24
2224
3E24
2244
2F44
F094
4108
ENDCHAR
STARTCHAR 0x84D5
ENCODING 34005
SWIDTH 1000 0
DWIDTH 16 0
BBX 16 16 0 -2
BITMAP
0040
7E40
24FC
1888
0950
FE30
14CE
3324
3420
51FC
5044
9044
1084
5138
2210
0000
ENDCHAR
STARTCHAR 0x84D6
ENCODING 34006
SWIDTH 1000 0
DWIDTH 16 0
BBX 16 16 0 -2
BITMAP
2A20
2A20
FFA0
2A20
2E7E
2022
3F22
0022
7F22
4922
4922
4922
4922
1442
234A
4284
ENDCHAR
STARTCHAR 0x84D7
ENCODING 34007
SWIDTH 1000 0
DWIDTH 16 0
BBX 16 16 0 -2
BITMAP
0020
7F20
4120
7F20
00FE
7F22
4122
7F22
4122
7F22
4122
7F22
2422
3242
434A
8284
ENDCHAR
STARTCHAR 0x84D8
ENCODING 34008
SWIDTH 1000 0
DWIDTH 16 0
BBX 16 16 0 -2
BITMAP
2210
2990
5490
A210
7F7C
0214
F714
1114
9914
5514
3324
D524
1144
5554
2288
0000
ENDCHAR
STARTCHAR 0x84D9
ENCODING 34009
SWIDTH 1000 0
DWIDTH 16 0
BBX 16 16 0 -2
BITMAP
0048
7A4C
4950
4BFC
7840
4FFE
4890
4948
7A46
4FFC
4848
4848
4888
A888
9128
0210
ENDCHAR
STARTCHAR 0x84DA
ENCODING 34010
SWIDTH 1000 0
DWIDTH 16 0
BBX 16 16 0 -2
BITMAP
0820
0AA8
2CB8
2820
5450
2288
3FFC
2104
4108
0FF0
0110
0210
0210
0450
0820
1000
ENDCHAR
STARTCHAR 0x84DB
ENCODING 34011
SWIDTH 1000 0
DWIDTH 16 0
BBX 16 16 0 -2
BITMAP
7B90
4C90
2A90
19FC
2A94
4C94
0A14
1114
6494
9964
6624
18A4
6344
0C44
3094
C108
ENDCHAR
STARTCHAR 0x84DC
ENCODING 34012
SWIDTH 1000 0
DWIDTH 16 0
BBX 16 16 0 -2
BITMAP
0020
FFA0
1420
7F20
55FC
7F24
4124
3E24
0024
7FA4
0824
2C44
4B44
8A94
2908
1000
ENDCHAR
STARTCHAR 0x84DD
ENCODING 34013
SWIDTH 1000 0
DWIDTH 16 0
BBX 16 16 0 -2
BITMAP
0820
3F20
0878
7F28
24A8
4968
BF5A
088A
7F04
0100
3FF8
0108
0208
0208
0428
1810
ENDCHAR
STARTCHAR 0x84DE
ENCODING 34014
SWIDTH 1000 0
DWIDTH 16 0
BBX 16 16 0 -2
BITMAP
0820
7FA0
0820
3F7C
0824
FFA4
2124
3F24
2124
3F24
2124
3F44
1244
1944
2194
4108
ENDCHAR
STARTCHAR 0x84DF
ENCODING 34015
SWIDTH 1000 0
DWIDTH 16 0
BBX 16 16 0 -2
BITMAP
7CF8
0488
04F8
7C20
41FC
7D24
05FC
0428
29FC
1204
3FF8
0208
0408
0408
0850
1020
ENDCHAR
STARTCHAR 0x84E0
ENCODING 34016
SWIDTH 1000 0
DWIDTH 16 0
BBX 16 16 0 -2
BITMAP
2510
2A10
5210
2910
7F7E
4912
7F12
4912
7F12
0812
7F92
1C12
1A12
29A2
492A
8844
ENDCHAR
STARTCHAR 0x84E1
ENCODING 34017
SWIDTH 1000 0
DWIDTH 16 0
BBX 16 16 0 -2
BITMAP
2010
3F90
2810
4810
FFFE
1012
3F92
6412
BF12
2412
3F22
2422
3FC2
204A
2084
0100
ENDCHAR
STARTCHAR 0x84E2
ENCODING 34018
SWIDTH 1000 0
DWIDTH 16 0
BBX 16 16 0 -2
BITMAP
1010
1F10
2210
7F90
A4FE
3F92
0812
1912
2D92
D622
25A2
4AA2
1242
2242
4A8A
0404
ENDCHAR
STARTCHAR 0x84E3
ENCODING 34019
SWIDTH 1000 0
DWIDTH 16 0
BBX 16 16 0 -2
BITMAP
5210
5210
FF90
5210
5EFE
4012
7F92
4112
7F12
4112
7F12
4112
7F22
2422
334A
4284
ENDCHAR
STARTCHAR 0x84E4
ENCODING 34020
SWIDTH 1000 0
DWIDTH 16 0
BBX 16 16 0 -2
BITMAP
0710
7810
1010
7F90
227E
5F12
9292
1E52
0012
7F92
4092
5E92
5292
5EA2
42AA
4144
ENDCHAR
STARTCHAR 0x84E5
ENCODING 34021
SWIDTH 1000 0
DWIDTH 16 0
BBX 16 16 0 -2
BITMAP
0310
7C10
4910
2A10
7F7E
1C12
2A12
C992
7F12
4912
7F12
4922
4922
7F42
414A
0084
ENDCHAR
STARTCHAR 0x84E6
ENCODING 34022
SWIDTH 1000 0
DWIDTH 16 0
BBX 16 16 0 -2
BITMAP
4910
2A10
7F10
0810
FFFE
1212
2992
DA92
0C12
1222
7F22
0922
2C42
4A42
AA8A
1104
ENDCHAR
STARTCHAR 0x84E7
ENCODING 34023
SWIDTH 1000 0
DWIDTH 16 0
BBX 16 16 0 -2
BITMAP
0820
7FA0
2120
1220
FFFC
0024
7F24
4924
7F24
4924
7F24
0824
7F24
0844
0F54
F088
ENDCHAR
STARTCHAR 0x84E8
ENCODING 34024
SWIDTH 1000 0
DWIDTH 16 0
BBX 16 16 0 -2
BITMAP
0810
0F10
0810
7F90
497E
7E12
4812
4612
7F92
4C12
5522
4E22
7542
4442
9494
0908
ENDCHAR
STARTCHAR 0x84E9
ENCODING 34025
SWIDTH 1000 0
DWIDTH 16 0
BBX 16 16 0 -2
BITMAP
0810
FF90
0010
7F10
557E
5D12
4112
7F12
0012
7F12
4112
7F12
4122
7F22
004A
FF84
ENDCHAR
STARTCHAR 0x84EA
ENCODING 34026
SWIDTH 1000 0
DWIDTH 16 0
BBX 16 16 0 -2
BITMAP
1210
FFD0
1210
7F10
497E
7F12
4912
7F12
0812
FF92
8C92
8A92
FFA2
82A2
80AA
8344
ENDCHAR
STARTCHAR 0x84EB
ENCODING 34027
SWIDTH 1000 0
DWIDTH 16 0
BBX 16 16 0 -2
BITMAP
7F20
0820
FF20
087C
7F24
4924
7F24
4924
7F24
0854
7F48
0800
7F48
2426
2322
4200
ENDCHAR
STARTCHAR 0x84EC
ENCODING 34028
SWIDTH 1000 0
DWIDTH 16 0
BBX 16 16 0 -2
BITMAP
0210
7F10
0810
7F90
087E
7F12
4912
6B12
5D12
7F12
0812
FF12
0822
FF22
4ACA
8A84
ENDCHAR
STARTCHAR 0x84ED
ENCODING 34029
SWIDTH 1000 0
DWIDTH 16 0
BBX 16 16 0 -2
BITMAP
0410
0790
0410
7FBE
4492
5E12
4492
5F12
5512
5F12
5512
5F22
444E
72A4
B2B0
CFA0
ENDCHAR
STARTCHAR 0x84EE
ENCODING 34030
SWIDTH 1000 0
DWIDTH 16 0
BBX 16 16 0 -2
BITMAP
7FD0
4910
5F90
497E
5F92
5492
5F92
5492
5F92
4412
7FD2
6552
67D2
BD52
A06A
2044
ENDCHAR
STARTCHAR 0x84EF
ENCODING 34031
SWIDTH 1000 0
DWIDTH 16 0
BBX 16 16 0 -2
BITMAP
0110
2FD0
52BE
A7C4
6854
A794
2498
2788
2488
2796
26A4
7FF0
0210
0410
0850
1020
ENDCHAR
STARTCHAR 0x84F0
ENCODING 34032
SWIDTH 1000 0
DWIDTH 16 0
BBX 16 16 0 -2
BITMAP
0810
FF90
0010
777E
5512
7712
2412
7E12
2412
FF92
2412
FF92
2922
6922
B64A
2284
ENDCHAR
STARTCHAR 0x84F1
ENCODING 34033
SWIDTH 1000 0
DWIDTH 16 0
BBX 16 16 0 -2
BITMAP
2410
FF90
2410
7710
557C
7714
2814
3F14
6414
7F24
A424
3F24
2424
3F54
2048
0080
ENDCHAR
STARTCHAR 0x84F2
ENCODING 34034
SWIDTH 1000 0
DWIDTH 16 0
BBX 16 16 0 -2
BITMAP
1000
1000
1FFC
2004
2004
5FE4
0004
0004
0004
3FF4
0004
0004
0004
0024
0014
0008
ENDCHAR
STARTCHAR 0x84F3
ENCODING 34035
SWIDTH 1000 0
DWIDTH 16 0
BBX 16 16 0 -2
BITMAP
1000
1000
1FFC
2004
2404
4404
3F84
0484
0484
0494
0894
0874
1004
2004
0014
0008
ENDCHAR
STARTCHAR 0x84F4
ENCODING 34036
SWIDTH 1000 0
DWIDTH 16 0
BBX 16 16 0 -2
BITMAP
0800
0800
1FFC
1004
2204
4204
8204
0204
0584
0464
0834
1024
6004
0024
0014
0008
ENDCHAR
STARTCHAR 0x84F5
ENCODING 34037
SWIDTH 1000 0
DWIDTH 16 0
BBX 16 16 0 -2
BITMAP
1000
1800
1010
1FF8
2110
3110
4910
4A10
8610
0310
0490
0870
102E
6120
80C0
0000
ENDCHAR
STARTCHAR 0x84F6
ENCODING 34038
SWIDTH 1000 0
DWIDTH 16 0
BBX 16 16 0 -2
BITMAP
0800
0800
1FFC
1004
2804
4844
88E4
0984
0E24
0824
0824
07E4
0004
0028
0010
0000
ENDCHAR
STARTCHAR 0x84F7
ENCODING 34039
SWIDTH 1000 0
DWIDTH 16 0
BBX 16 16 0 -2
BITMAP
0800
0804
1FFE
1104
2104
7104
A104
2284
2444
2824
3004
2024
3FF4
0004
0014
0008
ENDCHAR
STARTCHAR 0x84F8
ENCODING 34040
SWIDTH 1000 0
DWIDTH 16 0
BBX 16 16 0 -2
BITMAP
0800
0804
1FFE
1404
2204
4104
BFF4
1004
1004
1004
1004
1004
1FF4
0004
0014
0008
ENDCHAR
STARTCHAR 0x84F9
ENCODING 34041
SWIDTH 1000 0
DWIDTH 16 0
BBX 16 16 0 -2
BITMAP
0800
0804
1FFE
1004
2404
47E4
8824
0C44
1344
2284
4104
0204
0C04
3004
0028
0010
ENDCHAR
STARTCHAR 0x84FA
ENCODING 34042
SWIDTH 1000 0
DWIDTH 16 0
BBX 16 16 0 -2
BITMAP
1000
1000
1FFC
2004
3FE4
4204
9244
0A64
0A84
7FF4
0204
0204
0204
0224
0214
0208
ENDCHAR
STARTCHAR 0x84FB
ENCODING 34043
SWIDTH 1000 0
DWIDTH 16 0
BBX 16 16 0 -2
BITMAP
0800
0800
1FFC
1124
2934
4524
0544
3FF4
0304
0384
0564
0934
1124
2104
0138
0010
ENDCHAR
STARTCHAR 0x84FC
ENCODING 34044
SWIDTH 1000 0
DWIDTH 16 0
BBX 16 16 0 -2
BITMAP
0800
0800
0FFE
1402
2802
4FF2
9102
0102
7FFA
0102
1112
1112
1FF2
1012
000A
0004
ENDCHAR
STARTCHAR 0x84FD
ENCODING 34045
SWIDTH 1000 0
DWIDTH 16 0
BBX 16 16 0 -2
BITMAP
1000
1000
1FFC
2404
2604
4884
9044
3FE4
0024
1FC4
1044
1044
1FC4
1044
0014
0008
ENDCHAR
STARTCHAR 0x84FE
ENCODING 34046
SWIDTH 1000 0
DWIDTH 16 0
BBX 16 16 0 -2
BITMAP
1000
1000
1FFE
2202
5FF2
8482
0A42
3FFA
D252
1FC2
1242
1FC2
0212
0212
01EA
0004
ENDCHAR
STARTCHAR 0x8540
ENCODING 34112
SWIDTH 1000 0
DWIDTH 16 0
BBX 16 16 0 -2
BITMAP
1000
1000
1FFC
2804
51F4
BC14
25F4
3D04
2504
3DF4
2414
7C14
1414
24A4
D454
0808
ENDCHAR
STARTCHAR 0x8541
ENCODING 34113
SWIDTH 1000 0
DWIDTH 16 0
BBX 16 16 0 -2
BITMAP
1000
1004
1FFE
2004
2884
5FE4
8A84
0504
08C4
1FB4
6024
1FC4
1044
1FC4
1054
0008
ENDCHAR
STARTCHAR 0x8542
ENCODING 34114
SWIDTH 1000 0
DWIDTH 16 0
BBX 16 16 0 -2
BITMAP
1000
1FFE
1002
2002
7DE2
A522
3D22
261A
3DE2
2122
20C2
28C2
2532
2E12
340A
0004
ENDCHAR
STARTCHAR 0x8543
ENCODING 34115
SWIDTH 1000 0
DWIDTH 16 0
BBX 16 16 0 -2
BITMAP
1000
1800
1FFC
2804
5EF4
9294
1EF4
1294
1E04
12F4
7E94
0A94
12F4
2284
4E14
0408
ENDCHAR
STARTCHAR 0x8544
ENCODING 34116
SWIDTH 1000 0
DWIDTH 16 0
BBX 16 16 0 -2
BITMAP
4124
4124
4248
4490
4248
5924
6124
43FC
430C
4294
4A64
4A94
4B0C
3BFC
0204
0000
ENDCHAR
STARTCHAR 0x8545
ENCODING 34117
SWIDTH 1000 0
DWIDTH 16 0
BBX 16 16 0 -2
BITMAP
0000
7FFE
4200
4200
43F0
4410
4420
4820
5040
40C0
4130
460C
5808
FFFE
4000
0000
ENDCHAR
STARTCHAR 0x8546
ENCODING 34118
SWIDTH 1000 0
DWIDTH 16 0
BBX 16 16 0 -2
BITMAP
0000
7FFE
4080
4080
4490
44F8
4790
5C90
4490
4490
4434
4404
43FC
4000
7FFE
0000
ENDCHAR
STARTCHAR 0x8547
ENCODING 34119
SWIDTH 1000 0
DWIDTH 16 0
BBX 16 16 0 -2
BITMAP
0000
7FFE
4000
4000
4FF8
4080
4080
4080
4080
4080
4080
5FFC
4000
4000
7FFE
0000
ENDCHAR
STARTCHAR 0x8548
ENCODING 34120
SWIDTH 1000 0
DWIDTH 16 0
BBX 16 16 0 -2
BITMAP
0000
7FFC
4200
4100
5FF0
4000
47C0
4440
4440
4444
4844
483C
5000
4000
7FFE
0000
ENDCHAR
STARTCHAR 0x8549
ENCODING 34121
SWIDTH 1000 0
DWIDTH 16 0
BBX 16 16 0 -2
BITMAP
0000
7FFE
4400
4408
47FC
4928
4928
5228
4248
4448
5888
4328
4C10
4000
7FFE
0000
ENDCHAR
STARTCHAR 0x854A
ENCODING 34122
SWIDTH 1000 0
DWIDTH 16 0
BBX 16 16 0 -2
BITMAP
0000
7FFE
4000
4FF8
4080
4080
4080
4FF8
40A0
4098
4090
5FFC
4000
4000
7FFE
0000
ENDCHAR
STARTCHAR 0x854B
ENCODING 34123
SWIDTH 1000 0
DWIDTH 16 0
BBX 16 16 0 -2
BITMAP
0000
7FFE
4100
4220
4410
49F8
5F10
4220
4220
5FFC
4220
4220
4420
4820
7FFE
0000
ENDCHAR
STARTCHAR 0x854C
ENCODING 34124
SWIDTH 1000 0
DWIDTH 16 0
BBX 16 16 0 -2
BITMAP
0000
7FFE
4080
4088
5FFC
4890
4890
4890
54A8
6140
4220
4418
480C
5008
7FFE
0000
ENDCHAR
STARTCHAR 0x854D
ENCODING 34125
SWIDTH 1000 0
DWIDTH 16 0
BBX 16 16 0 -2
BITMAP
0000
7FFC
4220
5220
5220
5220
5FFC
4220
5E20
5220
5220
52FC
6200
4000
7FFE
0000
ENDCHAR
STARTCHAR 0x854E
ENCODING 34126
SWIDTH 1000 0
DWIDTH 16 0
BBX 16 16 0 -2
BITMAP
0000
7FFE
4080
4888
4888
4FF8
4000
4FF8
4080
4FF8
4080
4080
5FFC
4000
7FFE
0000
ENDCHAR
STARTCHAR 0x854F
ENCODING 34127
SWIDTH 1000 0
DWIDTH 16 0
BBX 16 16 0 -2
BITMAP
0000
7FFE
4400
4FF8
5168
66C8
59A8
4610
5FF8
4408
47F8
4408
47F8
4000
7FFE
0000
ENDCHAR
STARTCHAR 0x8550
ENCODING 34128
SWIDTH 1000 0
DWIDTH 16 0
BBX 16 16 0 -2
BITMAP
0000
7FFE
4180
4240
47F0
581C
6F08
4928
4F28
4928
4F28
4908
4B38
4000
7FFE
0000
ENDCHAR
STARTCHAR 0x8551
ENCODING 34129
SWIDTH 1000 0
DWIDTH 16 0
BBX 16 16 0 -2
BITMAP
0000
7FFC
4420
7FA0
4478
5F28
5528
5F28
5548
5F48
444A
7F8A
448E
4500
7FFE
0000
ENDCHAR
STARTCHAR 0x8552
ENCODING 34130
SWIDTH 1000 0
DWIDTH 16 0
BBX 16 16 0 -2
BITMAP
0000
7FFC
5140
4920
63FC
5320
55F8
4120
4920
49F8
5120
7120
51FC
4100
7FFC
0000
ENDCHAR
STARTCHAR 0x8553
ENCODING 34131
SWIDTH 1000 0
DWIDTH 16 0
BBX 16 16 0 -2
BITMAP
7FFE
4000
5E78
5248
5E78
4000
4FF8
4888
4FF8
4888
4FF8
4080
7FFE
4080
4080
7FFE
ENDCHAR
STARTCHAR 0x8554
ENCODING 34132
SWIDTH 1000 0
DWIDTH 16 0
BBX 16 16 0 -2
BITMAP
7FFC
4100
4FF0
4910
4FF0
4100
7FFC
4810
4FF0
4810
4FF0
4810
4FF0
4660
5818
7FFC
ENDCHAR
STARTCHAR 0x8555
ENCODING 34133
SWIDTH 1000 0
DWIDTH 16 0
BBX 16 16 0 -2
BITMAP
0000
7FFC
4100
5FF8
4660
4C18
77EE
4424
47E0
4000
5E78
5248
5E78
5248
4000
7FFC
ENDCHAR
STARTCHAR 0x8556
ENCODING 34134
SWIDTH 1000 0
DWIDTH 16 0
BBX 16 16 0 -2
BITMAP
0000
7FFC
4180
4260
4C18
77EE
4004
5EF0
5290
5290
5EF0
4420
4A50
5188
7FFE
0000
ENDCHAR
STARTCHAR 0x8557
ENCODING 34135
SWIDTH 1000 0
DWIDTH 16 0
BBX 16 16 0 -2
BITMAP
0004
7FFE
4840
4F7C
5290
6FF0
4810
4FF0
4810
4FF0
4420
5FFC
4420
4824
7FFE
0000
ENDCHAR
STARTCHAR 0x8558
ENCODING 34136
SWIDTH 1000 0
DWIDTH 16 0
BBX 16 16 0 -2
BITMAP
7FFE
4100
5FF8
4100
4FF0
4000
5FF8
5248
5FF8
4810
4FF0
4810
4FF0
4420
4810
7FFE
ENDCHAR
STARTCHAR 0x8559
ENCODING 34137
SWIDTH 1000 0
DWIDTH 16 0
BBX 16 16 0 -2
BITMAP
7FFC
4420
7FFC
44A0
4FF8
5880
6FF0
4880
4FF8
4200
5CF8
5008
5EF8
5008
5FF8
7FFC
ENDCHAR
STARTCHAR 0x855A
ENCODING 34138
SWIDTH 1000 0
DWIDTH 16 0
BBX 16 16 0 -2
BITMAP
0000
7FFC
5248
5E78
5248
5E78
5248
5E78
4480
4FF8
5880
6FF0
4880
4FF0
4880
7FFE
ENDCHAR
STARTCHAR 0x855B
ENCODING 34139
SWIDTH 1000 0
DWIDTH 16 0
BBX 16 16 0 -2
BITMAP
0000
3FFC
2000
2000
2000
2000
2000
2000
2000
2000
2000
2000
2000
3FFC
0000
0000
ENDCHAR
STARTCHAR 0x855C
ENCODING 34140
SWIDTH 1000 0
DWIDTH 16 0
BBX 16 16 0 -2
BITMAP
0000
3FFE
2080
2140
2220
2418
2BEE
3004
27F0
2410
2410
27F0
2410
2000
3FFE
0000
ENDCHAR
STARTCHAR 0x855D
ENCODING 34141
SWIDTH 1000 0
DWIDTH 16 0
BBX 16 16 0 -2
BITMAP
3FFE
2000
27F8
2408
27F8
2408
27F8
2100
2FFE
2110
2310
20E0
2118
2204
3FFE
0000
ENDCHAR
STARTCHAR 0x855E
ENCODING 34142
SWIDTH 1000 0
DWIDTH 16 0
BBX 16 16 0 -2
BITMAP
0000
7FFC
4000
47E0
4420
47E0
4000
5F78
5148
5148
5F78
5148
4000
4000
7FFE
0000
ENDCHAR
STARTCHAR 0x855F
ENCODING 34143
SWIDTH 1000 0
DWIDTH 16 0
BBX 16 16 0 -2
BITMAP
0000
7FF0
0410
0410
0410
0410
0410
FFD0
0410
0410
0410
040A
040A
0406
0402
0000
ENDCHAR
STARTCHAR 0x8560
ENCODING 34144
SWIDTH 1000 0
DWIDTH 16 0
BBX 16 16 0 -2
BITMAP
0000
0820
0820
0820
0820
FFFE
0820
0820
0820
0820
0820
0820
0820
0820
0000
0000
ENDCHAR
STARTCHAR 0x8561
ENCODING 34145
SWIDTH 1000 0
DWIDTH 16 0
BBX 16 16 0 -2
BITMAP
0200
0220
7FF0
0220
0420
0824
1024
211C
4100
0104
7FFE
0100
0100
0100
0100
0000
ENDCHAR
STARTCHAR 0x8562
ENCODING 34146
SWIDTH 1000 0
DWIDTH 16 0
BBX 16 16 0 -2
BITMAP
0100
0100
7FFC
0100
0100
1110
1010
FFFE
1010
1010
1010
1010
1010
1FF0
1010
0000
ENDCHAR
STARTCHAR 0x8563
ENCODING 34147
SWIDTH 1000 0
DWIDTH 16 0
BBX 16 16 0 -2
BITMAP
0000
2490
2490
2490
2490
2490
FFFE
2490
2490
2490
2490
2490
2490
2490
2490
0000
ENDCHAR
STARTCHAR 0x8564
ENCODING 34148
SWIDTH 1000 0
DWIDTH 16 0
BBX 16 16 0 -2
BITMAP
0100
7F84
0104
0104
0104
0104
0104
3FFC
2100
2100
2100
2100
2100
23FC
0100
0000
ENDCHAR
STARTCHAR 0x8565
ENCODING 34149
SWIDTH 1000 0
DWIDTH 16 0
BBX 16 16 0 -2
BITMAP
0000
41FC
4100
4100
4100
4100
4104
FFFE
4104
0104
0104
0104
0104
7F04
0000
0000
ENDCHAR
STARTCHAR 0x8566
ENCODING 34150
SWIDTH 1000 0
DWIDTH 16 0
BBX 16 16 0 -2
BITMAP
2040
2040
23FC
2084
FC84
211C
2208
2210
2FBC
2294
2294
2494
24A4
2BB4
3148
0000
ENDCHAR
STARTCHAR 0x8567
ENCODING 34151
SWIDTH 1000 0
DWIDTH 16 0
BBX 16 16 0 -2
BITMAP
1110
0898
08A0
3FF8
2108
2108
3FF8
2108
2108
3FF8
0100
FFFE
0100
0100
0100
0100
ENDCHAR
STARTCHAR 0x8568
ENCODING 34152
SWIDTH 1000 0
DWIDTH 16 0
BBX 16 16 0 -2
BITMAP
2210
2210
FFD0
2210
3E10
22FE
3E10
2210
FFD0
5210
5910
5190
6110
4010
7F90
0000
ENDCHAR
STARTCHAR 0x8569
ENCODING 34153
SWIDTH 1000 0
DWIDTH 16 0
BBX 16 16 0 -2
BITMAP
0100
27C8
3012
4BB6
F008
2B92
7C3E
0BC0
6A52
57D2
8122
0100
FFFE
0100
0100
0100
ENDCHAR
STARTCHAR 0x856A
ENCODING 34154
SWIDTH 1000 0
DWIDTH 16 0
BBX 16 16 0 -2
BITMAP
0440
0440
0440
0440
0440
0440
0440
FC7E
0440
0440
0440
0440
0440
0440
0440
0000
ENDCHAR
STARTCHAR 0x856B
ENCODING 34155
SWIDTH 1000 0
DWIDTH 16 0
BBX 16 16 0 -2
BITMAP
0100
0100
01FE
0100
0100
3FFC
3084
28A4
2534
2364
24C4
2964
2234
2C24
3FFC
2004
ENDCHAR
STARTCHAR 0x856C
ENCODING 34156
SWIDTH 1000 0
DWIDTH 16 0
BBX 16 16 0 -2
BITMAP
0100
01FE
0100
1FF0
1010
1F90
1090
7FFC
4004
4FE4
4824
4824
4FE4
4824
4014
4008
ENDCHAR
STARTCHAR 0x856D
ENCODING 34157
SWIDTH 1000 0
DWIDTH 16 0
BBX 16 16 0 -2
BITMAP
0000
0FF8
0808
0A08
0908
0988
08C8
0888
0808
0838
0810
0800
0800
0800
0800
0800
ENDCHAR
STARTCHAR 0x856E
ENCODING 34158
SWIDTH 1000 0
DWIDTH 16 0
BBX 16 16 0 -2
BITMAP
0000
0600
38FC
2084
2084
2084
2084
2084
2084
2284
2C84
709C
2088
0080
0080
0080
ENDCHAR
STARTCHAR 0x856F
ENCODING 34159
SWIDTH 1000 0
DWIDTH 16 0
BBX 16 16 0 -2
BITMAP
0000
FEFC
1084
1084
1084
1084
1084
1084
1084
1684
3894
C088
0080
0080
0080
0000
ENDCHAR
STARTCHAR 0x8570
ENCODING 34160
SWIDTH 1000 0
DWIDTH 16 0
BBX 16 16 0 -2
BITMAP
0000
7F7C
1144
1144
2144
2144
4544
8244
3F44
2144
2154
2148
2140
3F40
2140
0000
ENDCHAR
STARTCHAR 0x8571
ENCODING 34161
SWIDTH 1000 0
DWIDTH 16 0
BBX 16 16 0 -2
BITMAP
1000
107C
1F44
2144
5244
8444
1844
E844
1F44
2144
D154
0A48
0440
1840
E040
0040
ENDCHAR
STARTCHAR 0x8572
ENCODING 34162
SWIDTH 1000 0
DWIDTH 16 0
BBX 16 16 0 -2
BITMAP
0C00
083E
7FA2
52A2
52A2
52A2
52A2
52A2
52A2
52A2
53E2
5E2E
E024
0020
0020
0020
ENDCHAR
STARTCHAR 0x8573
ENCODING 34163
SWIDTH 1000 0
DWIDTH 16 0
BBX 16 16 0 -2
BITMAP
2400
333C
69A4
88A4
1424
2224
4124
80A4
7F24
4124
413C
4128
7F20
4120
4020
0020
ENDCHAR
STARTCHAR 0x8574
ENCODING 34164
SWIDTH 1000 0
DWIDTH 16 0
BBX 16 16 0 -2
BITMAP
0080
0080
FEF8
2910
2BFC
2D00
2978
2948
2948
2978
2A50
2A44
4C3C
4802
87FE
0000
ENDCHAR
STARTCHAR 0x8575
ENCODING 34165
SWIDTH 1000 0
DWIDTH 16 0
BBX 16 16 0 -2
BITMAP
0800
107C
7F44
4144
7F44
4144
7F44
4044
4444
4E44
7054
4148
4140
3F40
0040
0000
ENDCHAR
STARTCHAR 0x8576
ENCODING 34166
SWIDTH 1000 0
DWIDTH 16 0
BBX 16 16 0 -2
BITMAP
0000
7380
52BE
52A2
73A2
0022
7FA2
0022
FFE2
1022
3F22
112A
0124
0120
1E20
0420
ENDCHAR
STARTCHAR 0x8577
ENCODING 34167
SWIDTH 1000 0
DWIDTH 16 0
BBX 16 16 0 -2
BITMAP
0400
0400
7FBC
0E24
1524
24A4
4E24
1924
64E4
A5A4
1624
0D3C
35A8
44A0
1420
0820
ENDCHAR
STARTCHAR 0x8578
ENCODING 34168
SWIDTH 1000 0
DWIDTH 16 0
BBX 16 16 0 -2
BITMAP
0808
1448
3E28
4948
BE28
28FE
4A08
A908
1008
7FF0
0210
0210
0250
0220
0200
0200
ENDCHAR
STARTCHAR 0x8579
ENCODING 34169
SWIDTH 1000 0
DWIDTH 16 0
BBX 16 16 0 -2
BITMAP
0400
07F0
0820
1040
2080
5FFE
9000
1000
1000
1000
1000
2000
2000
4000
8000
0000
ENDCHAR
STARTCHAR 0x857A
ENCODING 34170
SWIDTH 1000 0
DWIDTH 16 0
BBX 16 16 0 -2
BITMAP
0004
3FFE
2000
2078
2F80
2080
2080
20FE
2F80
2080
2080
2080
4082
4082
807E
0000
ENDCHAR
STARTCHAR 0x857B
ENCODING 34171
SWIDTH 1000 0
DWIDTH 16 0
BBX 16 16 0 -2
BITMAP
0000
3FFC
2000
2000
2FF8
2080
2080
2080
3FFC
2080
2080
2080
4080
4080
8080
0000
ENDCHAR
STARTCHAR 0x857C
ENCODING 34172
SWIDTH 1000 0
DWIDTH 16 0
BBX 16 16 0 -2
BITMAP
0000
3FFE
2000
2FFC
2420
2420
2420
2FFE
2460
20A0
2120
2220
4420
48A0
8040
0000
ENDCHAR
STARTCHAR 0x857D
ENCODING 34173
SWIDTH 1000 0
DWIDTH 16 0
BBX 16 16 0 -2
BITMAP
003E
3FC0
2000
2038
2FC0
2840
2840
2FFC
2840
2840
2820
2920
4A92
5C4A
8846
0000
ENDCHAR
STARTCHAR 0x857E
ENCODING 34174
SWIDTH 1000 0
DWIDTH 16 0
BBX 16 16 0 -2
BITMAP
0000
3FFE
2200
2200
27FC
2500
2900
29F8
3100
2100
21FC
2100
4100
4100
8100
0000
ENDCHAR
STARTCHAR 0x8580
ENCODING 34176
SWIDTH 1000 0
DWIDTH 16 0
BBX 16 16 0 -2
BITMAP
0000
3FFE
2100
2120
2110
3FFE
2148
214C
2158
2250
2260
44C2
4942
923E
2400
0000
ENDCHAR
STARTCHAR 0x8581
ENCODING 34177
SWIDTH 1000 0
DWIDTH 16 0
BBX 16 16 0 -2
BITMAP
0000
3FFE
2000
2040
2F44
294E
2958
2960
2940
2940
2F40
2942
4842
403E
8000
0000
ENDCHAR
STARTCHAR 0x8582
ENCODING 34178
SWIDTH 1000 0
DWIDTH 16 0
BBX 16 16 0 -2
BITMAP
0004
3FFE
2400
2400
27FC
2440
2840
2044
3FFE
2040
2444
2444
4444
47FC
8404
0000
ENDCHAR
STARTCHAR 0x8583
ENCODING 34179
SWIDTH 1000 0
DWIDTH 16 0
BBX 16 16 0 -2
BITMAP
0000
3FFE
2080
2080
27F8
2080
2080
3FFE
2080
2080
2FF8
4080
4080
9FFE
8000
0000
ENDCHAR
STARTCHAR 0x8584
ENCODING 34180
SWIDTH 1000 0
DWIDTH 16 0
BBX 16 16 0 -2
BITMAP
0000
3FFE
2000
3FFC
2100
2210
2408
2FFC
2488
2080
2FFC
4080
4080
BFFE
0000
0000
ENDCHAR
STARTCHAR 0x8585
ENCODING 34181
SWIDTH 1000 0
DWIDTH 16 0
BBX 16 16 0 -2
BITMAP
0000
3FFE
2240
2224
3FFE
2298
22E0
2288
22B0
22C8
249C
44E0
4B82
9082
A07E
0000
ENDCHAR
STARTCHAR 0x8586
ENCODING 34182
SWIDTH 1000 0
DWIDTH 16 0
BBX 16 16 0 -2
BITMAP
0000
3FFE
2100
2080
2040
2FFC
2210
2124
3FFE
2080
2088
2FFC
2080
4080
4080
8080
ENDCHAR
STARTCHAR 0x8587
ENCODING 34183
SWIDTH 1000 0
DWIDTH 16 0
BBX 16 16 0 -2
BITMAP
3FFE
2080
2080
3FFC
2080
2FF8
2888
2FF8
2888
2FF8
2080
5FFE
4080
4080
8080
0080
ENDCHAR
STARTCHAR 0x8588
ENCODING 34184
SWIDTH 1000 0
DWIDTH 16 0
BBX 16 16 0 -2
BITMAP
0000
3FFE
2000
207C
2F40
2940
2940
297E
2948
2F48
2948
2088
4088
4108
8208
0000
ENDCHAR
STARTCHAR 0x8589
ENCODING 34185
SWIDTH 1000 0
DWIDTH 16 0
BBX 16 16 0 -2
BITMAP
0000
3FFE
2018
2FE0
2080
3FFE
2490
2490
3FFE
2490
2490
3FFE
4080
4080
8FFC
0000
ENDCHAR
STARTCHAR 0x858A
ENCODING 34186
SWIDTH 1000 0
DWIDTH 16 0
BBX 16 16 0 -2
BITMAP
0000
3FFE
2120
2120
3F3E
2120
2120
2F3C
2120
2120
3F3E
4120
4120
8120
8120
0000
ENDCHAR
STARTCHAR 0x858B
ENCODING 34187
SWIDTH 1000 0
DWIDTH 16 0
BBX 16 16 0 -2
BITMAP
0000
3FFE
2004
2F84
28A4
2FA4
28A4
28A4
2FA4
28A4
2FA4
2024
4904
50C4
A094
0008
ENDCHAR
STARTCHAR 0x858C
ENCODING 34188
SWIDTH 1000 0
DWIDTH 16 0
BBX 16 16 0 -2
BITMAP
0000
3FFC
2080
2100
27F8
2408
27F8
2408
27F8
2088
3EDC
22A0
4498
488E
9284
2100
ENDCHAR
STARTCHAR 0x858D
ENCODING 34189
SWIDTH 1000 0
DWIDTH 16 0
BBX 16 16 0 -2
BITMAP
0000
3FFE
2000
230C
3C70
2410
3F7E
2430
2E38
2D54
3556
2494
4510
4410
8410
0000
ENDCHAR
STARTCHAR 0x858E
ENCODING 34190
SWIDTH 1000 0
DWIDTH 16 0
BBX 16 16 0 -2
BITMAP
0000
3FFE
2080
2FFC
2080
27F0
2410
27F0
2410
27F0
2410
47F0
4410
5FFC
8660
9818
ENDCHAR
STARTCHAR 0x858F
ENCODING 34191
SWIDTH 1000 0
DWIDTH 16 0
BBX 16 16 0 -2
BITMAP
3FFE
2220
3FFC
2220
23E0
2080
2FF8
2888
2FF8
2080
2FF8
2080
4FF8
4080
9FFC
0000
ENDCHAR
STARTCHAR 0x8590
ENCODING 34192
SWIDTH 1000 0
DWIDTH 16 0
BBX 16 16 0 -2
BITMAP
3FFE
2210
3FD8
2210
2FA0
223E
3FC4
2424
27A8
24A8
2490
2890
48A8
5546
A284
0000
ENDCHAR
STARTCHAR 0x8591
ENCODING 34193
SWIDTH 1000 0
DWIDTH 16 0
BBX 16 16 0 -2
BITMAP
3FFC
2000
2FF8
2B08
28C8
2FF8
2420
27B0
2CA8
34A4
2320
24E0
283E
57F8
4408
87F8
ENDCHAR
STARTCHAR 0x8592
ENCODING 34194
SWIDTH 1000 0
DWIDTH 16 0
BBX 16 16 0 -2
BITMAP
7FFE
4000
5F10
5918
5516
5F14
407E
5F10
5110
5F10
5110
5F28
5124
9546
9284
0000
ENDCHAR
STARTCHAR 0x8593
ENCODING 34195
SWIDTH 1000 0
DWIDTH 16 0
BBX 16 16 0 -2
BITMAP
0000
3FFE
2410
2410
3F7E
2E38
2D34
3556
3494
2410
2088
5444
5456
A414
83F0
0000
ENDCHAR
STARTCHAR 0x8594
ENCODING 34196
SWIDTH 1000 0
DWIDTH 16 0
BBX 16 16 0 -2
BITMAP
0000
7FFE
4410
6498
5510
443E
5FA4
54A4
54E4
5EA8
5588
5490
5498
94A6
95C4
0000
ENDCHAR
STARTCHAR 0x8595
ENCODING 34197
SWIDTH 1000 0
DWIDTH 16 0
BBX 16 16 0 -2
BITMAP
0000
3FFE
2080
2140
2630
3BEE
2004
2F78
2948
2948
2F78
2410
4410
4A28
9144
2182
ENDCHAR
STARTCHAR 0x8596
ENCODING 34198
SWIDTH 1000 0
DWIDTH 16 0
BBX 16 16 0 -2
BITMAP
3FFE
2220
3FFC
2220
2FF8
2888
2FF8
2888
2FF8
2080
2FFC
28A4
28F4
4F94
4A04
880C
ENDCHAR
STARTCHAR 0x8597
ENCODING 34199
SWIDTH 1000 0
DWIDTH 16 0
BBX 16 16 0 -2
BITMAP
2210
1198
0920
7FFC
4020
5F20
427E
7FC8
5248
5E48
52A8
5E10
5390
9E2C
B246
0284
ENDCHAR
STARTCHAR 0x8598
ENCODING 34200
SWIDTH 1000 0
DWIDTH 16 0
BBX 16 16 0 -2
BITMAP
7FFE
5120
5F14
4014
5F7E
5110
5F28
5124
5342
4FFC
4888
4FF8
4888
4FF8
8080
0080
ENDCHAR
STARTCHAR 0x8599
ENCODING 34201
SWIDTH 1000 0
DWIDTH 16 0
BBX 16 16 0 -2
BITMAP
3FFC
2100
2FF8
2888
2FF8
44A0
4C98
9190
7F7E
4448
5F5E
5152
5F5E
4448
555C
ACAA
ENDCHAR
STARTCHAR 0x859A
ENCODING 34202
SWIDTH 1000 0
DWIDTH 16 0
BBX 16 16 0 -2
BITMAP
0200
0300
0200
7FFC
0200
0480
04C0
0880
0900
1120
1210
2208
44FC
8F8C
0408
0000
ENDCHAR
STARTCHAR 0x859B
ENCODING 34203
SWIDTH 1000 0
DWIDTH 16 0
BBX 16 16 0 -2
BITMAP
0810
0C18
0810
0810
0820
1020
1020
1040
2040
2848
4484
5E9E
F3E6
4284
0000
0000
ENDCHAR
STARTCHAR 0x859C
ENCODING 34204
SWIDTH 1000 0
DWIDTH 16 0
BBX 16 16 0 -2
BITMAP
0200
0200
3FE0
0220
0220
0420
0422
0822
101E
6200
0200
0420
0810
11F8
3E10
0000
ENDCHAR
STARTCHAR 0x859D
ENCODING 34205
SWIDTH 1000 0
DWIDTH 16 0
BBX 16 16 0 -2
BITMAP
0100
0100
0100
7FFE
0240
0440
0820
1218
230E
C204
0440
0820
10F0
3F18
1010
0000
ENDCHAR
STARTCHAR 0x859E
ENCODING 34206
SWIDTH 1000 0
DWIDTH 16 0
BBX 16 16 0 -2
BITMAP
0100
0240
0420
0810
1FF8
0810
0100
0100
0920
0D10
1918
210C
4108
8500
0200
0000
ENDCHAR
STARTCHAR 0x859F
ENCODING 34207
SWIDTH 1000 0
DWIDTH 16 0
BBX 16 16 0 -2
BITMAP
0200
0300
0400
0820
1010
7FF8
2010
1000
1820
1020
2840
2448
5E84
F5FE
0084
0000
ENDCHAR
STARTCHAR 0x85A0
ENCODING 34208
SWIDTH 1000 0
DWIDTH 16 0
BBX 16 16 0 -2
BITMAP
0000
7FF0
0010
0410
0410
7F90
0410
0410
FFD0
0410
0812
110A
208A
7FC6
2082
0000
ENDCHAR
STARTCHAR 0x85A1
ENCODING 34209
SWIDTH 1000 0
DWIDTH 16 0
BBX 16 16 0 -2
BITMAP
0100
0100
FFFE
0100
3FF8
2108
3FF8
2108
3FF8
2208
0300
0610
0808
11FC
3F08
0000
ENDCHAR
STARTCHAR 0x85A2
ENCODING 34210
SWIDTH 1000 0
DWIDTH 16 0
BBX 16 16 0 -2
BITMAP
0100
0220
0FF0
0820
1248
3EFC
0388
0C60
131C
66C8
1980
0320
0C70
11C0
0700
3800
ENDCHAR
STARTCHAR 0x85A3
ENCODING 34211
SWIDTH 1000 0
DWIDTH 16 0
BBX 16 16 0 -2
BITMAP
0400
0440
0820
1FF0
1020
2448
7EFC
0384
0C60
3018
DFE6
0000
0FC0
0008
7FFC
0000
ENDCHAR
STARTCHAR 0x85A4
ENCODING 34212
SWIDTH 1000 0
DWIDTH 16 0
BBX 16 16 0 -2
BITMAP
0200
0420
1FF0
0820
1244
2D7E
7384
0640
0D30
310E
C100
0990
094C
1148
0500
0200
ENDCHAR
STARTCHAR 0x85A5
ENCODING 34213
SWIDTH 1000 0
DWIDTH 16 0
BBX 16 16 0 -2
BITMAP
003C
03C8
FA8C
0148
0150
FBFC
2040
23FC
2080
50F8
4990
FD50
0A20
04D0
198E
0604
ENDCHAR
STARTCHAR 0x85A6
ENCODING 34214
SWIDTH 1000 0
DWIDTH 16 0
BBX 16 16 0 -2
BITMAP
0020
0020
FAFC
0224
00FE
F824
26FC
2228
22AC
5270
4AA8
BF24
CAA0
0540
08FE
0000
ENDCHAR
STARTCHAR 0x85A7
ENCODING 34215
SWIDTH 1000 0
DWIDTH 16 0
BBX 16 16 0 -2
BITMAP
0800
0800
4BFC
4908
4908
4908
4888
4890
4850
5850
E820
4850
0988
0E06
0800
0000
ENDCHAR
STARTCHAR 0x85A8
ENCODING 34216
SWIDTH 1000 0
DWIDTH 16 0
BBX 16 16 0 -2
BITMAP
0100
0100
3FF0
0110
0110
FFFE
0100
0100
1FF0
0820
0820
0440
0380
0C60
301C
C008
ENDCHAR
STARTCHAR 0x85A9
ENCODING 34217
SWIDTH 1000 0
DWIDTH 16 0
BBX 16 16 0 -2
BITMAP
0078
3F80
0200
0200
FFFE
0200
0200
05F0
0610
0A10
0A20
1120
20C0
4338
8C0E
3004
ENDCHAR
STARTCHAR 0x85AA
ENCODING 34218
SWIDTH 1000 0
DWIDTH 16 0
BBX 16 16 0 -2
BITMAP
0000
1FF0
1820
0600
01C0
1E30
E008
7E7E
0284
6444
1448
0828
0C10
3668
C386
0000
ENDCHAR
STARTCHAR 0x85AB
ENCODING 34219
SWIDTH 1000 0
DWIDTH 16 0
BBX 16 16 0 -2
BITMAP
0100
0100
FFFE
0100
3FF8
2108
2108
3FF8
0100
3FF8
0830
0660
0180
0660
181E
E004
ENDCHAR
STARTCHAR 0x85AC
ENCODING 34220
SWIDTH 1000 0
DWIDTH 16 0
BBX 16 16 0 -2
BITMAP
0000
7EFC
2448
1430
0828
1444
2280
FDFC
4488
2488
1850
0C20
1630
2348
C28E
0104
ENDCHAR
STARTCHAR 0x85AD
ENCODING 34221
SWIDTH 1000 0
DWIDTH 16 0
BBX 16 16 0 -2
BITMAP
0000
7EFC
4204
4204
4204
7EFC
4000
40FC
7E04
4088
4050
7E20
4050
4088
4106
4204
ENDCHAR
STARTCHAR 0x85AE
ENCODING 34222
SWIDTH 1000 0
DWIDTH 16 0
BBX 16 16 0 -2
BITMAP
0100
3FFE
4104
4920
0970
1180
2260
0C10
3FEC
4820
0440
0280
0100
06C0
1838
6010
ENDCHAR
STARTCHAR 0x85AF
ENCODING 34223
SWIDTH 1000 0
DWIDTH 16 0
BBX 16 16 0 -2
BITMAP
1000
10FC
1084
7E84
1094
1088
10BC
FEC4
10C4
20A8
20A8
4490
FE98
42A6
00C4
0080
ENDCHAR
STARTCHAR 0x85B0
ENCODING 34224
SWIDTH 1000 0
DWIDTH 16 0
BBX 16 16 0 -2
BITMAP
0000
7F7C
4144
4144
7F44
4044
5F28
4028
7FA8
4410
5610
5510
A528
D446
8884
0000
ENDCHAR
STARTCHAR 0x85B1
ENCODING 34225
SWIDTH 1000 0
DWIDTH 16 0
BBX 16 16 0 -2
BITMAP
0800
0F00
08FC
FF88
8148
3E48
2248
D550
3ED0
6320
BE20
2250
3E48
2286
3F04
2200
ENDCHAR
STARTCHAR 0x85B2
ENCODING 34226
SWIDTH 1000 0
DWIDTH 16 0
BBX 16 16 0 -2
BITMAP
1248
0A50
FFFE
0820
3FFC
0100
3FF8
0100
FFFE
2288
3E88
2250
3F20
2258
FF8E
0204
ENDCHAR
STARTCHAR 0x85B3
ENCODING 34227
SWIDTH 1000 0
DWIDTH 16 0
BBX 16 16 0 -2
BITMAP
0000
0FF8
0808
0808
0808
0FF8
0000
3FFC
0104
0104
0204
0204
0404
1848
6030
0000
ENDCHAR
STARTCHAR 0x85B4
ENCODING 34228
SWIDTH 1000 0
DWIDTH 16 0
BBX 16 16 0 -2
BITMAP
0200
0200
7FE0
0420
0422
0822
101E
2000
5FF0
1010
1010
1010
1010
1FF0
1010
0000
ENDCHAR
STARTCHAR 0x85B5
ENCODING 34229
SWIDTH 1000 0
DWIDTH 16 0
BBX 16 16 0 -2
BITMAP
0080
0040
7C40
4440
4440
4460
4420
4460
44A0
7C90
4510
4208
0408
0806
3004
0000
ENDCHAR
STARTCHAR 0x85B6
ENCODING 34230
SWIDTH 1000 0
DWIDTH 16 0
BBX 16 16 0 -2
BITMAP
0000
3FF8
0030
00C0
0100
0100
0100
0500
0200
3FF8
2008
2008
2008
2008
3FF8
2008
ENDCHAR
STARTCHAR 0x85B7
ENCODING 34231
SWIDTH 1000 0
DWIDTH 16 0
BBX 16 16 0 -2
BITMAP
0000
03FE
7C20
4420
4420
4420
4420
4420
4420
7C20
4420
4420
0020
0020
07FE
0000
ENDCHAR
STARTCHAR 0x85B8
ENCODING 34232
SWIDTH 1000 0
DWIDTH 16 0
BBX 16 16 0 -2
BITMAP
0008
7C3C
45E0
4420
4420
4420
47FE
4420
4420
7C20
4420
4020
0020
0020
0020
0020
ENDCHAR
STARTCHAR 0x85B9
ENCODING 34233
SWIDTH 1000 0
DWIDTH 16 0
BBX 16 16 0 -2
BITMAP
0200
0180
FFFE
1000
1000
1000
1FF8
0000
0000
1FF8
1008
1008
1008
1FF8
1008
0000
ENDCHAR
STARTCHAR 0x85BA
ENCODING 34234
SWIDTH 1000 0
DWIDTH 16 0
BBX 16 16 0 -2
BITMAP
0000
7CFC
4484
4484
4484
4484
4484
4484
4484
4484
4484
4484
7CFC
4484
4080
0000
ENDCHAR
STARTCHAR 0x85BB
ENCODING 34235
SWIDTH 1000 0
DWIDTH 16 0
BBX 16 16 0 -2
BITMAP
0000
03FC
7C08
4410
4420
4420
4420
47FE
4420
7C20
4420
0020
0020
0020
00A0
0040
ENDCHAR
STARTCHAR 0x85BC
ENCODING 34236
SWIDTH 1000 0
DWIDTH 16 0
BBX 16 16 0 -2
BITMAP
0010
0010
7C10
4410
47FE
4410
4610
4510
4490
7C90
4410
0010
0010
0010
0050
0020
ENDCHAR
STARTCHAR 0x85BD
ENCODING 34237
SWIDTH 1000 0
DWIDTH 16 0
BBX 16 16 0 -2
BITMAP
0020
0120
7924
492E
4934
49E4
4F24
4924
4924
4934
7928
4920
0104
0106
00FC
0000
ENDCHAR
STARTCHAR 0x85BE
ENCODING 34238
SWIDTH 1000 0
DWIDTH 16 0
BBX 16 16 0 -2
BITMAP
0100
0180
7900
49FC
4920
4A20
4C24
4FFE
4820
7820
4820
4020
0020
0020
0020
0020
ENDCHAR
STARTCHAR 0x85BF
ENCODING 34239
SWIDTH 1000 0
DWIDTH 16 0
BBX 16 16 0 -2
BITMAP
0040
0040
7840
4844
4A46
4A48
4A50
4CA0
48A0
78A0
4910
0110
0208
020E
0404
0800
ENDCHAR
STARTCHAR 0x85C0
ENCODING 34240
SWIDTH 1000 0
DWIDTH 16 0
BBX 16 16 0 -2
BITMAP
0000
7BF8
4888
4888
4FFE
4888
4888
4888
7FF8
4908
4100
0200
0200
0400
0800
1000
ENDCHAR
STARTCHAR 0x85C1
ENCODING 34241
SWIDTH 1000 0
DWIDTH 16 0
BBX 16 16 0 -2
BITMAP
0000
03F8
F888
8888
8888
8888
8888
8BF8
8910
F910
8910
0110
0110
0FFE
0000
0000
ENDCHAR
STARTCHAR 0x85C2
ENCODING 34242
SWIDTH 1000 0
DWIDTH 16 0
BBX 16 16 0 -2
BITMAP
0000
0100
0888
2884
2806
2814
4810
07E0
0000
1FF8
1008
1008
1008
1FF8
1008
0000
ENDCHAR
STARTCHAR 0x85C3
ENCODING 34243
SWIDTH 1000 0
DWIDTH 16 0
BBX 16 16 0 -2
BITMAP
0040
0040
7840
48A0
4918
4A0E
4D14
4910
4910
7910
4910
0110
0210
0210
0410
0810
ENDCHAR
STARTCHAR 0x85C4
ENCODING 34244
SWIDTH 1000 0
DWIDTH 16 0
BBX 16 16 0 -2
BITMAP
0000
07FE
7820
4820
4840
4840
48D0
48C8
4944
7A46
4444
4840
0040
0040
0040
0040
ENDCHAR
STARTCHAR 0x85C5
ENCODING 34245
SWIDTH 1000 0
DWIDTH 16 0
BBX 16 16 0 -2
BITMAP
0120
01A0
F124
9126
932C
9328
9530
9560
99A0
F120
9120
8120
0122
0122
011E
0000
ENDCHAR
STARTCHAR 0x85C6
ENCODING 34246
SWIDTH 1000 0
DWIDTH 16 0
BBX 16 16 0 -2
BITMAP
0080
00C0
7880
4884
4FFE
4880
48A0
4930
4920
7A40
4A48
4484
093E
13E4
2100
0000
ENDCHAR
STARTCHAR 0x85C7
ENCODING 34247
SWIDTH 1000 0
DWIDTH 16 0
BBX 16 16 0 -2
BITMAP
0000
0FF0
0810
2810
2FF0
2000
3FF8
0108
0108
FFFE
0280
0240
0420
0818
100E
2004
ENDCHAR
STARTCHAR 0x85C8
ENCODING 34248
SWIDTH 1000 0
DWIDTH 16 0
BBX 16 16 0 -2
BITMAP
0080
0060
0020
F820
8BFE
8A22
8A22
8A22
8A52
8A8E
FB0A
8A02
0202
020A
0204
0000
ENDCHAR
STARTCHAR 0x85C9
ENCODING 34249
SWIDTH 1000 0
DWIDTH 16 0
BBX 16 16 0 -2
BITMAP
0080
0080
F880
8BF8
8888
8888
8888
8888
8FFE
F940
8940
0220
0210
0418
080E
1004
ENDCHAR
STARTCHAR 0x85CA
ENCODING 34250
SWIDTH 1000 0
DWIDTH 16 0
BBX 16 16 0 -2
BITMAP
0000
00F0
7890
4890
4910
491E
4A00
4DF8
4908
7890
48A0
0040
00A0
031C
0C08
0000
ENDCHAR
STARTCHAR 0x85CB
ENCODING 34251
SWIDTH 1000 0
DWIDTH 16 0
BBX 16 16 0 -2
BITMAP
0040
0240
7B40
4A40
4BFC
4C40
4C40
4840
4FFE
7840
4840
0040
0040
0040
0040
0040
ENDCHAR
STARTCHAR 0x85CC
ENCODING 34252
SWIDTH 1000 0
DWIDTH 16 0
BBX 16 16 0 -2
BITMAP
0880
0C80
0880
1FFC
1080
2080
FFFE
0080
0080
1FF8
1008
1008
1008
1FF8
1008
0000
ENDCHAR
STARTCHAR 0x85CD
ENCODING 34253
SWIDTH 1000 0
DWIDTH 16 0
BBX 16 16 0 -2
BITMAP
0100
0180
F900
89FC
8904
8A84
8A64
8C44
8804
F874
8B84
8004
0004
0028
0010
0000
ENDCHAR
STARTCHAR 0x85CE
ENCODING 34254
SWIDTH 1000 0
DWIDTH 16 0
BBX 16 16 0 -2
BITMAP
0000
1FF8
1008
1008
1008
1FF8
0100
0200
3FFC
2004
2004
2004
2004
3FFC
2004
0000
ENDCHAR
STARTCHAR 0x85CF
ENCODING 34255
SWIDTH 1000 0
DWIDTH 16 0
BBX 16 16 0 -2
BITMAP
3FF0
0410
0438
0808
0808
1128
2110
7FFE
0100
0100
1FF0
1010
1010
1010
1FF0
1010
ENDCHAR
STARTCHAR 0x85D0
ENCODING 34256
SWIDTH 1000 0
DWIDTH 16 0
BBX 16 16 0 -2
BITMAP
0080
0060
7844
4FFE
4910
4910
4910
48A0
48A0
78A0
4840
40A0
0110
020E
0404
0800
ENDCHAR
STARTCHAR 0x85D1
ENCODING 34257
SWIDTH 1000 0
DWIDTH 16 0
BBX 16 16 0 -2
BITMAP
0100
0108
7D1C
05B0
0940
0920
1118
250E
C204
1FF0
1010
1010
1010
1FF0
1010
0000
ENDCHAR
STARTCHAR 0x85D2
ENCODING 34258
SWIDTH 1000 0
DWIDTH 16 0
BBX 16 16 0 -2
BITMAP
0000
07F0
0410
2410
2410
27F0
2000
3FF8
0008
0008
7FFE
0440
0E30
1818
300C
4008
ENDCHAR
STARTCHAR 0x85D3
ENCODING 34259
SWIDTH 1000 0
DWIDTH 16 0
BBX 16 16 0 -2
BITMAP
0010
0210
7910
48D0
4890
4A10
4910
4890
489E
78F0
4710
0010
0010
0010
0010
0000
ENDCHAR
STARTCHAR 0x85D4
ENCODING 34260
SWIDTH 1000 0
DWIDTH 16 0
BBX 16 16 0 -2
BITMAP
0000
0000
FBF8
8800
8800
8800
8FFC
8880
8880
F900
8910
8108
0204
07FE
0204
0000
ENDCHAR
STARTCHAR 0x85D5
ENCODING 34261
SWIDTH 1000 0
DWIDTH 16 0
BBX 16 16 0 -2
BITMAP
0000
03F8
FA08
8A08
8A08
8BF8
8A48
8A40
FA40
8A20
8420
0410
0818
100E
2004
0000
ENDCHAR
STARTCHAR 0x85D6
ENCODING 34262
SWIDTH 1000 0
DWIDTH 16 0
BBX 16 16 0 -2
BITMAP
0010
00D0
F710
9110
9110
9110
9FFE
9110
9110
F110
9210
8210
0410
0810
1010
0000
ENDCHAR
STARTCHAR 0x85D7
ENCODING 34263
SWIDTH 1000 0
DWIDTH 16 0
BBX 16 16 0 -2
BITMAP
0030
1FC0
0100
0100
7FFC
0240
0420
0818
300E
CFF4
0810
0810
0810
0FF0
0810
0000
ENDCHAR
STARTCHAR 0x85D8
ENCODING 34264
SWIDTH 1000 0
DWIDTH 16 0
BBX 16 16 0 -2
BITMAP
0080
7CC0
4480
4500
45FC
4510
4510
4690
4490
7CA0
4440
4060
0090
0118
020E
0404
ENDCHAR
STARTCHAR 0x85D9
ENCODING 34265
SWIDTH 1000 0
DWIDTH 16 0
BBX 16 16 0 -2
BITMAP
0040
0020
FBFC
8A04
8A04
8BFC
8A00
8BF8
8A10
FA20
8A40
8284
0504
0506
08FC
1000
ENDCHAR
STARTCHAR 0x85DA
ENCODING 34266
SWIDTH 1000 0
DWIDTH 16 0
BBX 16 16 0 -2
BITMAP
0000
03FC
F804
8BF4
8804
8804
8BE4
8A24
FA24
8A24
83E4
0224
0204
0004
0014
0008
ENDCHAR
STARTCHAR 0x85DB
ENCODING 34267
SWIDTH 1000 0
DWIDTH 16 0
BBX 16 16 0 -2
BITMAP
0080
0060
F840
8FFE
8840
8888
890C
8BF8
8910
F820
8840
0088
0104
03FE
0104
0000
ENDCHAR
STARTCHAR 0x85DC
ENCODING 34268
SWIDTH 1000 0
DWIDTH 16 0
BBX 16 16 0 -2
BITMAP
0040
0040
F840
8FFE
8840
88E0
88E0
8950
8950
FA48
8A44
85FA
0840
1040
0040
0000
ENDCHAR
STARTCHAR 0x85DD
ENCODING 34269
SWIDTH 1000 0
DWIDTH 16 0
BBX 16 16 0 -2
BITMAP
0000
03FC
FA04
8A04
8BFC
8A20
8A20
8BFE
8A20
FA20
8A20
8210
0252
028A
0706
0200
ENDCHAR
STARTCHAR 0x85DE
ENCODING 34270
SWIDTH 1000 0
DWIDTH 16 0
BBX 16 16 0 -2
BITMAP
0000
03F8
FA08
8A88
8A68
8A48
8FFE
8A08
8A88
FA68
8A48
03FE
0008
0008
0028
0010
ENDCHAR
STARTCHAR 0x85DF
ENCODING 34271
SWIDTH 1000 0
DWIDTH 16 0
BBX 16 16 0 -2
BITMAP
0040
0040
F7FC
9444
9444
9444
97FC
9444
9444
FFFE
9404
8404
0404
0414
0408
0000
ENDCHAR
STARTCHAR 0x85E0
ENCODING 34272
SWIDTH 1000 0
DWIDTH 16 0
BBX 16 16 0 -2
BITMAP
001C
03E0
FA20
8A20
8A20
8A24
8BFE
8A20
8A20
FA20
8A10
8252
028A
0346
0232
0020
ENDCHAR
STARTCHAR 0x85E1
ENCODING 34273
SWIDTH 1000 0
DWIDTH 16 0
BBX 16 16 0 -2
BITMAP
0000
FBFC
8800
8800
8800
8FFE
8840
8A40
FB50
8A48
8444
0446
0844
1040
0140
0080
ENDCHAR
STARTCHAR 0x85E2
ENCODING 34274
SWIDTH 1000 0
DWIDTH 16 0
BBX 16 16 0 -2
BITMAP
0000
FBFC
8A04
8A04
8A04
8A04
8BFC
8A94
8890
F890
8910
8110
0212
0412
080E
1000
ENDCHAR
STARTCHAR 0x85E3
ENCODING 34275
SWIDTH 1000 0
DWIDTH 16 0
BBX 16 16 0 -2
BITMAP
0040
0040
F840
8844
887E
8840
8840
8840
8BFC
FA04
8A04
8204
0204
03FC
0204
0000
ENDCHAR
STARTCHAR 0x85E4
ENCODING 34276
SWIDTH 1000 0
DWIDTH 16 0
BBX 16 16 0 -2
BITMAP
0000
03FC
FA94
8A94
8A94
8A94
8A94
8A94
8A9C
FA84
8304
0204
03FC
0204
0000
0000
ENDCHAR
STARTCHAR 0x85E5
ENCODING 34277
SWIDTH 1000 0
DWIDTH 16 0
BBX 16 16 0 -2
BITMAP
0048
0248
F248
9248
9248
9FFE
9248
9248
9248
F248
9278
0200
0200
03FE
0000
0000
ENDCHAR
STARTCHAR 0x85E6
ENCODING 34278
SWIDTH 1000 0
DWIDTH 16 0
BBX 16 16 0 -2
BITMAP
0000
FBF8
8A08
8A08
8A08
8A08
8A08
8BF8
FA08
8920
0190
0308
020C
0406
0804
0000
ENDCHAR
STARTCHAR 0x85E7
ENCODING 34279
SWIDTH 1000 0
DWIDTH 16 0
BBX 16 16 0 -2
BITMAP
0000
03FE
F824
8A26
8924
89A8
8928
8820
8FFE
F820
8820
0020
0020
0020
0020
0020
ENDCHAR
STARTCHAR 0x85E8
ENCODING 34280
SWIDTH 1000 0
DWIDTH 16 0
BBX 16 16 0 -2
BITMAP
0840
0840
084C
4F70
4840
4842
4B42
5C3E
E000
1FF0
1010
1010
1010
1010
1FF0
1010
ENDCHAR
STARTCHAR 0x85E9
ENCODING 34281
SWIDTH 1000 0
DWIDTH 16 0
BBX 16 16 0 -2
BITMAP
0080
0080
F9FE
8902
8A02
8DF2
8912
8912
8912
8912
F912
89F2
0002
0002
000A
0004
ENDCHAR
STARTCHAR 0x85EA
ENCODING 34282
SWIDTH 1000 0
DWIDTH 16 0
BBX 16 16 0 -2
BITMAP
0040
0240
FB40
8A48
8BFC
8C40
8840
8FFE
8840
F8A0
88A0
8110
0118
020E
0404
0800
ENDCHAR
STARTCHAR 0x85EB
ENCODING 34283
SWIDTH 1000 0
DWIDTH 16 0
BBX 16 16 0 -2
BITMAP
0000
03F8
FA08
8A08
8A08
8BF8
8800
8FFE
F880
8880
81FC
0084
0004
0004
0028
0010
ENDCHAR
STARTCHAR 0x85EC
ENCODING 34284
SWIDTH 1000 0
DWIDTH 16 0
BBX 16 16 0 -2
BITMAP
0000
03F8
FA08
8A08
8A08
8BF8
8A08
8A08
8A08
FBF8
8A08
8208
0208
0208
0FFE
0000
ENDCHAR
STARTCHAR 0x85ED
ENCODING 34285
SWIDTH 1000 0
DWIDTH 16 0
BBX 16 16 0 -2
BITMAP
0040
0040
F840
8BFC
8840
8840
8840
8FFE
8840
F840
8888
0104
023E
07E6
0204
0000
ENDCHAR
STARTCHAR 0x85EE
ENCODING 34286
SWIDTH 1000 0
DWIDTH 16 0
BBX 16 16 0 -2
BITMAP
0108
0108
F908
8908
8FFE
8908
8908
8908
89F8
F908
8908
0108
0108
01F8
0108
0000
ENDCHAR
STARTCHAR 0x85EF
ENCODING 34287
SWIDTH 1000 0
DWIDTH 16 0
BBX 16 16 0 -2
BITMAP
0110
0190
F110
9290
929E
96F2
9B92
9292
9292
F29A
9294
8280
0282
0282
027E
0000
ENDCHAR
STARTCHAR 0x85F0
ENCODING 34288
SWIDTH 1000 0
DWIDTH 16 0
BBX 16 16 0 -2
BITMAP
0200
0100
3FFC
0820
0630
0440
7FFE
0000
0000
1FF0
1010
1010
1010
1FF0
1010
0000
ENDCHAR
STARTCHAR 0x85F1
ENCODING 34289
SWIDTH 1000 0
DWIDTH 16 0
BBX 16 16 0 -2
BITMAP
0080
0048
F06C
9128
9108
9110
9110
9528
9544
F586
9904
8308
0508
08F8
0000
0000
ENDCHAR
STARTCHAR 0x85F2
ENCODING 34290
SWIDTH 1000 0
DWIDTH 16 0
BBX 16 16 0 -2
BITMAP
00A0
00A0
F7FC
90A4
90A4
97FC
94A0
94A0
97FE
F0A2
9122
812A
0224
0220
0420
0820
ENDCHAR
STARTCHAR 0x85F3
ENCODING 34291
SWIDTH 1000 0
DWIDTH 16 0
BBX 16 16 0 -2
BITMAP
0040
0040
F840
8BF8
8A48
8A48
8A48
8A48
8FFE
88A0
F8A0
8910
0118
020E
0404
0800
ENDCHAR
STARTCHAR 0x85F4
ENCODING 34292
SWIDTH 1000 0
DWIDTH 16 0
BBX 16 16 0 -2
BITMAP
0008
003C
FBC0
8840
8840
8FFE
88E0
88E0
F950
8948
824C
0246
0444
0840
0040
0040
ENDCHAR
STARTCHAR 0x85F5
ENCODING 34293
SWIDTH 1000 0
DWIDTH 16 0
BBX 16 16 0 -2
BITMAP
0040
0060
F880
8908
8A04
8FFE
8A04
8800
8BF8
FA08
8A08
0208
0208
03F8
0208
0000
ENDCHAR
STARTCHAR 0x85F6
ENCODING 34294
SWIDTH 1000 0
DWIDTH 16 0
BBX 16 16 0 -2
BITMAP
0100
0100
F13E
9FC8
9108
9108
9148
9188
9308
F508
9108
0108
0108
0528
0210
0000
ENDCHAR
STARTCHAR 0x85F7
ENCODING 34295
SWIDTH 1000 0
DWIDTH 16 0
BBX 16 16 0 -2
BITMAP
0000
07FC
F880
8880
88F0
8890
8910
8990
8970
F950
8910
0110
0152
0392
010E
0000
ENDCHAR
STARTCHAR 0x85F8
ENCODING 34296
SWIDTH 1000 0
DWIDTH 16 0
BBX 16 16 0 -2
BITMAP
0040
0040
F840
8FFE
8880
8880
8880
89FC
8920
F920
8A20
8220
0420
0BFE
1000
0000
ENDCHAR
STARTCHAR 0x85F9
ENCODING 34297
SWIDTH 1000 0
DWIDTH 16 0
BBX 16 16 0 -2
BITMAP
0040
0040
FFFE
8880
88A0
8920
89FC
8B24
8B24
FD24
8524
0924
0134
0128
0020
0020
ENDCHAR
STARTCHAR 0x85FA
ENCODING 34298
SWIDTH 1000 0
DWIDTH 16 0
BBX 16 16 0 -2
BITMAP
0080
0060
F840
8BFE
8C04
8D08
8900
8918
8960
F980
8900
8100
0104
0106
00FC
0000
ENDCHAR
STARTCHAR 0x85FB
ENCODING 34299
SWIDTH 1000 0
DWIDTH 16 0
BBX 16 16 0 -2
BITMAP
0000
FBFE
8888
8888
8888
8888
8BFE
8888
F888
8888
8088
0108
0108
0208
0408
0000
ENDCHAR
STARTCHAR 0x85FC
ENCODING 34300
SWIDTH 1000 0
DWIDTH 16 0
BBX 16 16 0 -2
BITMAP
0004
07FE
F820
8840
8880
8BFC
8A04
8A04
8BFC
FA04
8A04
8204
03FC
0204
0204
0000
ENDCHAR
STARTCHAR 0x85FD
ENCODING 34301
SWIDTH 1000 0
DWIDTH 16 0
BBX 16 16 0 -2
BITMAP
1FF0
1010
1010
1FF0
0000
FFFE
1010
1FF0
1010
1FF0
1010
1010
1FFE
F010
0010
0010
ENDCHAR
STARTCHAR 0x85FE
ENCODING 34302
SWIDTH 1000 0
DWIDTH 16 0
BBX 16 16 0 -2
BITMAP
0000
07FE
F908
8908
89F8
8908
8908
8908
89F8
F908
890E
07F8
0008
0008
0008
0008
ENDCHAR
STARTCHAR 0x8640
ENCODING 34368
SWIDTH 1000 0
DWIDTH 16 0
BBX 16 16 0 -2
BITMAP
3EF8
2288
2288
3EF8
0000
3FF8
0000
FFFE
0400
0800
1FF0
0810
0010
0010
00A0
0040
ENDCHAR
STARTCHAR 0x8641
ENCODING 34369
SWIDTH 1000 0
DWIDTH 16 0
BBX 16 16 0 -2
BITMAP
0000
07FC
F040
9090
9108
927C
97C8
9240
9040
97FC
F040
9040
0040
0040
0FFE
0000
ENDCHAR
STARTCHAR 0x8642
ENCODING 34370
SWIDTH 1000 0
DWIDTH 16 0
BBX 16 16 0 -2
BITMAP
0040
0140
F940
89FC
8A40
8A40
8FFE
88E0
8960
F950
8A58
024E
0444
0840
0040
0000
ENDCHAR
STARTCHAR 0x8643
ENCODING 34371
SWIDTH 1000 0
DWIDTH 16 0
BBX 16 16 0 -2
BITMAP
0100
0180
F900
89FE
8A02
8BF2
8D12
8912
89F2
F912
8912
89F2
0112
0002
000A
0004
ENDCHAR
STARTCHAR 0x8644
ENCODING 34372
SWIDTH 1000 0
DWIDTH 16 0
BBX 16 16 0 -2
BITMAP
0010
0218
F910
8920
8FFC
8840
8840
8840
8FFE
F840
88A0
0090
0108
020C
0406
0804
ENDCHAR
STARTCHAR 0x8645
ENCODING 34373
SWIDTH 1000 0
DWIDTH 16 0
BBX 16 16 0 -2
BITMAP
0040
0044
FFFE
8890
8908
8BFE
8C04
8800
8FFE
F900
8900
01F8
0008
0008
0028
0010
ENDCHAR
STARTCHAR 0x8646
ENCODING 34374
SWIDTH 1000 0
DWIDTH 16 0
BBX 16 16 0 -2
BITMAP
0000
003C
FBC0
8840
8840
8FFE
8840
8840
8BF8
FA08
8A08
0208
0208
03F8
0208
0000
ENDCHAR
STARTCHAR 0x8647
ENCODING 34375
SWIDTH 1000 0
DWIDTH 16 0
BBX 16 16 0 -2
BITMAP
0120
0120
F920
8928
8D2C
8B30
8920
8930
8B28
FD2C
8928
0222
0222
0422
081E
1000
ENDCHAR
STARTCHAR 0x8648
ENCODING 34376
SWIDTH 1000 0
DWIDTH 16 0
BBX 16 16 0 -2
BITMAP
0040
0020
FBFE
8A02
8C44
8860
8840
8FFE
8888
F908
8890
0060
0090
0118
020C
0408
ENDCHAR
STARTCHAR 0x8649
ENCODING 34377
SWIDTH 1000 0
DWIDTH 16 0
BBX 16 16 0 -2
BITMAP
0000
07FE
0000
F800
8BFC
8A04
8A04
8BFC
8A04
FA04
8BFC
8204
0000
0000
07FE
0000
ENDCHAR
STARTCHAR 0x864A
ENCODING 34378
SWIDTH 1000 0
DWIDTH 16 0
BBX 16 16 0 -2
BITMAP
0FF0
0810
0810
0F90
0890
0890
3FFC
2004
27E4
2424
2424
2424
27E4
2004
2014
2008
ENDCHAR
STARTCHAR 0x864B
ENCODING 34379
SWIDTH 1000 0
DWIDTH 16 0
BBX 16 16 0 -2
BITMAP
0080
0080
F888
8FFC
8898
88B0
8FFE
8840
8880
F990
8B38
85C0
0904
1106
00FC
0000
ENDCHAR
STARTCHAR 0x864C
ENCODING 34380
SWIDTH 1000 0
DWIDTH 16 0
BBX 16 16 0 -2
BITMAP
0000
FBFE
8A02
8BFE
8A02
8A02
8AFA
8A8A
FA8A
8A8A
82FA
028A
0202
020A
0204
0000
ENDCHAR
STARTCHAR 0x864D
ENCODING 34381
SWIDTH 1000 0
DWIDTH 16 0
BBX 16 16 0 -2
BITMAP
0100
0100
F9FE
8902
8A02
8D2A
8ABA
8A4A
8AAA
FB1A
8A0A
8BFA
020A
0002
000A
0004
ENDCHAR
STARTCHAR 0x864E
ENCODING 34382
SWIDTH 1000 0
DWIDTH 16 0
BBX 16 16 0 -2
BITMAP
0040
0060
F840
8FFE
8880
8900
89FC
8B04
8DFC
F904
8904
81FC
0104
0104
0114
0108
ENDCHAR
STARTCHAR 0x864F
ENCODING 34383
SWIDTH 1000 0
DWIDTH 16 0
BBX 16 16 0 -2
BITMAP
0010
0210
F250
9254
925E
9FF4
9254
9254
9254
925C
F254
9350
8E42
0442
003E
0000
ENDCHAR
STARTCHAR 0x8650
ENCODING 34384
SWIDTH 1000 0
DWIDTH 16 0
BBX 16 16 0 -2
BITMAP
0100
0104
79FE
4A20
4A20
4DFC
4920
4920
4920
7FFE
4820
4020
0020
0020
0020
0000
ENDCHAR
STARTCHAR 0x8651
ENCODING 34385
SWIDTH 1000 0
DWIDTH 16 0
BBX 16 16 0 -2
BITMAP
0100
0180
F33E
9680
98C0
9180
917E
9308
9508
F108
9108
8108
0108
0108
0128
0110
ENDCHAR
STARTCHAR 0x8652
ENCODING 34386
SWIDTH 1000 0
DWIDTH 16 0
BBX 16 16 0 -2
BITMAP
0080
3E90
22B8
22C4
3E84
227C
0400
0640
0820
1010
2FEE
4224
0220
0420
08A0
1040
ENDCHAR
STARTCHAR 0x8653
ENCODING 34387
SWIDTH 1000 0
DWIDTH 16 0
BBX 16 16 0 -2
BITMAP
0120
01A0
F920
89FC
8A20
8C20
8824
8FFE
8800
FBFC
8A04
8204
0204
0204
03FC
0204
ENDCHAR
STARTCHAR 0x8654
ENCODING 34388
SWIDTH 1000 0
DWIDTH 16 0
BBX 16 16 0 -2
BITMAP
0FF0
0810
0810
0FF0
0000
1FF8
1008
1FF8
1008
1FF8
1008
1FF8
1008
0630
180C
6006
ENDCHAR
STARTCHAR 0x8655
ENCODING 34389
SWIDTH 1000 0
DWIDTH 16 0
BBX 16 16 0 -2
BITMAP
07FC
0040
F040
93FC
9040
9040
97FC
9110
9110
FFFE
9110
0110
0210
0210
0410
0810
ENDCHAR
STARTCHAR 0x8656
ENCODING 34390
SWIDTH 1000 0
DWIDTH 16 0
BBX 16 16 0 -2
BITMAP
0000
07FE
F800
8800
89F8
8908
8908
8908
F9F8
8800
8010
0118
0090
00A4
0FFE
0000
ENDCHAR
STARTCHAR 0x8657
ENCODING 34391
SWIDTH 1000 0
DWIDTH 16 0
BBX 16 16 0 -2
BITMAP
0100
0120
F910
8FFE
8940
894C
8970
894C
8958
F960
8A48
0274
05C4
1846
603C
0000
ENDCHAR
STARTCHAR 0x8658
ENCODING 34392
SWIDTH 1000 0
DWIDTH 16 0
BBX 16 16 0 -2
BITMAP
0000
03F8
FA08
8A08
8A08
8BF8
8A40
8840
8A7C
FA40
8A40
8540
04C0
0860
101E
2000
ENDCHAR
STARTCHAR 0x8659
ENCODING 34393
SWIDTH 1000 0
DWIDTH 16 0
BBX 16 16 0 -2
BITMAP
0200
03FE
F204
9204
96F4
9694
9A94
9294
9294
F2F4
9294
8204
0204
0214
0208
0000
ENDCHAR
STARTCHAR 0x865A
ENCODING 34394
SWIDTH 1000 0
DWIDTH 16 0
BBX 16 16 0 -2
BITMAP
03F8
0208
FA08
8BF8
8A08
8BF8
8A08
8A08
8BF8
FAA8
88A0
00A0
0122
0122
021E
0400
ENDCHAR
STARTCHAR 0x865B
ENCODING 34395
SWIDTH 1000 0
DWIDTH 16 0
BBX 16 16 0 -2
BITMAP
0080
0040
F7FE
9444
9A48
9240
93FC
9240
9440
F840
9FFE
0040
0040
0040
0040
0040
ENDCHAR
STARTCHAR 0x865C
ENCODING 34396
SWIDTH 1000 0
DWIDTH 16 0
BBX 16 16 0 -2
BITMAP
0040
0040
F7FE
9040
97FE
9404
9800
93F8
9030
F040
9FFE
0040
0040
0040
0140
0080
ENDCHAR
STARTCHAR 0x865D
ENCODING 34397
SWIDTH 1000 0
DWIDTH 16 0
BBX 16 16 0 -2
BITMAP
0080
0040
7BF8
4A08
4BF8
4A08
4A08
4BF8
4A80
7A8C
4A70
0220
0230
029E
0708
0200
ENDCHAR
STARTCHAR 0x865E
ENCODING 34398
SWIDTH 1000 0
DWIDTH 16 0
BBX 16 16 0 -2
BITMAP
0002
07C2
F442
9452
9452
97D2
9112
9112
97D2
F152
9152
0252
0242
0542
088A
1004
ENDCHAR
STARTCHAR 0x865F
ENCODING 34399
SWIDTH 1000 0
DWIDTH 16 0
BBX 16 16 0 -2
BITMAP
0110
0110
F71E
9110
9110
9000
97FC
9040
F040
9040
97FE
0040
0040
0040
0040
0040
ENDCHAR
STARTCHAR 0x8660
ENCODING 34400
SWIDTH 1000 0
DWIDTH 16 0
BBX 16 16 0 -2
BITMAP
0008
007C
7FC8
488C
4A68
4950
4920
4810
4810
7FFE
4910
00D0
0090
0010
0050
0020
ENDCHAR
STARTCHAR 0x8661
ENCODING 34401
SWIDTH 1000 0
DWIDTH 16 0
BBX 16 16 0 -2
BITMAP
001C
03E0
7884
4A46
4924
49A8
4940
4FFE
4888
7888
4910
0090
0060
0098
030C
0C04
ENDCHAR
STARTCHAR 0x8662
ENCODING 34402
SWIDTH 1000 0
DWIDTH 16 0
BBX 16 16 0 -2
BITMAP
001C
07E0
F008
948C
9368
9250
93F8
9010
9020
F7FE
9040
8040
0040
0040
0140
0080
ENDCHAR
STARTCHAR 0x8663
ENCODING 34403
SWIDTH 1000 0
DWIDTH 16 0
BBX 16 16 0 -2
BITMAP
0000
FBFC
8A04
8BFC
8A04
8BFC
8800
8BFC
F840
8840
07FE
0040
0040
0040
0040
0040
ENDCHAR
STARTCHAR 0x8664
ENCODING 34404
SWIDTH 1000 0
DWIDTH 16 0
BBX 16 16 0 -2
BITMAP
0010
0218
7990
4920
4BF8
4A08
4A08
4A08
4BF8
7AA8
48A0
00A0
0122
0122
021E
0400
ENDCHAR
STARTCHAR 0x8665
ENCODING 34405
SWIDTH 1000 0
DWIDTH 16 0
BBX 16 16 0 -2
BITMAP
0018
03E0
F040
97FE
90E0
9150
924C
95FA
9088
F090
90BC
8104
0104
0204
0428
0810
ENDCHAR
STARTCHAR 0x8666
ENCODING 34406
SWIDTH 1000 0
DWIDTH 16 0
BBX 16 16 0 -2
BITMAP
0120
0190
F308
924C
9444
98A0
9090
9108
9206
FFFC
9208
0208
0208
0208
03F8
0208
ENDCHAR
STARTCHAR 0x8667
ENCODING 34407
SWIDTH 1000 0
DWIDTH 16 0
BBX 16 16 0 -2
BITMAP
0080
00FC
F908
8A10
8FFE
8A22
8A22
8BFE
8A22
FA22
8BFE
0222
0222
0422
040A
0804
ENDCHAR
STARTCHAR 0x8668
ENCODING 34408
SWIDTH 1000 0
DWIDTH 16 0
BBX 16 16 0 -2
BITMAP
0000
03F8
FA08
8A08
8BF8
8A08
8A08
8BF8
8A08
FA08
8BF8
8000
0110
0388
060C
0808
ENDCHAR
STARTCHAR 0x8669
ENCODING 34409
SWIDTH 1000 0
DWIDTH 16 0
BBX 16 16 0 -2
BITMAP
0040
0040
F8A0
8910
8A4C
8C26
8BF8
8810
8820
FBFC
8A04
8204
0204
03FC
0204
0000
ENDCHAR
STARTCHAR 0x866A
ENCODING 34410
SWIDTH 1000 0
DWIDTH 16 0
BBX 16 16 0 -2
BITMAP
0000
03F8
F208
9208
93F8
9000
97FC
9444
9444
F7FC
9400
0400
0402
0402
03FE
0000
ENDCHAR
STARTCHAR 0x866B
ENCODING 34411
SWIDTH 1000 0
DWIDTH 16 0
BBX 16 16 0 -2
BITMAP
0040
0040
F040
97FE
9040
9248
9248
9248
9554
FCA4
90A0
0110
0108
020C
0406
0804
ENDCHAR
STARTCHAR 0x866C
ENCODING 34412
SWIDTH 1000 0
DWIDTH 16 0
BBX 16 16 0 -2
BITMAP
0040
0040
F0A0
9110
920C
9DF6
9040
9040
97FC
F040
9250
8348
024C
0448
0940
0080
ENDCHAR
STARTCHAR 0x866D
ENCODING 34413
SWIDTH 1000 0
DWIDTH 16 0
BBX 16 16 0 -2
BITMAP
0000
0F0C
F170
9110
9210
945C
9F50
9150
9150
F950
967C
8200
0500
0480
087E
1000
ENDCHAR
STARTCHAR 0x866E
ENCODING 34414
SWIDTH 1000 0
DWIDTH 16 0
BBX 16 16 0 -2
BITMAP
0040
0020
F3FE
9202
9404
91F8
9000
9000
97FE
F090
9090
0110
0112
0212
040E
0800
ENDCHAR
STARTCHAR 0x866F
ENCODING 34415
SWIDTH 1000 0
DWIDTH 16 0
BBX 16 16 0 -2
BITMAP
0004
07C4
F904
9114
9114
9FD4
9314
9394
F554
9554
8914
0904
1104
0114
0108
0000
ENDCHAR
STARTCHAR 0x8670
ENCODING 34416
SWIDTH 1000 0
DWIDTH 16 0
BBX 16 16 0 -2
BITMAP
0000
07FE
78A0
48A0
4BFC
4AA4
4AA4
4AA4
4B1C
7A04
4BFC
0204
0204
03FC
0204
0000
ENDCHAR
STARTCHAR 0x8671
ENCODING 34417
SWIDTH 1000 0
DWIDTH 16 0
BBX 16 16 0 -2
BITMAP
0040
0040
F7FC
9040
97FC
9444
97FC
9444
9444
F7FC
9040
8FFE
0040
0040
0040
0040
ENDCHAR
STARTCHAR 0x8672
ENCODING 34418
SWIDTH 1000 0
DWIDTH 16 0
BBX 16 16 0 -2
BITMAP
0040
0080
FBF8
8A08
8A08
8BF8
8A08
8A08
8BF8
F840
8840
07FC
0040
0040
0040
0040
ENDCHAR
STARTCHAR 0x8673
ENCODING 34419
SWIDTH 1000 0
DWIDTH 16 0
BBX 16 16 0 -2
BITMAP
0000
0FFE
F0A0
90A0
97FC
94A4
94A4
94A4
94A4
F7FC
90A0
80A0
00A0
00A0
0FFE
0000
ENDCHAR
STARTCHAR 0x8674
ENCODING 34420
SWIDTH 1000 0
DWIDTH 16 0
BBX 16 16 0 -2
BITMAP
0040
0040
7BFC
4840
4840
4FFE
4800
4840
4A40
7A7C
4A40
4540
04C0
0860
101E
0000
ENDCHAR
STARTCHAR 0x8675
ENCODING 34421
SWIDTH 1000 0
DWIDTH 16 0
BBX 16 16 0 -2
BITMAP
0000
7FFC
1044
2044
3E28
6210
A228
3E46
2084
0FF0
0810
0810
0810
0FF0
0810
0000
ENDCHAR
STARTCHAR 0x8676
ENCODING 34422
SWIDTH 1000 0
DWIDTH 16 0
BBX 16 16 0 -2
BITMAP
0110
0990
F510
9210
9692
9952
9154
9110
9310
F528
8928
1124
0124
0142
0542
0280
ENDCHAR
STARTCHAR 0x8677
ENCODING 34423
SWIDTH 1000 0
DWIDTH 16 0
BBX 16 16 0 -2
BITMAP
03F8
F808
89F8
8808
8BF8
8800
8FFE
8C04
FBF8
8908
0110
0090
0060
0090
010E
0604
ENDCHAR
STARTCHAR 0x8678
ENCODING 34424
SWIDTH 1000 0
DWIDTH 16 0
BBX 16 16 0 -2
BITMAP
0100
0100
7FFC
0100
3FF8
0380
0560
0938
1110
3C80
2498
24E0
2484
3C84
247C
0000
ENDCHAR
STARTCHAR 0x8679
ENCODING 34425
SWIDTH 1000 0
DWIDTH 16 0
BBX 16 16 0 -2
BITMAP
0000
03FC
F840
8840
8FFE
8800
8BF8
8A08
8A48
FA48
8A48
0248
00A0
0118
020C
0408
ENDCHAR
STARTCHAR 0x867A
ENCODING 34426
SWIDTH 1000 0
DWIDTH 16 0
BBX 16 16 0 -2
BITMAP
0108
0108
F108
97C8
9128
9168
91A8
9128
930E
F578
9108
8108
0108
0508
0208
0000
ENDCHAR
STARTCHAR 0x867B
ENCODING 34427
SWIDTH 1000 0
DWIDTH 16 0
BBX 16 16 0 -2
BITMAP
0100
0100
3FFC
0100
7FFE
0320
0410
1FF8
0808
3C80
2498
24E0
2484
3C86
247C
0000
ENDCHAR
STARTCHAR 0x867C
ENCODING 34428
SWIDTH 1000 0
DWIDTH 16 0
BBX 16 16 0 -2
BITMAP
0000
F7FE
9090
9090
97FE
9492
9492
9492
F552
952A
864E
068A
0402
0412
040A
0404
ENDCHAR
STARTCHAR 0x867D
ENCODING 34429
SWIDTH 1000 0
DWIDTH 16 0
BBX 16 16 0 -2
BITMAP
0020
0820
F650
9450
9088
92A6
9314
9210
92FC
FC04
9408
0450
0420
0410
0410
0000
ENDCHAR
STARTCHAR 0x867E
ENCODING 34430
SWIDTH 1000 0
DWIDTH 16 0
BBX 16 16 0 -2
BITMAP
0410
F210
9310
9254
9852
9552
9590
9114
F216
9214
8E08
0210
0220
0240
0280
0200
ENDCHAR
STARTCHAR 0x8680
ENCODING 34432
SWIDTH 1000 0
DWIDTH 16 0
BBX 16 16 0 -2
BITMAP
0000
F77C
9544
9544
9644
967C
9544
9544
F57C
9544
9744
0444
0444
04FE
0400
0000
ENDCHAR
STARTCHAR 0x8681
ENCODING 34433
SWIDTH 1000 0
DWIDTH 16 0
BBX 16 16 0 -2
BITMAP
0018
03E0
F040
97FE
90E0
9150
9248
9C46
9080
F7FE
9110
0190
0060
00D8
030E
0C04
ENDCHAR
STARTCHAR 0x8682
ENCODING 34434
SWIDTH 1000 0
DWIDTH 16 0
BBX 16 16 0 -2
BITMAP
0040
0040
78A0
4910
4908
4A06
4FFC
4840
4840
7BFC
4A50
4158
0160
0044
07FE
0000
ENDCHAR
STARTCHAR 0x8683
ENCODING 34435
SWIDTH 1000 0
DWIDTH 16 0
BBX 16 16 0 -2
BITMAP
0110
0110
7FFE
4910
49F0
4910
4910
49F0
4910
4910
7FFE
4910
0188
030C
0206
0404
ENDCHAR
STARTCHAR 0x8684
ENCODING 34436
SWIDTH 1000 0
DWIDTH 16 0
BBX 16 16 0 -2
BITMAP
00C0
031C
FA04
8A04
8B9C
8A04
8A04
8A04
8BFC
FAA4
88A0
0120
0122
0222
041E
0800
ENDCHAR
STARTCHAR 0x8685
ENCODING 34437
SWIDTH 1000 0
DWIDTH 16 0
BBX 16 16 0 -2
BITMAP
0108
0090
FBFC
8840
8840
8BFC
8840
8840
FFFE
88A0
88A0
0120
0124
0224
041C
0800
ENDCHAR
STARTCHAR 0x8686
ENCODING 34438
SWIDTH 1000 0
DWIDTH 16 0
BBX 16 16 0 -2
BITMAP
0040
0040
FFFC
90A0
9110
9248
9FFE
9248
93F8
9248
F248
93F8
024A
0042
003E
0000
ENDCHAR
STARTCHAR 0x8687
ENCODING 34439
SWIDTH 1000 0
DWIDTH 16 0
BBX 16 16 0 -2
BITMAP
0120
0120
0120
F7FC
9120
9120
9FFE
9000
93F0
F210
9210
83F0
0210
0210
03F0
0210
ENDCHAR
STARTCHAR 0x8688
ENCODING 34440
SWIDTH 1000 0
DWIDTH 16 0
BBX 16 16 0 -2
BITMAP
0040
0040
F0A0
9110
9288
944E
9BF4
9010
9020
F080
9048
0534
0522
050A
08F8
0000
ENDCHAR
STARTCHAR 0x8689
ENCODING 34441
SWIDTH 1000 0
DWIDTH 16 0
BBX 16 16 0 -2
BITMAP
0410
0310
F210
9FA8
9228
9244
9382
92A0
9298
F488
9480
04A0
0898
0B8C
1108
0000
ENDCHAR
STARTCHAR 0x868A
ENCODING 34442
SWIDTH 1000 0
DWIDTH 16 0
BBX 16 16 0 -2
BITMAP
0090
0090
F090
93FC
9294
9294
93FC
9294
9294
F294
97FE
8000
0108
0184
0206
0404
ENDCHAR
STARTCHAR 0x868B
ENCODING 34443
SWIDTH 1000 0
DWIDTH 16 0
BBX 16 16 0 -2
BITMAP
0040
0040
7FFE
4848
4A48
4A48
4D54
4D62
48C0
78E0
4950
0248
0446
1840
0040
0040
ENDCHAR
STARTCHAR 0x868C
ENCODING 34444
SWIDTH 1000 0
DWIDTH 16 0
BBX 16 16 0 -2
BITMAP
0200
020E
F270
9240
9FC0
927E
9748
96C8
96C8
FA48
8A48
9248
0288
0288
0308
0000
ENDCHAR
STARTCHAR 0x868D
ENCODING 34445
SWIDTH 1000 0
DWIDTH 16 0
BBX 16 16 0 -2
BITMAP
0000
07FE
F420
9420
95FC
9420
9420
97FE
9420
F420
95FC
8420
0820
0BFE
1000
0000
ENDCHAR
STARTCHAR 0x868E
ENCODING 34446
SWIDTH 1000 0
DWIDTH 16 0
BBX 16 16 0 -2
BITMAP
0000
01D0
FE10
9250
9970
9550
97D0
9090
9110
F1D0
9F10
8510
0112
0112
050E
0200
ENDCHAR
STARTCHAR 0x868F
ENCODING 34447
SWIDTH 1000 0
DWIDTH 16 0
BBX 16 16 0 -2
BITMAP
0040
0048
787C
4840
4BF8
4A08
4BF8
4A08
4BF8
7A48
4840
07FE
0040
0040
0040
0040
ENDCHAR
STARTCHAR 0x8690
ENCODING 34448
SWIDTH 1000 0
DWIDTH 16 0
BBX 16 16 0 -2
BITMAP
0200
0100
FFFE
0820
0440
3FF8
2108
2FE8
2108
27C8
2448
2448
27C8
2008
2028
2010
ENDCHAR
STARTCHAR 0x8691
ENCODING 34449
SWIDTH 1000 0
DWIDTH 16 0
BBX 16 16 0 -2
BITMAP
0040
0040
7BFC
4840
4840
4FFE
4908
4890
7FFC
4840
4840
07FE
0040
0040
0040
0040
ENDCHAR
STARTCHAR 0x8692
ENCODING 34450
SWIDTH 1000 0
DWIDTH 16 0
BBX 16 16 0 -2
BITMAP
0000
003C
7BC0
4800
4A48
494C
4950
4840
4FFE
78E0
4950
0358
064E
1844
0040
0040
ENDCHAR
STARTCHAR 0x8693
ENCODING 34451
SWIDTH 1000 0
DWIDTH 16 0
BBX 16 16 0 -2
BITMAP
0080
0040
F3FE
9404
9528
9190
910C
9208
9000
F7FC
9040
0040
0040
0FFE
0000
0000
ENDCHAR
STARTCHAR 0x8694
ENCODING 34452
SWIDTH 1000 0
DWIDTH 16 0
BBX 16 16 0 -2
BITMAP
0080
0040
F7FC
9000
93F8
9208
93F8
9000
93F8
F010
97FE
0020
0020
0020
00A0
0040
ENDCHAR
STARTCHAR 0x8695
ENCODING 34453
SWIDTH 1000 0
DWIDTH 16 0
BBX 16 16 0 -2
BITMAP
2000
33FC
2040
7C40
51F8
9048
1048
13FE
FC00
11FC
1104
1104
1104
11FC
1104
0000
ENDCHAR
STARTCHAR 0x8696
ENCODING 34454
SWIDTH 1000 0
DWIDTH 16 0
BBX 16 16 0 -2
BITMAP
0000
7C7C
4444
7C7C
4444
7C7C
4004
47C4
4444
4444
4444
47C4
4444
4004
401C
4008
ENDCHAR
STARTCHAR 0x8697
ENCODING 34455
SWIDTH 1000 0
DWIDTH 16 0
BBX 16 16 0 -2
BITMAP
0040
0040
7BFC
4840
4BF8
4848
4FFE
4848
4BF8
7840
4A7C
0240
0540
04C0
083E
1000
ENDCHAR
STARTCHAR 0x8698
ENCODING 34456
SWIDTH 1000 0
DWIDTH 16 0
BBX 16 16 0 -2
BITMAP
0000
03FC
F204
9204
93FC
9220
9220
92A4
92A4
92FC
F424
9420
0524
0924
09FC
1104
ENDCHAR
STARTCHAR 0x8699
ENCODING 34457
SWIDTH 1000 0
DWIDTH 16 0
BBX 16 16 0 -2
BITMAP
1040
0840
3E7E
2284
2288
3F48
2230
2030
404E
4184
9FF0
1010
1010
1FF0
1010
0000
ENDCHAR
STARTCHAR 0x869A
ENCODING 34458
SWIDTH 1000 0
DWIDTH 16 0
BBX 16 16 0 -2
BITMAP
1020
0828
0824
3E3E
22E4
2218
3E30
2052
218A
4FF6
4810
8810
0810
0FF0
0810
0000
ENDCHAR
STARTCHAR 0x869B
ENCODING 34459
SWIDTH 1000 0
DWIDTH 16 0
BBX 16 16 0 -2
BITMAP
0080
0080
F1FC
9108
9210
9480
933C
9204
9204
F3BC
9204
8204
0204
03FC
0204
0000
ENDCHAR
STARTCHAR 0x869C
ENCODING 34460
SWIDTH 1000 0
DWIDTH 16 0
BBX 16 16 0 -2
BITMAP
0080
0040
0020
F3FE
9404
9608
93FC
92A4
94A4
F6A4
8AB4
1128
0120
0222
041E
0800
ENDCHAR
STARTCHAR 0x869D
ENCODING 34461
SWIDTH 1000 0
DWIDTH 16 0
BBX 16 16 0 -2
BITMAP
0840
0840
284C
2F70
2840
2842
2F42
F03E
4000
3E7C
2244
2244
2244
3E7C
2244
0000
ENDCHAR
STARTCHAR 0x869E
ENCODING 34462
SWIDTH 1000 0
DWIDTH 16 0
BBX 16 16 0 -2
BITMAP
0000
1FF0
1010
1010
1FF0
0100
FFFE
0100
3FF8
2008
27C8
2448
27C8
2008
3FF8
2008
ENDCHAR
STARTCHAR 0x869F
ENCODING 34463
SWIDTH 1000 0
DWIDTH 16 0
BBX 16 16 0 -2
BITMAP
0040
07FC
F040
97F8
9048
97FE
9048
97F8
9100
F100
9FFC
0210
0120
00C0
0330
0C0C
ENDCHAR
STARTCHAR 0x86A0
ENCODING 34464
SWIDTH 1000 0
DWIDTH 16 0
BBX 16 16 0 -2
BITMAP
0000
00C0
0700
F11E
9112
97D2
9112
9312
9392
9552
F552
991E
0912
1100
0100
0100
ENDCHAR
STARTCHAR 0x86A1
ENCODING 34465
SWIDTH 1000 0
DWIDTH 16 0
BBX 16 16 0 -2
BITMAP
0000
07FE
F090
9090
9090
97BE
9492
9402
F402
979E
8090
0090
0090
0094
0FFE
0000
ENDCHAR
STARTCHAR 0x86A2
ENCODING 34466
SWIDTH 1000 0
DWIDTH 16 0
BBX 16 16 0 -2
BITMAP
1020
0830
7E20
4240
427E
42C8
7F48
4048
5E48
5250
5220
5230
5E48
928C
8106
0204
ENDCHAR
STARTCHAR 0x86A3
ENCODING 34467
SWIDTH 1000 0
DWIDTH 16 0
BBX 16 16 0 -2
BITMAP
060E
38F0
2080
3EFE
2488
2488
2488
4508
4A00
9FF0
1010
1010
1010
1FF0
1010
0000
ENDCHAR
STARTCHAR 0x86A4
ENCODING 34468
SWIDTH 1000 0
DWIDTH 16 0
BBX 16 16 0 -2
BITMAP
0000
07FE
F040
9040
97FC
9444
9654
9554
9554
F6EC
96EC
0444
0444
0454
0448
0000
ENDCHAR
STARTCHAR 0x86A5
ENCODING 34469
SWIDTH 1000 0
DWIDTH 16 0
BBX 16 16 0 -2
BITMAP
0200
0200
F3BC
9524
9924
97A4
9924
9524
F5A4
9524
8524
05F4
0728
0C20
0020
0000
ENDCHAR
STARTCHAR 0x86A6
ENCODING 34470
SWIDTH 1000 0
DWIDTH 16 0
BBX 16 16 0 -2
BITMAP
0040
0040
7FFC
4840
4BF8
4840
4FFE
4800
4BF8
7A08
4BF8
4208
03F8
0208
0228
0210
ENDCHAR
STARTCHAR 0x86A7
ENCODING 34471
SWIDTH 1000 0
DWIDTH 16 0
BBX 16 16 0 -2
BITMAP
0110
0110
F110
97D0
9110
9118
97D4
9116
9112
F7D0
9110
0110
01D0
0E10
0010
0010
ENDCHAR
STARTCHAR 0x86A8
ENCODING 34472
SWIDTH 1000 0
DWIDTH 16 0
BBX 16 16 0 -2
BITMAP
0040
0040
7BF4
4848
4850
4FFE
4840
4880
4BF8
7D08
4908
11F8
0108
0108
01F8
0108
ENDCHAR
STARTCHAR 0x86A9
ENCODING 34473
SWIDTH 1000 0
DWIDTH 16 0
BBX 16 16 0 -2
BITMAP
0000
03FC
7A04
4BFC
4A44
4A44
4BFC
4A64
4A54
7A54
4BFC
0204
0204
03FC
0204
0000
ENDCHAR
STARTCHAR 0x86AA
ENCODING 34474
SWIDTH 1000 0
DWIDTH 16 0
BBX 16 16 0 -2
BITMAP
0000
F7FE
9492
9492
97FE
9482
9080
91FC
F104
9288
84D0
00A0
0040
0080
0300
0C00
ENDCHAR
STARTCHAR 0x86AB
ENCODING 34475
SWIDTH 1000 0
DWIDTH 16 0
BBX 16 16 0 -2
BITMAP
0040
0244
7A44
4A44
4BFC
4800
4FFE
4840
4880
79FC
4904
4304
0504
09FC
0104
0000
ENDCHAR
STARTCHAR 0x86AC
ENCODING 34476
SWIDTH 1000 0
DWIDTH 16 0
BBX 16 16 0 -2
BITMAP
0000
0110
0198
0220
77BC
54A4
54A4
54C4
57A4
549C
7494
5484
4784
0494
0488
0000
ENDCHAR
STARTCHAR 0x86AD
ENCODING 34477
SWIDTH 1000 0
DWIDTH 16 0
BBX 16 16 0 -2
BITMAP
0048
024C
F148
9150
97FC
9040
97FE
9090
91F8
F316
9514
8970
0124
0104
00FC
0000
ENDCHAR
STARTCHAR 0x86AE
ENCODING 34478
SWIDTH 1000 0
DWIDTH 16 0
BBX 16 16 0 -2
BITMAP
0208
0110
F0A0
97FC
9444
9444
97FC
9444
9444
F7FC
9040
0FFE
0040
0040
0040
0040
ENDCHAR
STARTCHAR 0x86AF
ENCODING 34479
SWIDTH 1000 0
DWIDTH 16 0
BBX 16 16 0 -2
BITMAP
0000
03FC
7A04
4A04
4BFC
4A24
4A20
4BFE
4A20
4A20
7AFC
4A84
0284
0484
04FC
0884
ENDCHAR
STARTCHAR 0x86B0
ENCODING 34480
SWIDTH 1000 0
DWIDTH 16 0
BBX 16 16 0 -2
BITMAP
01F8
7908
49F8
4908
49F8
4800
4FFE
4900
79FC
4A54
4254
0494
0124
0644
0194
0608
ENDCHAR
STARTCHAR 0x86B1
ENCODING 34481
SWIDTH 1000 0
DWIDTH 16 0
BBX 16 16 0 -2
BITMAP
0040
0040
F0A0
9118
93FC
9402
9BF8
9208
93F8
F110
97FE
8110
0210
0210
0410
0810
ENDCHAR
STARTCHAR 0x86B2
ENCODING 34482
SWIDTH 1000 0
DWIDTH 16 0
BBX 16 16 0 -2
BITMAP
0110
0110
7FFE
4910
49F0
4910
49F0
4910
4910
7FFE
4A90
02C8
028C
0308
03FE
0000
ENDCHAR
STARTCHAR 0x86B3
ENCODING 34483
SWIDTH 1000 0
DWIDTH 16 0
BBX 16 16 0 -2
BITMAP
0000
03F8
F208
93F8
9208
9208
93F8
9040
97FC
F010
9218
0110
00A0
0FFE
0000
0000
ENDCHAR
STARTCHAR 0x86B4
ENCODING 34484
SWIDTH 1000 0
DWIDTH 16 0
BBX 16 16 0 -2
BITMAP
0810
0810
0810
7EFE
0810
0810
7EFE
0000
0000
7E7E
4242
4242
4242
7E7E
4242
0000
ENDCHAR
STARTCHAR 0x86B5
ENCODING 34485
SWIDTH 1000 0
DWIDTH 16 0
BBX 16 16 0 -2
BITMAP
0000
3E7C
2244
2244
3E7C
1008
1108
1148
5528
5528
9508
1108
2108
2108
4108
8108
ENDCHAR
STARTCHAR 0x86B6
ENCODING 34486
SWIDTH 1000 0
DWIDTH 16 0
BBX 16 16 0 -2
BITMAP
0120
0120
F524
95F8
9520
9522
959E
9E40
F044
97FE
80E0
0150
0248
044E
0844
0040
ENDCHAR
STARTCHAR 0x86B7
ENCODING 34487
SWIDTH 1000 0
DWIDTH 16 0
BBX 16 16 0 -2
BITMAP
0000
01F8
7908
49E8
4928
4928
4BFC
4A04
4AF4
7A94
4A94
02F4
0294
0204
0214
0208
ENDCHAR
STARTCHAR 0x86B8
ENCODING 34488
SWIDTH 1000 0
DWIDTH 16 0
BBX 16 16 0 -2
BITMAP
0100
F11E
9FD2
9214
93D4
9658
9658
9BD4
9254
F3D2
925A
0254
0250
0350
0290
0000
ENDCHAR
STARTCHAR 0x86B9
ENCODING 34489
SWIDTH 1000 0
DWIDTH 16 0
BBX 16 16 0 -2
BITMAP
0110
0110
F3D8
9254
9654
9990
9090
9360
9C1E
F3F8
9208
03F8
0208
0208
03F8
0208
ENDCHAR
STARTCHAR 0x86BA
ENCODING 34490
SWIDTH 1000 0
DWIDTH 16 0
BBX 16 16 0 -2
BITMAP
0000
07FE
7890
4BFC
4A94
4A94
4BFC
4880
4884
7FFE
4910
4190
0060
0090
030C
0C08
ENDCHAR
STARTCHAR 0x86BB
ENCODING 34491
SWIDTH 1000 0
DWIDTH 16 0
BBX 16 16 0 -2
BITMAP
0000
07FE
F040
9080
93FC
9294
9294
92F4
9294
F294
92F4
8294
0294
03FC
0204
0000
ENDCHAR
STARTCHAR 0x86BC
ENCODING 34492
SWIDTH 1000 0
DWIDTH 16 0
BBX 16 16 0 -2
BITMAP
0108
0108
F108
9FC8
913E
9308
9388
9348
953E
F522
8922
1122
0122
013E
0122
0100
ENDCHAR
STARTCHAR 0x86BD
ENCODING 34493
SWIDTH 1000 0
DWIDTH 16 0
BBX 16 16 0 -2
BITMAP
0000
03FE
F442
9444
93FC
9040
93F8
9248
93F8
F248
93F8
8040
0FFE
0040
0040
0040
ENDCHAR
STARTCHAR 0x86BE
ENCODING 34494
SWIDTH 1000 0
DWIDTH 16 0
BBX 16 16 0 -2
BITMAP
0080
F0F8
9110
9220
97FC
9A94
9294
930C
F244
9040
87FE
00A0
00A0
0118
020E
0404
ENDCHAR
STARTCHAR 0x86BF
ENCODING 34495
SWIDTH 1000 0
DWIDTH 16 0
BBX 16 16 0 -2
BITMAP
003C
07C8
F24C
9128
97FC
9080
9084
97FE
9080
F1FC
9188
8250
0420
08D8
110E
0604
ENDCHAR
STARTCHAR 0x86C0
ENCODING 34496
SWIDTH 1000 0
DWIDTH 16 0
BBX 16 16 0 -2
BITMAP
0100
021E
F7D2
9452
97D2
9452
9452
97D2
9012
F412
979A
0414
0450
0450
03D0
0010
ENDCHAR
STARTCHAR 0x86C1
ENCODING 34497
SWIDTH 1000 0
DWIDTH 16 0
BBX 16 16 0 -2
BITMAP
003C
07C0
F040
9FFE
9040
93F8
9248
93F8
9248
F3F8
9040
87FC
0040
0040
0FFE
0000
ENDCHAR
STARTCHAR 0x86C2
ENCODING 34498
SWIDTH 1000 0
DWIDTH 16 0
BBX 16 16 0 -2
BITMAP
0080
03F0
7890
4890
4FFC
4800
4BF8
4A08
4BF8
7840
4BFC
0240
0240
07FE
0040
0040
ENDCHAR
STARTCHAR 0x86C3
ENCODING 34499
SWIDTH 1000 0
DWIDTH 16 0
BBX 16 16 0 -2
BITMAP
003C
07C0
0040
F040
9FFE
9040
9140
965C
9444
F444
975C
8444
0444
07FC
0404
0000
ENDCHAR
STARTCHAR 0x86C4
ENCODING 34500
SWIDTH 1000 0
DWIDTH 16 0
BBX 16 16 0 -2
BITMAP
0100
0100
79F8
4908
4BE8
4D28
4928
49E8
7908
4828
0010
2920
2498
466C
4448
0000
ENDCHAR
STARTCHAR 0x86C5
ENCODING 34501
SWIDTH 1000 0
DWIDTH 16 0
BBX 16 16 0 -2
BITMAP
0040
0080
F9FC
8904
89FC
8904
8904
89FC
8800
FBFE
8820
8020
01FC
0020
0020
03FE
ENDCHAR
STARTCHAR 0x86C6
ENCODING 34502
SWIDTH 1000 0
DWIDTH 16 0
BBX 16 16 0 -2
BITMAP
0080
0044
F7FE
9490
9490
97FE
9490
94F0
9400
F5FC
9488
0450
0820
08D8
110E
2604
ENDCHAR
STARTCHAR 0x86C7
ENCODING 34503
SWIDTH 1000 0
DWIDTH 16 0
BBX 16 16 0 -2
BITMAP
0000
0FE0
0820
0820
0FE0
0100
7D7C
4544
4544
7D7C
0100
2108
2108
2108
3FF8
0000
ENDCHAR
STARTCHAR 0x86C8
ENCODING 34504
SWIDTH 1000 0
DWIDTH 16 0
BBX 16 16 0 -2
BITMAP
0080
0040
F7FC
9000
91F0
9110
91F0
9000
F7FE
9404
89E0
8120
0122
0222
041E
0800
ENDCHAR
STARTCHAR 0x86C9
ENCODING 34505
SWIDTH 1000 0
DWIDTH 16 0
BBX 16 16 0 -2
BITMAP
0040
F040
90A0
9118
97F6
9800
9794
9494
F7A8
94C8
87D0
04A8
04A4
0492
0592
0000
ENDCHAR
STARTCHAR 0x86CA
ENCODING 34506
SWIDTH 1000 0
DWIDTH 16 0
BBX 16 16 0 -2
BITMAP
0100
7FFC
0100
3D78
2548
2548
3D78
0100
FFFE
1110
1138
10A0
1040
1430
381C
1008
ENDCHAR
STARTCHAR 0x86CB
ENCODING 34507
SWIDTH 1000 0
DWIDTH 16 0
BBX 16 16 0 -2
BITMAP
0200
0200
FFBC
9214
9F94
9224
9FA4
9254
9288
F240
8FFC
0040
00A0
0118
060E
1804
ENDCHAR
STARTCHAR 0x86CC
ENCODING 34508
SWIDTH 1000 0
DWIDTH 16 0
BBX 16 16 0 -2
BITMAP
0078
3F80
0204
FFFE
0820
17F8
242E
C7E4
0000
1FF8
1008
17E8
1428
17E8
1008
1018
ENDCHAR
STARTCHAR 0x86CD
ENCODING 34509
SWIDTH 1000 0
DWIDTH 16 0
BBX 16 16 0 -2
BITMAP
0080
07FC
F210
9118
9120
97FC
9400
9418
F4E0
9718
9460
0586
0818
08E0
1700
2000
ENDCHAR
STARTCHAR 0x86CE
ENCODING 34510
SWIDTH 1000 0
DWIDTH 16 0
BBX 16 16 0 -2
BITMAP
3E7C
2244
2244
3E7C
0000
1FF0
1110
1FF0
1110
1FF0
0100
7FFC
0100
0100
0100
0100
ENDCHAR
STARTCHAR 0x86CF
ENCODING 34511
SWIDTH 1000 0
DWIDTH 16 0
BBX 16 16 0 -2
BITMAP
0040
0048
F7FC
90A0
9110
924E
9FFC
9040
9150
F110
97FE
8110
0210
0210
0410
0810
ENDCHAR
STARTCHAR 0x86D0
ENCODING 34512
SWIDTH 1000 0
DWIDTH 16 0
BBX 16 16 0 -2
BITMAP
0080
0080
F140
92B0
944E
9BF4
9210
93F0
9210
F3F0
9248
8258
0230
029C
0708
0200
ENDCHAR
STARTCHAR 0x86D1
ENCODING 34513
SWIDTH 1000 0
DWIDTH 16 0
BBX 16 16 0 -2
BITMAP
0220
0330
F220
94BC
9544
9F44
9284
9544
FFA4
90B4
9124
0A84
0A84
1004
0014
0008
ENDCHAR
STARTCHAR 0x86D2
ENCODING 34514
SWIDTH 1000 0
DWIDTH 16 0
BBX 16 16 0 -2
BITMAP
0010
0014
F7FE
9410
9410
95D4
9416
9494
97D4
F548
954A
049A
0556
0A26
0842
1000
ENDCHAR
STARTCHAR 0x86D3
ENCODING 34515
SWIDTH 1000 0
DWIDTH 16 0
BBX 16 16 0 -2
BITMAP
1210
0918
0920
3FFE
2004
4FF0
0810
0810
0FF0
0000
1FF8
1008
1008
1008
1FF8
0000
ENDCHAR
STARTCHAR 0x86D4
ENCODING 34516
SWIDTH 1000 0
DWIDTH 16 0
BBX 16 16 0 -2
BITMAP
0120
0110
7FFC
0100
1FF0
1110
1FF0
1110
1FF0
1110
0080
3E98
22E0
2284
3E86
227C
ENDCHAR
STARTCHAR 0x86D5
ENCODING 34517
SWIDTH 1000 0
DWIDTH 16 0
BBX 16 16 0 -2
BITMAP
0100
019C
F170
9220
934C
96F0
9A28
9244
92FE
F214
9258
0254
0296
0314
0250
0220
ENDCHAR
STARTCHAR 0x86D6
ENCODING 34518
SWIDTH 1000 0
DWIDTH 16 0
BBX 16 16 0 -2
BITMAP
0100
0100
F1F8
9210
93FC
9404
9BFC
9004
93FC
F004
9040
8534
0522
090A
00F8
0000
ENDCHAR
STARTCHAR 0x86D7
ENCODING 34519
SWIDTH 1000 0
DWIDTH 16 0
BBX 16 16 0 -2
BITMAP
0FE0
0820
0FE0
0000
7E7C
4244
7E44
427C
0100
7FFE
0340
0520
0918
110E
6104
0100
ENDCHAR
STARTCHAR 0x86D8
ENCODING 34520
SWIDTH 1000 0
DWIDTH 16 0
BBX 16 16 0 -2
BITMAP
0800
0878
7F48
0848
7F48
004E
FF80
817C
7E84
0048
3E48
2230
2230
3E4C
2286
0104
ENDCHAR
STARTCHAR 0x86D9
ENCODING 34521
SWIDTH 1000 0
DWIDTH 16 0
BBX 16 16 0 -2
BITMAP
001C
07E0
F440
9478
9440
95FC
9548
95F0
9544
F53C
8500
0AF0
0A90
1492
291E
1200
ENDCHAR
STARTCHAR 0x86DA
ENCODING 34522
SWIDTH 1000 0
DWIDTH 16 0
BBX 16 16 0 -2
BITMAP
003C
07C0
F004
9246
9124
9528
97FC
9440
9840
F7FC
9040
9444
0444
0444
07FC
0000
ENDCHAR
STARTCHAR 0x86DB
ENCODING 34523
SWIDTH 1000 0
DWIDTH 16 0
BBX 16 16 0 -2
BITMAP
0080
0040
F7FC
9000
93F8
9208
93F8
9000
97FC
F404
95F4
0514
05F4
0404
0414
0408
ENDCHAR
STARTCHAR 0x86DC
ENCODING 34524
SWIDTH 1000 0
DWIDTH 16 0
BBX 16 16 0 -2
BITMAP
0040
00A0
F110
9288
9446
9BFC
9208
93F8
F208
93F8
8200
03F8
0508
0508
09F8
1108
ENDCHAR
STARTCHAR 0x86DD
ENCODING 34525
SWIDTH 1000 0
DWIDTH 16 0
BBX 16 16 0 -2
BITMAP
0080
3FFC
0890
0890
14A8
22C4
7FFE
0000
1FF8
1008
17E8
1428
17E8
1008
1FF8
0000
ENDCHAR
STARTCHAR 0x86DE
ENCODING 34526
SWIDTH 1000 0
DWIDTH 16 0
BBX 16 16 0 -2
BITMAP
0244
0248
F490
9248
93FC
9208
9208
93F8
9000
F7FC
9444
0444
07FC
0400
0402
03FE
ENDCHAR
STARTCHAR 0x86DF
ENCODING 34527
SWIDTH 1000 0
DWIDTH 16 0
BBX 16 16 0 -2
BITMAP
0000
03FC
F040
97FE
9000
93F8
9208
93F8
9208
F3F8
9208
03F8
0110
0208
0406
0804
ENDCHAR
STARTCHAR 0x86E0
ENCODING 34528
SWIDTH 1000 0
DWIDTH 16 0
BBX 16 16 0 -2
BITMAP
0080
07F8
F088
9528
9210
9FBE
9492
99A6
93F8
F208
93F8
0208
03F8
0208
0228
0210
ENDCHAR
STARTCHAR 0x86E1
ENCODING 34529
SWIDTH 1000 0
DWIDTH 16 0
BBX 16 16 0 -2
BITMAP
0000
07FC
F440
97FC
9440
97FC
9440
9440
97FC
F004
9554
0554
0954
0944
0014
0008
ENDCHAR
STARTCHAR 0x86E2
ENCODING 34530
SWIDTH 1000 0
DWIDTH 16 0
BBX 16 16 0 -2
BITMAP
0110
0110
FFFE
9110
9040
90A0
9118
924E
9C44
F3F8
9040
0250
0448
084C
1148
0080
ENDCHAR
STARTCHAR 0x86E3
ENCODING 34531
SWIDTH 1000 0
DWIDTH 16 0
BBX 16 16 0 -2
BITMAP
0080
0040
7BFE
4C44
4FFC
4840
4BFC
4840
4FFE
7840
4BF8
4208
0208
03F8
0208
0000
ENDCHAR
STARTCHAR 0x86E4
ENCODING 34532
SWIDTH 1000 0
DWIDTH 16 0
BBX 16 16 0 -2
BITMAP
03FC
0200
F3F8
9200
93FE
92A4
92A8
9290
92CE
F410
95FE
0490
0450
0810
0850
1020
ENDCHAR
STARTCHAR 0x86E5
ENCODING 34533
SWIDTH 1000 0
DWIDTH 16 0
BBX 16 16 0 -2
BITMAP
0000
01F8
F908
89E8
8928
8BFE
8A04
8DF8
F908
89F8
8108
01F8
0108
0108
0128
0110
ENDCHAR
STARTCHAR 0x86E6
ENCODING 34534
SWIDTH 1000 0
DWIDTH 16 0
BBX 16 16 0 -2
BITMAP
001E
03E0
7922
4894
4860
4890
49F8
4840
4988
7BFC
4820
43FE
0060
0090
010E
0604
ENDCHAR
STARTCHAR 0x86E7
ENCODING 34535
SWIDTH 1000 0
DWIDTH 16 0
BBX 16 16 0 -2
BITMAP
0080
0040
F7FE
9108
9090
93FE
9284
9448
97FE
F080
90F8
0108
0108
0208
0450
0820
ENDCHAR
STARTCHAR 0x86E8
ENCODING 34536
SWIDTH 1000 0
DWIDTH 16 0
BBX 16 16 0 -2
BITMAP
0040
0080
F3F8
9208
9208
93F8
9200
93FE
9200
F3FC
9024
0554
0554
0544
0814
0008
ENDCHAR
STARTCHAR 0x86E9
ENCODING 34537
SWIDTH 1000 0
DWIDTH 16 0
BBX 16 16 0 -2
BITMAP
0208
0110
FFFC
9120
9120
97F8
9128
97FE
9128
F7F8
9320
8530
0528
0926
1124
2120
ENDCHAR
STARTCHAR 0x86EA
ENCODING 34538
SWIDTH 1000 0
DWIDTH 16 0
BBX 16 16 0 -2
BITMAP
0000
0210
F118
9120
97FE
9208
9310
9214
94A6
FF3C
9108
8210
0494
0FBE
04A2
0000
ENDCHAR
STARTCHAR 0x86EB
ENCODING 34539
SWIDTH 1000 0
DWIDTH 16 0
BBX 16 16 0 -2
BITMAP
0E40
F040
24FC
9288
5148
7D50
0420
0850
108C
1DFA
F288
1088
1088
50F8
2088
0000
ENDCHAR
STARTCHAR 0x86EC
ENCODING 34540
SWIDTH 1000 0
DWIDTH 16 0
BBX 16 16 0 -2
BITMAP
0000
03F8
F208
9208
93F8
9208
9208
93F8
9000
F7FC
94A4
04A4
04A4
04A4
0FFE
0000
ENDCHAR
STARTCHAR 0x86ED
ENCODING 34541
SWIDTH 1000 0
DWIDTH 16 0
BBX 16 16 0 -2
BITMAP
0800
7E7C
0A44
1244
2A7C
C500
06C0
1830
EFEE
0000
1FF8
1248
1FF8
1248
1248
1018
ENDCHAR
STARTCHAR 0x86EE
ENCODING 34542
SWIDTH 1000 0
DWIDTH 16 0
BBX 16 16 0 -2
BITMAP
0020
0124
00A8
7DFC
4504
45FC
4504
45FC
4504
4504
7DFC
4504
0090
018C
0206
0404
ENDCHAR
STARTCHAR 0x86EF
ENCODING 34543
SWIDTH 1000 0
DWIDTH 16 0
BBX 16 16 0 -2
BITMAP
0080
3FFC
0100
0FF0
0810
0FF0
0810
0F10
08F0
0810
7FFE
0080
3E98
22E0
3E84
007C
ENDCHAR
STARTCHAR 0x86F0
ENCODING 34544
SWIDTH 1000 0
DWIDTH 16 0
BBX 16 16 0 -2
BITMAP
0000
0EFE
EA28
AA28
AAFE
AAAA
AEAA
AAAA
AAAA
AACE
AE82
EA82
0AFE
0082
0082
0000
ENDCHAR
STARTCHAR 0x86F1
ENCODING 34545
SWIDTH 1000 0
DWIDTH 16 0
BBX 16 16 0 -2
BITMAP
0100
01FE
F292
9292
96FE
9692
9A92
92BA
92AA
F2AA
92BA
02AA
0282
02FE
0282
0000
ENDCHAR
STARTCHAR 0x86F2
ENCODING 34546
SWIDTH 1000 0
DWIDTH 16 0
BBX 16 16 0 -2
BITMAP
0040
00A0
F118
92F6
9C04
93F8
9208
93F8
9000
F3FC
9020
83FC
0020
0FFE
0020
00E0
ENDCHAR
STARTCHAR 0x86F3
ENCODING 34547
SWIDTH 1000 0
DWIDTH 16 0
BBX 16 16 0 -2
BITMAP
0210
0120
FFFC
9080
9080
93F8
9080
97FC
9148
F148
9154
827E
0240
0442
083E
1000
ENDCHAR
STARTCHAR 0x86F4
ENCODING 34548
SWIDTH 1000 0
DWIDTH 16 0
BBX 16 16 0 -2
BITMAP
0000
07FC
F444
97FC
9444
9444
97FC
9248
9FFE
9248
F7FE
9040
0FFE
0040
0040
0040
ENDCHAR
STARTCHAR 0x86F5
ENCODING 34549
SWIDTH 1000 0
DWIDTH 16 0
BBX 16 16 0 -2
BITMAP
0820
7F30
0820
7F7E
0844
FFC4
1028
1E10
2228
5244
8C82
1FF8
1008
1008
1FF8
1008
ENDCHAR
STARTCHAR 0x86F6
ENCODING 34550
SWIDTH 1000 0
DWIDTH 16 0
BBX 16 16 0 -2
BITMAP
0020
0820
F5FC
9420
91FC
9124
9DFC
9524
95FC
F420
95FE
8420
0420
0A20
11FE
0000
ENDCHAR
STARTCHAR 0x86F7
ENCODING 34551
SWIDTH 1000 0
DWIDTH 16 0
BBX 16 16 0 -2
BITMAP
0040
0444
F444
97FC
9280
9240
97FC
9C40
97F8
F440
9440
87F8
0440
0440
07FC
0400
ENDCHAR
STARTCHAR 0x86F8
ENCODING 34552
SWIDTH 1000 0
DWIDTH 16 0
BBX 16 16 0 -2
BITMAP
0080
0040
F7FC
9400
9490
9490
97FC
9490
9490
F4F0
9400
8948
0AA4
14B6
28A4
0000
ENDCHAR
STARTCHAR 0x86F9
ENCODING 34553
SWIDTH 1000 0
DWIDTH 16 0
BBX 16 16 0 -2
BITMAP
0210
0FFC
F210
9000
97F8
9408
97F8
9408
97F8
F080
9FFE
8080
0140
0230
0C1C
3008
ENDCHAR
STARTCHAR 0x86FA
ENCODING 34554
SWIDTH 1000 0
DWIDTH 16 0
BBX 16 16 0 -2
BITMAP
0040
00A0
7910
4A48
4DF6
4820
4BF8
4A08
4BF8
7A08
4BF8
0208
03F8
0110
020E
0C04
ENDCHAR
STARTCHAR 0x86FB
ENCODING 34555
SWIDTH 1000 0
DWIDTH 16 0
BBX 16 16 0 -2
BITMAP
0080
78BC
48A4
4AA4
7ABC
4AA4
4280
0280
7ABC
4BA4
4AA4
48A4
78BC
48A4
4080
0000
ENDCHAR
STARTCHAR 0x86FC
ENCODING 34556
SWIDTH 1000 0
DWIDTH 16 0
BBX 16 16 0 -2
BITMAP
0040
F7FE
9420
95FC
9424
97FE
9424
95FC
F420
95FC
0524
05FC
0524
09FC
0924
112C
ENDCHAR
STARTCHAR 0x86FD
ENCODING 34557
SWIDTH 1000 0
DWIDTH 16 0
BBX 16 16 0 -2
BITMAP
0080
07F8
F408
97F8
9408
97F8
9400
97FE
9400
F7FC
9084
07F4
01CC
02B0
048E
0884
ENDCHAR
STARTCHAR 0x86FE
ENCODING 34558
SWIDTH 1000 0
DWIDTH 16 0
BBX 16 16 0 -2
BITMAP
0000
0F7C
E910
AF50
A950
A950
AF7E
A810
E810
AA28
8928
09A8
0B4A
1D4A
088E
0100
ENDCHAR
STARTCHAR 0x8740
ENCODING 34624
SWIDTH 1000 0
DWIDTH 16 0
BBX 16 16 0 -2
BITMAP
0110
F114
97FE
9110
91F0
9040
97FC
9444
F7FC
9040
87FC
0040
0FFE
01B0
060E
1804
ENDCHAR
STARTCHAR 0x8741
ENCODING 34625
SWIDTH 1000 0
DWIDTH 16 0
BBX 16 16 0 -2
BITMAP
0080
0110
F278
97C8
9210
9524
9FFE
90C4
9130
F22E
9CC4
0330
00C4
0718
00E0
0F00
ENDCHAR
STARTCHAR 0x8742
ENCODING 34626
SWIDTH 1000 0
DWIDTH 16 0
BBX 16 16 0 -2
BITMAP
0040
0248
F248
D3F8
9000
97FC
9440
97F8
9440
F7FC
9440
07F8
0840
0840
17FE
2000
ENDCHAR
STARTCHAR 0x8743
ENCODING 34627
SWIDTH 1000 0
DWIDTH 16 0
BBX 16 16 0 -2
BITMAP
0210
0218
EF10
A250
A2BE
BFA8
A248
A7A8
A928
F128
A390
0E10
0228
0244
0A82
0500
ENDCHAR
STARTCHAR 0x8744
ENCODING 34628
SWIDTH 1000 0
DWIDTH 16 0
BBX 16 16 0 -2
BITMAP
0040
03F8
F248
97FE
9248
93F8
9040
93F8
F248
93F8
8080
0FFE
0110
00E0
0318
0C06
ENDCHAR
STARTCHAR 0x8745
ENCODING 34629
SWIDTH 1000 0
DWIDTH 16 0
BBX 16 16 0 -2
BITMAP
07BC
F0C4
94B4
9294
91E4
92A4
94C4
91A0
F258
9D86
8630
00CC
0710
0060
0180
0600
ENDCHAR
STARTCHAR 0x8746
ENCODING 34630
SWIDTH 1000 0
DWIDTH 16 0
BBX 16 16 0 -2
BITMAP
0040
007C
F040
97FE
9444
97F8
9440
943C
95E0
F524
94A8
87FE
0420
0820
08A0
1040
ENDCHAR
STARTCHAR 0x8747
ENCODING 34631
SWIDTH 1000 0
DWIDTH 16 0
BBX 16 16 0 -2
BITMAP
0208
0208
FFBE
9208
97BC
9208
9FBE
9208
9208
F7FC
9004
03FC
0004
0004
07FC
0000
ENDCHAR
STARTCHAR 0x8748
ENCODING 34632
SWIDTH 1000 0
DWIDTH 16 0
BBX 16 16 0 -2
BITMAP
0000
07FE
F422
942A
97FE
9422
95E2
9562
95D2
F416
94D6
070A
0402
07FE
0402
0000
ENDCHAR
STARTCHAR 0x8749
ENCODING 34633
SWIDTH 1000 0
DWIDTH 16 0
BBX 16 16 0 -2
BITMAP
0000
07FE
F400
94F8
9488
94F8
9488
9400
95DC
F554
9554
85DC
0554
0400
07FE
0000
ENDCHAR
STARTCHAR 0x874A
ENCODING 34634
SWIDTH 1000 0
DWIDTH 16 0
BBX 16 16 0 -2
BITMAP
0000
07FE
F040
927C
9240
97FE
9200
93FE
9200
F3FC
9004
8554
0554
0944
1014
0008
ENDCHAR
STARTCHAR 0x874B
ENCODING 34635
SWIDTH 1000 0
DWIDTH 16 0
BBX 16 16 0 -2
BITMAP
0040
07FC
7840
4BF8
4840
4FFE
4800
4BF8
4A08
7BF8
4A08
03F8
0208
03F8
01B0
060C
ENDCHAR
STARTCHAR 0x874C
ENCODING 34636
SWIDTH 1000 0
DWIDTH 16 0
BBX 16 16 0 -2
BITMAP
1110
0920
3FFE
2824
4FE8
1000
11E0
1F00
1010
0FF0
0000
1FF0
1010
1FF0
1010
1FF0
ENDCHAR
STARTCHAR 0x874D
ENCODING 34637
SWIDTH 1000 0
DWIDTH 16 0
BBX 16 16 0 -2
BITMAP
0010
0410
F2FE
9A92
94BC
94C4
92A8
9290
936E
F480
97FE
8108
0390
0070
018C
0604
ENDCHAR
STARTCHAR 0x874E
ENCODING 34638
SWIDTH 1000 0
DWIDTH 16 0
BBX 16 16 0 -2
BITMAP
0000
02FC
F384
92FC
9584
9AFC
9200
96FE
9A08
F3FE
9288
8248
0248
0208
0238
0210
ENDCHAR
STARTCHAR 0x874F
ENCODING 34639
SWIDTH 1000 0
DWIDTH 16 0
BBX 16 16 0 -2
BITMAP
0040
0040
F7FC
9248
9248
9554
98E2
9150
F28E
85F4
1A10
0510
08E0
01A0
0610
1800
ENDCHAR
STARTCHAR 0x8750
ENCODING 34640
SWIDTH 1000 0
DWIDTH 16 0
BBX 16 16 0 -2
BITMAP
0208
03C8
E4A8
A928
AF88
AA88
AFA8
AAA8
EA8E
AFF8
8A88
0A88
1288
1088
2188
0000
ENDCHAR
STARTCHAR 0x8751
ENCODING 34641
SWIDTH 1000 0
DWIDTH 16 0
BBX 16 16 0 -2
BITMAP
07FE
0080
F1F8
9108
91C8
9138
9108
97FE
F492
90B8
07C0
0090
0060
03B2
0C0E
0000
ENDCHAR
STARTCHAR 0x8752
ENCODING 34642
SWIDTH 1000 0
DWIDTH 16 0
BBX 16 16 0 -2
BITMAP
0040
0248
F148
9150
97FE
9404
99F0
9110
9110
F1F0
9040
83F8
0040
0040
0FFE
0000
ENDCHAR
STARTCHAR 0x8753
ENCODING 34643
SWIDTH 1000 0
DWIDTH 16 0
BBX 16 16 0 -2
BITMAP
0000
F7FE
9544
9558
97C8
957E
954A
97C8
F108
9108
87C8
0108
0108
01E8
0F10
0000
ENDCHAR
STARTCHAR 0x8754
ENCODING 34644
SWIDTH 1000 0
DWIDTH 16 0
BBX 16 16 0 -2
BITMAP
0110
F190
925E
9450
9950
93FE
9210
9610
9A50
F25E
9250
0250
02D0
02B0
031E
0200
ENDCHAR
STARTCHAR 0x8755
ENCODING 34645
SWIDTH 1000 0
DWIDTH 16 0
BBX 16 16 0 -2
BITMAP
1FF8
1008
1FF8
0660
1818
6006
1FFC
0220
1FF8
1228
1FF8
0200
FFFE
0C20
03C0
3C38
ENDCHAR
STARTCHAR 0x8756
ENCODING 34646
SWIDTH 1000 0
DWIDTH 16 0
BBX 16 16 0 -2
BITMAP
0040
07FC
F044
9FFE
9044
97FC
9040
9444
9554
F4E4
97FC
04C4
0564
0A54
0C54
1044
ENDCHAR
STARTCHAR 0x8757
ENCODING 34647
SWIDTH 1000 0
DWIDTH 16 0
BBX 16 16 0 -2
BITMAP
0110
0110
FFFC
9110
9110
9FFE
9248
97FC
9248
F248
97FE
0040
0FFE
0040
0040
0040
ENDCHAR
STARTCHAR 0x8758
ENCODING 34648
SWIDTH 1000 0
DWIDTH 16 0
BBX 16 16 0 -2
BITMAP
07FE
F492
9492
97FE
9000
93FC
9204
93FC
9204
F3FC
9204
03FC
0110
038C
0606
0804
ENDCHAR
STARTCHAR 0x8759
ENCODING 34649
SWIDTH 1000 0
DWIDTH 16 0
BBX 16 16 0 -2
BITMAP
0210
0210
F3D4
9252
927E
95D0
9490
9B28
912C
F246
9484
8908
04A4
0896
0892
0000
ENDCHAR
STARTCHAR 0x875A
ENCODING 34650
SWIDTH 1000 0
DWIDTH 16 0
BBX 16 16 0 -2
BITMAP
0108
0108
F56A
93AC
9118
92D4
9462
97FE
9442
F3F8
9048
0048
0088
0088
0128
0210
ENDCHAR
STARTCHAR 0x875B
ENCODING 34651
SWIDTH 1000 0
DWIDTH 16 0
BBX 16 16 0 -2
BITMAP
0040
F7FC
9044
9FFE
9044
97FC
9040
9554
F75C
9444
87FC
0444
075C
0554
0954
1154
ENDCHAR
STARTCHAR 0x875C
ENCODING 34652
SWIDTH 1000 0
DWIDTH 16 0
BBX 16 16 0 -2
BITMAP
0040
0248
F252
957E
97C8
9254
97FE
9244
97FE
9220
F32C
9290
04B2
044A
0886
1100
ENDCHAR
STARTCHAR 0x875D
ENCODING 34653
SWIDTH 1000 0
DWIDTH 16 0
BBX 16 16 0 -2
BITMAP
0040
03F8
F248
93F8
9040
9FFE
9000
93F8
9208
F3F8
9208
03F8
0208
03F8
01B0
060C
ENDCHAR
STARTCHAR 0x875E
ENCODING 34654
SWIDTH 1000 0
DWIDTH 16 0
BBX 16 16 0 -2
BITMAP
0040
F3F8
9040
97FC
9210
97BC
9210
9390
FE7E
9000
87FC
0120
0120
0122
021E
0400
ENDCHAR
STARTCHAR 0x875F
ENCODING 34655
SWIDTH 1000 0
DWIDTH 16 0
BBX 16 16 0 -2
BITMAP
0080
03F8
7A08
4BF8
4A08
4BF8
4A08
4BF8
7A48
495C
4160
0258
0FFE
0040
0040
0040
ENDCHAR
STARTCHAR 0x8760
ENCODING 34656
SWIDTH 1000 0
DWIDTH 16 0
BBX 16 16 0 -2
BITMAP
0200
0200
F3FE
96A8
9AA8
92A8
9FFE
92A8
92A8
F2A8
8FFE
0000
0548
04A4
08B6
10A4
ENDCHAR
STARTCHAR 0x8761
ENCODING 34657
SWIDTH 1000 0
DWIDTH 16 0
BBX 16 16 0 -2
BITMAP
0038
03C0
F080
97FE
9110
93F8
9D16
91F4
9000
F7FC
9404
05E4
0524
05E4
0414
0408
ENDCHAR
STARTCHAR 0x8762
ENCODING 34658
SWIDTH 1000 0
DWIDTH 16 0
BBX 16 16 0 -2
BITMAP
3E7C
2244
3E7C
0000
1FF0
1110
1FF0
1110
1FF0
0000
7FFC
0000
1FF0
1010
1FF0
1010
ENDCHAR
STARTCHAR 0x8763
ENCODING 34659
SWIDTH 1000 0
DWIDTH 16 0
BBX 16 16 0 -2
BITMAP
0000
07BC
F4A4
97BC
9000
97FC
9444
97FC
9444
F7FC
9040
0FFE
0040
0040
0040
0040
ENDCHAR
STARTCHAR 0x8764
ENCODING 34660
SWIDTH 1000 0
DWIDTH 16 0
BBX 16 16 0 -2
BITMAP
07FE
F090
97FE
9492
97FE
9000
93FC
9204
93FC
9204
F3FC
9040
07FE
0040
0040
0040
ENDCHAR
STARTCHAR 0x8765
ENCODING 34661
SWIDTH 1000 0
DWIDTH 16 0
BBX 16 16 0 -2
BITMAP
07BC
F4A4
94A4
97BC
9420
94A2
97BE
9110
97FC
F110
9110
0FFE
0110
0188
020C
0408
ENDCHAR
STARTCHAR 0x8766
ENCODING 34662
SWIDTH 1000 0
DWIDTH 16 0
BBX 16 16 0 -2
BITMAP
0000
0FFC
F120
973C
9404
9404
973C
9120
9120
FFFE
9088
0A44
0A52
0A1A
11F0
0000
ENDCHAR
STARTCHAR 0x8767
ENCODING 34663
SWIDTH 1000 0
DWIDTH 16 0
BBX 16 16 0 -2
BITMAP
0208
0110
F7FE
90A0
97FC
94A4
971C
94E4
9404
F7FC
9010
8FFE
0110
0110
0050
0020
ENDCHAR
STARTCHAR 0x8768
ENCODING 34664
SWIDTH 1000 0
DWIDTH 16 0
BBX 16 16 0 -2
BITMAP
001C
07E0
F248
9150
97FE
9160
9250
944E
9BFC
F248
93F8
0248
0248
03F8
0208
0000
ENDCHAR
STARTCHAR 0x8769
ENCODING 34665
SWIDTH 1000 0
DWIDTH 16 0
BBX 16 16 0 -2
BITMAP
0100
07FE
F112
97D2
9112
97E2
914A
90A4
93F0
F108
97FC
0048
0250
044C
0948
0080
ENDCHAR
STARTCHAR 0x876A
ENCODING 34666
SWIDTH 1000 0
DWIDTH 16 0
BBX 16 16 0 -2
BITMAP
003C
7FE8
494C
4A28
4BFC
4A08
4BFC
4A04
4A08
7BFC
4A24
4554
0554
0544
0814
1008
ENDCHAR
STARTCHAR 0x876B
ENCODING 34667
SWIDTH 1000 0
DWIDTH 16 0
BBX 16 16 0 -2
BITMAP
0000
07FC
F510
9530
97FE
9310
955A
99AE
93F8
F208
9208
03F8
0208
0208
03F8
0208
ENDCHAR
STARTCHAR 0x876C
ENCODING 34668
SWIDTH 1000 0
DWIDTH 16 0
BBX 16 16 0 -2
BITMAP
0080
0040
F7FC
9110
9FFE
9000
93F8
9248
93F8
F248
93F8
8040
07FC
0040
0040
0FFE
ENDCHAR
STARTCHAR 0x876D
ENCODING 34669
SWIDTH 1000 0
DWIDTH 16 0
BBX 16 16 0 -2
BITMAP
0420
0228
EFA4
A024
AFA0
A8FE
A8A8
A8A8
AFA8
E228
A328
8AA8
12AA
224A
0A4E
0480
ENDCHAR
STARTCHAR 0x876E
ENCODING 34670
SWIDTH 1000 0
DWIDTH 16 0
BBX 16 16 0 -2
BITMAP
0010
FF98
9110
9FD0
949E
94A4
97A4
94E4
9494
F794
9488
05E8
1E94
08A6
00C4
0080
ENDCHAR
ENDFONT
